<svg
	data-name="Layer 1"
	xmlns="http://www.w3.org/2000/svg"
	viewBox="0 0 340.27 141.53"
	class="w-full max-h-full fill-current"
>
	<path
		class="afh-logo-30th_svg__cls-3"
		d="M21.35 51.19a18 18 0 00-7.16 1.52 27.24 27.24 0 00-6.74 4.19V36.18h-7v57.26h7v-30.7a31.46 31.46 0 016-3.57 14.82 14.82 0 016-1.39 11.1 11.1 0 014.51.76 5.64 5.64 0 012.69 2.3 9.8 9.8 0 011.22 3.87 40.56 40.56 0 01.27 5.29v23.4h7V66.76q0-7.53-3.53-11.54c-2.37-2.68-5.79-4.03-10.26-4.03zM73.26 83a27.63 27.63 0 01-6 3.56A14.88 14.88 0 0161.35 88a11 11 0 01-4.61-.74 6 6 0 01-2.63-2.34 9.9 9.9 0 01-1.25-3.81 41.14 41.14 0 01-.29-5.36V52.34h-7V79q0 7.65 3.62 11.59c2.43 2.65 5.83 4 10.18 4a17.06 17.06 0 007.11-1.47 33.76 33.76 0 006.75-4.23v4.57h7V52.34h-7zM137.88 51.19a18 18 0 00-7.45 1.56 34.89 34.89 0 00-7.72 5.1A10.87 10.87 0 00118.3 53a13.56 13.56 0 00-7.18-1.78 16.43 16.43 0 00-6.92 1.52 30.45 30.45 0 00-6.5 4.19v-4.59h-7v41.1h7v-30.7a35.32 35.32 0 015.74-3.57 13.15 13.15 0 015.73-1.39 10.68 10.68 0 014.59.78 5.5 5.5 0 012.45 2.44 10.93 10.93 0 011 3.92c.14 1.62.22 3.35.22 5.17v23.4h7V67.12c0-.73 0-1.47-.08-2.21s-.1-1.4-.17-2a36.55 36.55 0 015.86-3.71 13.09 13.09 0 015.85-1.45 10.39 10.39 0 014.61.82A5.58 5.58 0 01143 61a10.48 10.48 0 011 3.93 49.54 49.54 0 01.26 5.12v23.4h7V66.76c0-4.91-1.1-8.74-3.24-11.46s-5.58-4.11-10.14-4.11zM192.09 54.51a15.09 15.09 0 00-5.61-2.51 37.07 37.07 0 00-7.63-.69 44.05 44.05 0 00-7.61.66c-2.57.43-4.52.84-5.9 1.21v7h.38a49.34 49.34 0 017-2.08 28.53 28.53 0 0110.46-.41 10 10 0 013.55 1.13 6.12 6.12 0 012.41 2.43 8.24 8.24 0 01.82 3.91v1.07c-4.06.18-7.84.48-11.38.87a30.46 30.46 0 00-9.08 2.26 13.24 13.24 0 00-5.8 4.64 13 13 0 00-2 7.55 12.37 12.37 0 003.9 9.39 13.31 13.31 0 009.5 3.68 22.26 22.26 0 005.3-.56 20.39 20.39 0 004-1.42 16.32 16.32 0 003.05-1.79c1.07-.74 1.91-1.33 2.51-1.76v4.4h6.95V65.54a16 16 0 00-1.24-6.66 10.79 10.79 0 00-3.58-4.37zm-2.15 28.81a31.25 31.25 0 01-5.63 3.41 16 16 0 01-6.73 1.4c-2.93 0-5.13-.59-6.57-1.77a6.58 6.58 0 01-2.14-5.36 6.48 6.48 0 011.86-4.92 11 11 0 014.87-2.62 38.85 38.85 0 016.83-1.08c2.9-.25 5.39-.43 7.51-.55zM228.29 51.19a18.12 18.12 0 00-7.18 1.52 28.43 28.43 0 00-6.75 4.19v-4.56h-7v41.1h7v-30.7a32.07 32.07 0 016-3.57 14.62 14.62 0 016-1.39 11.1 11.1 0 014.51.76 5.62 5.62 0 012.68 2.3 9.79 9.79 0 011.23 3.87 40.56 40.56 0 01.33 5.33v23.4h7V66.76q0-7.53-3.53-11.54t-10.29-4.03zM252.52 52.34h6.98v41.1h-6.98zM325.53 52.34L312.69 82.8 300 52.34h-23.08V40.53H270V80q0 7.45 3.29 10.85t9.65 3.39a33.55 33.55 0 004.14-.33 39 39 0 004.28-.85v-6.21H291a23.43 23.43 0 01-2.68.83 14.1 14.1 0 01-3.55.49 10.75 10.75 0 01-4.37-.68 5 5 0 01-2.24-2.15 8.17 8.17 0 01-1-3.41c-.09-1.2-.16-2.89-.16-5.06V58.15h17.94L309 91.44l-5.76 13.21h7.46l22.22-52.31zM255.48 35.82a4.58 4.58 0 104.6 4.58 4.62 4.62 0 00-4.6-4.58zM98.33 12.54h5.75v33.33h-5.75zM46.29 45.83l.05-22.63a13.17 13.17 0 00-1-5.4 8.73 8.73 0 00-2.89-3.57 11.92 11.92 0 00-4.56-2 28 28 0 00-6.17-.6 37.27 37.27 0 00-6.18.52c-2.1.37-3.68.69-4.8 1v5.71h.31a37.3 37.3 0 015.67-1.68 23.84 23.84 0 015-.57 24.71 24.71 0 013.51.24 8.83 8.83 0 012.9.94 5.1 5.1 0 011.93 2 6.63 6.63 0 01.67 3.16v.87c-3.3.16-6.39.39-9.25.7a25.9 25.9 0 00-7.39 1.8A10.92 10.92 0 0019.4 30a10.4 10.4 0 00-1.66 6.12 10 10 0 003.14 7.64 10.88 10.88 0 007.7 3 17.54 17.54 0 004.3-.46 16.15 16.15 0 005.75-2.58l2-1.41v3.56zm-10.2-5.47a12.85 12.85 0 01-5.45 1.14 8.17 8.17 0 01-5.33-1.5 5.31 5.31 0 01-1.74-4.32 5.37 5.37 0 011.52-4A9.4 9.4 0 0129 29.61a32 32 0 015.57-.85q3.51-.3 6.09-.44v9.29a23.88 23.88 0 01-4.57 2.75zM56.69 22.19a24.11 24.11 0 014.7-3 11.81 11.81 0 015.07-1.13 27.83 27.83 0 012.81.14 19.89 19.89 0 012.46.44H72v-5.75c-.89-.13-1.55-.23-2-.28s-1.16-.07-2.13-.07a13.2 13.2 0 00-5.28 1.1 28 28 0 00-5.94 3.8V12.5h-5.58L51 45.85h5.66zM91.94 40.61h-.31a19.39 19.39 0 01-2.17.67 11.11 11.11 0 01-2.88.39 8.61 8.61 0 01-3.58-.56 4.05 4.05 0 01-1.81-1.74 6.71 6.71 0 01-.84-2.78c-.08-1-.12-2.35-.12-4.11V17.29h11.69v-4.7H80.24V3.01L74.68 3v14.3L74.6 35q0 6.07 2.65 8.83t7.84 2.76a22.59 22.59 0 003.36-.26 32.94 32.94 0 003.47-.67zM121.07 46.85c4.4 0 7.87-1 10.41-2.91a9.1 9.1 0 003.84-7.5 8.06 8.06 0 00-2.13-5.84 12.07 12.07 0 00-6.07-3.11c-.87-.19-2-.41-3.24-.65s-2.46-.49-3.51-.74a10.17 10.17 0 01-4.08-1.69A3.73 3.73 0 01115 21.3a3.76 3.76 0 012.15-3.51 10.75 10.75 0 015.23-1.17 18.42 18.42 0 016.08 1.11 20.39 20.39 0 015.28 2.68h.26v-6a22.66 22.66 0 00-5.12-1.78 26.43 26.43 0 00-6.11-.74 19 19 0 00-5.83.8 12.51 12.51 0 00-4.28 2.21 9.33 9.33 0 00-2.62 3.25 9 9 0 00-.84 3.85 8.4 8.4 0 001.86 5.54q1.83 2.26 6.26 3.43c1.07.28 2.24.55 3.53.78s2.35.47 3.14.65a10.31 10.31 0 014.41 1.74 3.8 3.8 0 011.13 3 4 4 0 01-2.11 3.76 12 12 0 01-5.86 1.18 18.31 18.31 0 01-6.29-1.19 22.41 22.41 0 01-6-3.2H109V44a29.23 29.23 0 005.22 1.95 25 25 0 006.85.9zM145.77 3.16h-5.66V35.2c0 4.05.87 7 2.65 8.82s4.39 2.75 7.82 2.76a23.93 23.93 0 003.37-.26 29 29 0 003.48-.68v-5h-.31a18.73 18.73 0 01-2.17.67 10.59 10.59 0 01-2.89.38 8.53 8.53 0 01-3.53-.55 4.05 4.05 0 01-1.81-1.74 6.38 6.38 0 01-.84-2.77c-.09-1-.13-2.35-.12-4.11V17.51h11.69v-4.73h-11.67zM174 47c4.41 0 7.87-1 10.43-2.9a9.05 9.05 0 003.83-7.48 8.09 8.09 0 00-2.13-5.86 12.05 12.05 0 00-6.13-3.11c-.86-.21-1.93-.44-3.23-.67s-2.47-.47-3.52-.72a10.23 10.23 0 01-4.07-1.72 3.75 3.75 0 01-1.29-3.11 3.78 3.78 0 012.15-3.5 10.75 10.75 0 015.23-1.17 18.45 18.45 0 016.08 1.1 20.81 20.81 0 015.27 2.69h.29v-6a23 23 0 00-5.12-1.77 25.81 25.81 0 00-6.11-.76 19.27 19.27 0 00-5.82.81 12.45 12.45 0 00-4.3 2.22 9.38 9.38 0 00-2.56 3.23 8.86 8.86 0 00-.87 3.89 8.39 8.39 0 001.87 5.54c1.22 1.5 3.31 2.65 6.26 3.43 1.06.28 2.24.55 3.53.8s2.34.46 3.14.64a10.42 10.42 0 014.41 1.72 3.81 3.81 0 011.14 3 4 4 0 01-2.13 3.76 11.93 11.93 0 01-5.85 1.16 18.29 18.29 0 01-6.31-1.22 23.16 23.16 0 01-5.95-3.2h-.3v6.32a32.81 32.81 0 005.22 1.93A25.16 25.16 0 00174 47zM101.59 7.52a3.76 3.76 0 10-3.77-3.77 3.77 3.77 0 003.77 3.77zM221.16 47a9.42 9.42 0 007.33-3 12.24 12.24 0 002.74-8.37 12.3 12.3 0 00-2.74-8.39 9.37 9.37 0 00-7.33-3.07 9.49 9.49 0 00-7.4 3.07 12.38 12.38 0 00-2.7 8.39 12.33 12.33 0 002.7 8.37 9.54 9.54 0 007.4 3zm-4.65-17.7a6.25 6.25 0 019.26 0c1.1 1.35 1.67 3.44 1.67 6.26s-.57 4.82-1.67 6.19a5.67 5.67 0 01-4.61 2.08 5.57 5.57 0 01-4.64-2.1c-1.1-1.4-1.66-3.45-1.66-6.17s.54-4.91 1.65-6.26zM247.87 24.7a8.34 8.34 0 00-3.4.74 17 17 0 00-3.87 2.48V24.7h-3.67v21.69h3.67V31a15.89 15.89 0 013.05-1.93 7.72 7.72 0 013.28-.73c.7 0 1.31 0 1.82.07a11.6 11.6 0 011.61.29h.19V25c-.58-.1-1-.17-1.29-.2s-.74-.1-1.39-.1zM208.8 24.78h-6.56v-.73q0-2.68 1-3.72a4.85 4.85 0 013.4-1 8.46 8.46 0 011.68.19 14 14 0 011.58.35h.2v-3.3c-.54-.11-1.15-.19-1.8-.27a19.91 19.91 0 00-2.19-.12 7.27 7.27 0 00-5.54 2.05 8.25 8.25 0 00-1.9 5.86V46.2h3.62V27.81h6.46zM0 105.52A4.38 4.38 0 014.5 101a4.44 4.44 0 013.4 1.33l-1.21 1.39a3.19 3.19 0 00-2.2-1A2.56 2.56 0 002 105.47a2.57 2.57 0 002.51 2.71 3.16 3.16 0 002.27-1L8 108.42A4.39 4.39 0 014.42 110 4.36 4.36 0 010 105.52zM11 101.18h3.94a3.44 3.44 0 012.52.88 2.71 2.71 0 01.74 2 2.67 2.67 0 01-1.85 2.67l2.11 3.08h-2.27l-1.85-2.76h-1.49v2.76H11zm3.82 4.2c.93 0 1.46-.5 1.46-1.23 0-.81-.57-1.23-1.5-1.23h-1.93v2.48zM21.33 101.18h6.51v1.69h-4.62v1.75h4.07v1.69h-4.07v1.81h4.68v1.69h-6.57zM34 101.12h1.75l3.7 8.69h-2l-.79-1.93h-3.61l-.79 1.93h-1.93zm2 5.08l-1.15-2.8-1.14 2.8zM43.17 102.93h-2.62v-1.75h7.15v1.75h-2.63v6.88h-1.9zM50.71 101.18h1.9v8.63h-1.9zM55.5 101.18h2.1l2.26 6.08 2.25-6.08h2l-3.49 8.7H59zM67 101.18h6.51v1.69h-4.66v1.75h4.06v1.69h-4.06v1.81h4.68v1.69H67zM81 108.64l1.2-1.33a2.12 2.12 0 001.57.86c.72 0 1.16-.43 1.16-1.43v-5.56h1.95v5.65a3.14 3.14 0 01-.81 2.3 3.1 3.1 0 01-2.25.81 3.51 3.51 0 01-2.82-1.3zM89.91 105.52a4.59 4.59 0 019.17 0 4.47 4.47 0 01-4.6 4.46 4.42 4.42 0 01-4.57-4.46zm7.18 0a2.62 2.62 0 00-2.61-2.72 2.58 2.58 0 00-2.59 2.69 2.62 2.62 0 002.62 2.71 2.58 2.58 0 002.58-2.68zM102.24 101.18h4a3.13 3.13 0 012.26.77 2 2 0 01.59 1.47 2 2 0 01-1.09 1.88 2.11 2.11 0 011.61 2.12c0 1.57-1.28 2.36-3.23 2.36h-4.1zm5 2.55c0-.56-.44-.88-1.24-.88h-1.87v1.82h1.75c.83 0 1.36-.27 1.36-.91zm-.92 2.52h-2.19v1.9h2.25c.84 0 1.35-.3 1.35-.94-.04-.6-.48-.96-1.45-.96zM112 108.56l1.12-1.35a4 4 0 002.57 1.05c.78 0 1.25-.31 1.25-.81 0-.48-.3-.73-1.74-1.09-1.74-.45-2.86-.93-2.86-2.64 0-1.56 1.26-2.6 3-2.6a5 5 0 013.21 1.1l-1 1.43a4 4 0 00-2.24-.85c-.73 0-1.11.33-1.11.75 0 .57.37.75 1.86 1.14 1.75.45 2.74 1.08 2.74 2.59 0 1.71-1.31 2.68-3.17 2.68a5.49 5.49 0 01-3.63-1.4zM127.14 101.18h6.57v1.73H129v1.84h4.12v1.72H129v3.34h-1.9zM136.32 105.52a4.59 4.59 0 019.17 0 4.47 4.47 0 01-4.6 4.46 4.42 4.42 0 01-4.57-4.46zm7.18 0a2.62 2.62 0 00-2.61-2.72 2.58 2.58 0 00-2.59 2.69 2.62 2.62 0 002.62 2.71 2.58 2.58 0 002.58-2.68zM148.65 101.18h3.94a3.44 3.44 0 012.52.88 2.71 2.71 0 01.74 2 2.67 2.67 0 01-1.85 2.67l2.11 3.08h-2.22l-1.89-2.76h-1.49v2.76h-1.9zm3.82 4.2c.93 0 1.46-.5 1.46-1.23 0-.81-.57-1.23-1.5-1.23h-1.88v2.48zM163.82 105.52a4.38 4.38 0 014.5-4.46 4.44 4.44 0 013.4 1.33l-1.2 1.39a3.23 3.23 0 00-2.21-1 2.56 2.56 0 00-2.5 2.69 2.56 2.56 0 002.5 2.71 3.14 3.14 0 002.27-1l1.21 1.22a4.42 4.42 0 01-3.54 1.54 4.36 4.36 0 01-4.43-4.42zM174.77 101.18h3.95a3.4 3.4 0 012.51.88 2.71 2.71 0 01.74 2 2.67 2.67 0 01-1.85 2.67l2.11 3.08H180l-1.85-2.76h-1.49v2.76h-1.9zm3.83 4.2c.92 0 1.45-.5 1.45-1.23 0-.81-.57-1.23-1.49-1.23h-1.89v2.48zM185.16 101.18h6.51v1.69h-4.62v1.75h4.06v1.69h-4.06v1.81h4.68v1.69h-6.57zM197.85 101.12h1.75l3.7 8.69h-2l-.79-1.93h-3.65l-.78 1.93h-1.94zm2 5.08l-1.14-2.8-1.15 2.8zM207 102.93h-2.63v-1.75h7.15v1.75h-2.62v6.88H207zM214.54 101.18h1.89v8.63h-1.89zM219.33 101.18h2.09l2.26 6.08 2.25-6.08h2l-3.49 8.7h-1.68zM230.78 101.18h6.51v1.69h-4.62v1.75h4.07v1.69h-4.07v1.81h4.68v1.69h-6.57zM247.7 102.93h-2.63v-1.75h7.15v1.75h-2.63v6.88h-1.89zM255.15 101.18h6.51v1.69H257v1.75h4.07v1.69H257v1.81h4.69v1.69h-6.57zM264.88 101.18h6.51v1.69h-4.62v1.75h4.06v1.69h-4.06v1.81h4.68v1.69h-6.57zM274.61 101.18h1.75l4 5.32v-5.32h1.88v8.63h-1.62l-4.18-5.48v5.48h-1.87zM285.23 108.56l1.12-1.35a4 4 0 002.58 1.05c.77 0 1.24-.31 1.24-.81 0-.48-.3-.73-1.74-1.09-1.74-.45-2.86-.93-2.86-2.64 0-1.56 1.26-2.6 3-2.6a5 5 0 013.21 1.1l-1 1.43a4 4 0 00-2.24-.85c-.73 0-1.11.33-1.11.75 0 .57.37.75 1.86 1.14 1.75.45 2.74 1.08 2.74 2.59 0 1.71-1.31 2.68-3.17 2.68a5.49 5.49 0 01-3.63-1.4z"
		fill="#ffffff"
	></path>
</svg>
