<?xml version="1.0" encoding="UTF-8"?><svg
	xmlns="http://www.w3.org/2000/svg"
	viewBox="0 0 654.71 99.21"
>
	<g id="a">
		<polygon
			points="23.15 11.68 41.66 22.37 41.66 43.75 23.15 54.44 4.63 43.75 4.63 22.37 23.15 11.68"
			fill="#F2695D"
		/>
		<polygon
			points="81.46 38.23 106.58 52.72 106.58 81.72 81.46 96.22 56.35 81.72 56.35 52.72 81.46 38.23"
			fill="#F2695D"
		/>
		<path
			d="M101.08,84.35H20.04V3.31H101.08V84.35Zm-70.76-10.28h60.48V13.6H30.32v60.48Z"
			fill="#ffffff"
		/>
		<path
			d="M132.4,71.85c-.74,0-1.4-.66-1.4-1.4V15.69c0-.74,.66-1.4,1.4-1.4h8.3c.74,0,1.4,.66,1.4,1.4v16.53c2.47-1.48,5.34-2.14,7.89-2.14,15.79,0,17.51,10.77,17.51,20.56v19.82c0,.74-.66,1.4-1.4,1.4h-8.3c-.74,0-1.4-.66-1.4-1.4v-19.82c0-5.1-.74-10.69-7.81-10.52-2.88,.08-5.43,1.64-6.5,3.12v27.22c0,.74-.66,1.4-1.4,1.4h-8.3Zm60.02-41.85c14.06,0,15.21,9.13,15.21,17.51v22.94c0,.74-.66,1.4-1.4,1.4h-4.93c-.82,0-1.56-.58-1.81-1.32l-.41-1.32c-2.55,2.14-6.08,3.29-9.78,3.45-12.83,.58-15.21-8.06-15.21-12.91,0-11.26,9.13-13.65,17.6-13.65,1.73,0,3.29,.25,4.77,.58,0-5.76-1.89-6.74-5.51-6.74-1.73,0-5.84,.9-9.7,2.38-.74,.25-1.56-.08-1.89-.82l-2.47-5.84c-.33-.74,0-1.56,.66-1.97,4.6-2.14,9.54-3.7,14.88-3.7Zm4.03,25.33c-1.23-.33-3.21-.9-5.1-.9-3.29,0-6.66,.9-6.66,4.77,0,2.47,2.3,3.78,4.85,3.78,3.04,0,5.92-1.73,6.91-3.21v-4.44Zm54.67,9.04c.49,.58,.49,1.48-.08,2.06-3.95,3.7-8.55,6-14.47,6-15.79,0-20.72-12.33-20.72-20.97,0-9.13,4.11-21.38,20.56-21.38,6.41,0,11.35,2.96,15.38,7.15,.58,.58,.58,1.48,.08,2.06l-4.6,5.01c-.49,.58-1.32,.58-1.89,.08-2.63-2.38-6.08-3.95-8.96-3.95-6.33,0-9.46,5.43-9.46,10.77,0,6.74,4.6,10.52,9.54,10.52,2.22,0,5.26-.9,7.98-3.21,.58-.41,1.48-.41,1.97,.16l4.69,5.67Zm19.73-10.94v17.02c0,.74-.66,1.4-1.4,1.4h-8.3c-.74,0-1.4-.66-1.4-1.4V15.69c0-.74,.66-1.4,1.4-1.4h8.3c.74,0,1.4,.66,1.4,1.4V48.41l14.8-16.61c.58-.66,1.4-1.07,2.3-1.07h10.11c.49,0,.82,.66,.41,.99l-17.6,18.75,18.91,20.39c.41,.33,.08,.99-.41,.99h-10.28c-.9,0-1.73-.41-2.38-.99l-15.87-17.43ZM369.76,14.21c.74,0,1.4,.66,1.4,1.4v54.84c0,.74-.66,1.4-1.4,1.4h-4.85c-.82,0-1.56-.58-1.81-1.32l-.49-1.56c-2.38,2.14-7.4,3.62-10.77,3.62-15.29,0-19.65-12.5-19.65-21.3s3.95-21.3,20.47-21.3c2.71,0,5.43,.49,7.4,1.4V15.6c0-.74,.66-1.4,1.4-1.4h8.3Zm-9.7,27.71c-1.64-1.07-4.85-1.97-6.74-1.97-8.96,0-10.11,7.32-10.11,11.35,0,3.29,.99,11.26,9.45,11.26,3.37,0,6.33-1.73,7.4-3.21v-17.43Zm27.3-30.92c3.54,0,6.25,2.8,6.25,6.33s-2.71,6.25-6.25,6.25-6.33-2.63-6.33-6.25,2.71-6.33,6.33-6.33Zm5.51,59.45c0,.74-.66,1.4-1.4,1.4h-8.39c-.74,0-1.4-.66-1.4-1.4V32.13c0-.74,.66-1.4,1.4-1.4h8.39c.74,0,1.4,.66,1.4,1.4v38.32Zm35.35-38.4c.33-.82,1.15-1.32,1.97-1.32h9.46c.66,0,1.07,.66,.82,1.23l-19.08,39.63c-.25,.49-.82,.82-1.4,.82s-1.07-.33-1.32-.82l-18.99-39.63c-.25-.58,.16-1.23,.82-1.23h9.46c.82,0,1.64,.49,1.97,1.32l8.14,19.08,8.14-19.08Zm51.14,19.73c0,.82-.66,1.4-1.48,1.4h-24.34c.66,4.85,3.7,9.04,9.04,9.04,3.04,0,6.25-.99,9.13-2.88,.66-.41,1.48-.33,1.97,.33l3.78,5.18c.49,.66,.33,1.56-.25,2.06-4.6,3.54-9.04,5.43-14.64,5.43-15.7,0-20.56-12.25-20.56-21.13s4.85-21.05,20.56-21.05c10.94,0,17.02,6.99,17.02,17.68,0,1.32-.08,2.63-.25,3.95Zm-10.77-5.18c-.08-3.37-1.23-6.41-6-6.5-4.6,0-7.48,2.71-8.71,6.5h14.72Zm41.11-6.82c-.25,.74-.99,1.15-1.81,1.07-1.07-.16-2.22-.33-3.45-.33-2.63,0-5.18,.74-6.74,3.37v26.56c0,.74-.66,1.4-1.4,1.4h-8.3c-.74,0-1.4-.66-1.4-1.4V32.13c0-.74,.66-1.4,1.4-1.4h4.77c.82,0,1.56,.49,1.89,1.32l.49,1.23c3.29-2.14,6.74-3.04,10.52-3.04,1.4,0,3.62,.16,5.43,.41,.74,.08,1.23,.9,.99,1.56l-2.38,7.56Zm25.35,6.17c6.17,1.97,14.06,4.52,14.06,13.98,0,7.48-6.58,12.58-15.46,12.58-5.75,0-10.36-1.4-15.54-4.36-.74-.33-.99-1.23-.58-1.89l3.12-6.25c.41-.66,1.23-.9,1.89-.58,3.78,1.81,7.56,3.12,10.69,3.12,2.38,0,4.52-.99,4.52-2.55,0-2.38-3.12-3.37-6.82-4.44-5.84-1.81-12.74-4.11-12.74-12.74,0-7.98,5.67-12.74,13.98-12.74,2.14,0,7.65,.41,14.72,3.7,.66,.33,.99,1.15,.66,1.81l-3.04,6.66c-.33,.66-1.15,.99-1.89,.66-3.12-1.4-6.99-2.3-9.13-2.63-2.63-.41-4.52,.49-4.52,2.22,0,1.48,2.71,2.38,6.08,3.45Zm28.61-34.94c3.54,0,6.25,2.8,6.25,6.33s-2.71,6.25-6.25,6.25-6.33-2.63-6.33-6.25,2.71-6.33,6.33-6.33Zm5.51,59.45c0,.74-.66,1.4-1.4,1.4h-8.39c-.74,0-1.4-.66-1.4-1.4V32.13c0-.74,.66-1.4,1.4-1.4h8.39c.74,0,1.4,.66,1.4,1.4v38.32Zm9.4-29.85c-.74,0-1.4-.66-1.4-1.4v-7.07c0-.74,.66-1.4,1.4-1.4h2.88l.66-6.66c.08-.82,.74-1.4,1.56-1.4h7.56c.74,0,1.4,.66,1.4,1.4v6.66h6.33c.74,0,1.4,.66,1.4,1.4v7.07c0,.74-.66,1.4-1.4,1.4h-6.33v19.32c0,1.97,.99,2.63,2.3,2.63,1.23,0,2.88-.41,4.52-.9,.74-.16,1.48,.33,1.56,1.07l1.32,6.25c.16,.82-.25,1.56-.99,1.81-4.85,1.23-8.55,1.56-10.11,1.56-8.96,0-9.78-8.22-9.78-11.18v-20.56h-2.88Zm44.37,27.96l-16.28-36.51c-.25-.66,.16-1.32,.82-1.32h9.95c.82,0,1.64,.49,1.89,1.32l9.37,23.43,9.54-23.43c.25-.82,1.07-1.32,1.89-1.32h9.7c.66,0,1.07,.66,.82,1.32l-23.27,54.84c-.33,.82-1.15,1.32-1.97,1.32h-9.13c-.66,0-1.15-.66-.9-1.32l7.56-18.34Zm-311.94,2.34c-.24-.35-.3-.73-.32-1.12,0-.2,.03-.39,.09-.59h0l6.36-13.21c.22-.44,.73-.73,1.24-.73s.95,.29,1.17,.73l6.61,13.8c0,.08,.03,.16,.03,.24,0,.19,.01,.37-.02,.54-.11,.5-.43,.93-.86,1.28h-13.24c-.41-.25-.79-.55-1.07-.95Z"
			fill="#ffffff"
		/>
	</g>
	<g id="b" />
</svg>
