<?xml version="1.0" encoding="UTF-8" standalone="no"?>
<svg
   height="512"
   width="512"
   version="1.1"
   id="svg202"
   sodipodi:docname="java-android.svg"
   xml:space="preserve"
   inkscape:version="1.2.1 (9c6d41e410, 2022-07-14)"
   xmlns:inkscape="http://www.inkscape.org/namespaces/inkscape"
   xmlns:sodipodi="http://sodipodi.sourceforge.net/DTD/sodipodi-0.dtd"
   xmlns="http://www.w3.org/2000/svg"
   xmlns:svg="http://www.w3.org/2000/svg"><defs
     id="defs206" /><sodipodi:namedview
     id="namedview204"
     pagecolor="#ffffff"
     bordercolor="#000000"
     borderopacity="0.25"
     inkscape:showpageshadow="2"
     inkscape:pageopacity="0.0"
     inkscape:pagecheckerboard="0"
     inkscape:deskcolor="#d1d1d1"
     showgrid="false"
     inkscape:zoom="1.578125"
     inkscape:cx="203.08911"
     inkscape:cy="205.30693"
     inkscape:window-width="2560"
     inkscape:window-height="1371"
     inkscape:window-x="0"
     inkscape:window-y="32"
     inkscape:window-maximized="1"
     inkscape:current-layer="svg202" /><g
     id="g662"
     transform="matrix(0.3381265,0,0,0.3381265,323.38151,15.974524)"
     style="opacity:0.3"><rect
       width="512"
       height="512"
       rx="15.000001%"
       fill="#a4c639"
       id="rect186"
       x="0"
       y="0" /><g
       stroke="#ffffff"
       stroke-linecap="round"
       id="g192"><path
         stroke-width="58"
         d="M 107,212 V 318 M 406,212 v 106 m -107,66 v 56 m -85,-56 v 56"
         id="path188" /><path
         stroke-width="8"
         d="M 203,88 186,56 m 123,32 18,-32"
         id="path190" /></g><path
       fill="#ffffff"
       d="M 257,76 C 181,76 142,136 142,181 H 371 C 371,134 329,77 257,76 Z M 142,191 v 164 c 0,16 13,29 28,29 h 172 c 16,0 29,-13 29,-29 V 191 Z"
       id="path194" /><g
       fill="#a4c639"
       id="g200"><circle
         cx="204"
         cy="130"
         r="9"
         id="circle196" /><circle
         cx="309"
         cy="130"
         r="9"
         id="circle198" /></g></g><g
     id="g441"
     transform="matrix(0.92159909,0,0,0.92159909,23.483321,0.43606819)"
     style="display:inline"><path
       style="fill:#5382a1;stroke-width:1.39429"
       d="m 122.99791,414.00888 c 0,0 -19.76819,11.49589 14.06836,15.38595 40.99203,4.67644 61.94258,4.00579 107.11607,-4.54398 0,0 11.87653,7.44689 28.46297,13.89686 -101.26704,43.40135 -229.187265,-2.5139 -149.6474,-24.73883"
       id="path399" /><path
       style="fill:#5382a1;stroke-width:1.39429"
       d="m 110.62362,357.37296 c 0,0 -22.171945,16.41214 11.6897,19.91459 43.78897,4.51749 78.37007,4.88698 138.20867,-6.63541 0,0 8.27648,8.39082 21.29075,12.97942 -122.43788,35.80249 -258.811668,2.82343 -171.18912,-26.2586"
       id="path401" /><path
       style="fill:#f8981d;stroke-width:1.39429"
       d="m 214.94276,261.29964 c 24.95215,28.72788 -6.55594,54.57935 -6.55594,54.57935 0,0 63.35778,-32.70718 34.26041,-73.66435 -27.17604,-38.19509 -48.01644,-57.17272 64.80505,-122.6052 0,0 -177.09253,44.22956 -92.50952,141.6902"
       id="path403" /><path
       style="fill:#5382a1;stroke-width:1.39429"
       d="m 348.87654,455.90022 c 0,0 14.62885,12.05361 -16.11099,21.3786 -58.45267,17.70744 -243.286286,23.05453 -294.632285,0.70551 -18.457566,-8.0297 16.155599,-19.17284 27.043583,-21.51106 11.35507,-2.46231 17.84408,-2.00359 17.84408,-2.00359 -20.526687,-14.46014 -132.676132,28.39325 -56.966368,40.66577 206.47155,33.48379 376.37792,-15.07782 322.82198,-39.23523"
       id="path405" /><path
       style="fill:#5382a1;stroke-width:1.39429"
       d="m 132.50416,298.69161 c 0,0 -94.018141,22.3309 -33.29417,30.44007 25.63954,3.43273 76.7513,2.65612 124.36061,-1.33294 38.90896,-3.28215 77.97827,-10.26055 77.97827,-10.26055 0,0 -13.71978,5.87552 -23.64571,12.65315 C 182.42939,355.30105 -2.0082462,343.61971 51.088976,317.93556 95.993371,296.2293 132.50416,298.69161 132.50416,298.69161"
       id="path407" /><path
       style="fill:#5382a1;stroke-width:1.39429"
       d="m 301.16126,392.96491 c 97.0535,-50.43274 52.17978,-98.89814 20.85853,-92.3687 -7.67695,1.59785 -11.09992,2.98238 -11.09992,2.98238 0,0 2.84992,-4.46451 8.29322,-6.39699 61.96349,-21.78433 109.61742,64.25012 -20.00244,98.32509 0,0.001 1.50165,-1.3413 1.95061,-2.54178"
       id="path409" /><path
       style="display:inline;fill:#f8981d;stroke-width:1.39429"
       d="m 242.64723,13.95319 c 0,0 53.74975,53.767875 -50.9793,136.44768 -83.98207,66.32342 -19.15053,104.13926 -0.0349,147.34542 C 142.61135,253.51673 106.63596,214.58127 130.77106,178.34377 166.19571,125.15034 264.33397,99.360217 242.64723,13.95319"
       id="path411" /><path
       style="fill:#5382a1;stroke-width:1.39429"
       d="m 142.04109,529.62591 c 93.15926,5.96337 236.21585,-3.30864 239.60397,-47.38901 0,0 -6.51271,16.71052 -76.99111,29.98134 -79.51338,14.96349 -177.58193,13.21645 -235.747385,3.62654 0.0014,-10e-4 11.907208,9.85482 73.134525,13.78113"
       id="path413" /></g></svg>
