<?xml version="1.0" encoding="UTF-8" standalone="no"?>
<svg
   height="512"
   width="512"
   version="1.1"
   id="svg202"
   sodipodi:docname="ocaml.svg"
   xml:space="preserve"
   inkscape:version="1.2.1 (9c6d41e410, 2022-07-14)"
   xmlns:inkscape="http://www.inkscape.org/namespaces/inkscape"
   xmlns:sodipodi="http://sodipodi.sourceforge.net/DTD/sodipodi-0.dtd"
   xmlns="http://www.w3.org/2000/svg"
   xmlns:svg="http://www.w3.org/2000/svg"><defs
     id="defs206"><linearGradient
       id="a"
       gradientTransform="matrix(0.12970797,0,0,0.19997863,11.409779,-1e-6)"
       gradientUnits="userSpaceOnUse"
       x1="167.51685"
       x2="160.31"
       y1="24.393208"
       y2="320.03421"><stop
         offset="0"
         stop-color="#d9d8dc"
         id="stop2044" /><stop
         offset="1"
         stop-color="#fff"
         stop-opacity=".385275"
         id="stop2046" /></linearGradient><linearGradient
       id="b"
       gradientTransform="matrix(0.11420937,0,0,0.22711641,11.409779,-1e-6)"
       gradientUnits="userSpaceOnUse"
       x1="199.03606"
       x2="140.0712"
       y1="21.412943"
       y2="278.40781"><stop
         offset="0"
         stop-color="#8d67af"
         stop-opacity=".671932"
         id="stop2049" /><stop
         offset="1"
         stop-color="#9f8daf"
         id="stop2051" /></linearGradient><linearGradient
       id="c"
       gradientTransform="matrix(0.12266694,0,0,0.21145732,11.409779,-1e-6)"
       gradientUnits="userSpaceOnUse"
       x1="206.42825"
       x2="206.42825"
       y1="100.91758"
       y2="294.31174"><stop
         offset="0"
         stop-color="#26053d"
         stop-opacity=".761634"
         id="stop2054" /><stop
         offset="1"
         stop-color="#b7b4b4"
         stop-opacity=".277683"
         id="stop2056" /></linearGradient><linearGradient
       id="d"
       gradientTransform="matrix(0.18477958,0,0,0.14037711,11.409779,-1e-6)"
       gradientUnits="userSpaceOnUse"
       x1="23.483095"
       x2="112.93069"
       y1="171.71753"
       y2="351.72263"><stop
         offset="0"
         stop-color="#91739f"
         stop-opacity=".45955"
         id="stop2059" /><stop
         offset="1"
         stop-color="#32054f"
         stop-opacity=".539912"
         id="stop2061" /></linearGradient><linearGradient
       id="e"
       gradientTransform="matrix(0.14183937,0,0,0.18287462,11.409779,-1e-6)"
       gradientUnits="userSpaceOnUse"
       x1="226.7811"
       x2="67.803513"
       y1="317.25201"
       y2="147.4131"><stop
         offset="0"
         stop-color="#463d49"
         stop-opacity=".331182"
         id="stop2064" /><stop
         offset="1"
         stop-color="#340a50"
         stop-opacity=".821388"
         id="stop2066" /></linearGradient><linearGradient
       id="f"
       gradientTransform="matrix(0.10596912,0,0,0.24477717,11.409779,-1e-6)"
       gradientUnits="userSpaceOnUse"
       x1="248.0164"
       x2="200.70529"
       y1="88.755211"
       y2="255.00513"><stop
         offset="0"
         stop-color="#715383"
         stop-opacity=".145239"
         id="stop2069" /><stop
         offset="1"
         stop-color="#f4f4f4"
         stop-opacity=".233639"
         id="stop2071" /></linearGradient><linearGradient
       id="g"
       gradientTransform="matrix(0.09173097,0,0,0.28277061,11.409779,-1e-6)"
       gradientUnits="userSpaceOnUse"
       x1="307.5639"
       x2="156.45103"
       y1="109.963"
       y2="81.526764"><stop
         offset="0"
         stop-color="#a5a1a8"
         stop-opacity=".356091"
         id="stop2074" /><stop
         offset="1"
         stop-color="#370c50"
         stop-opacity=".581975"
         id="stop2076" /></linearGradient><clipPath
       id="a-3"><path
         d="M239.03 226.605l-42.13 24.317c-1.578.91-2.546 2.59-2.546 4.406v48.668c0 1.817.968 3.496 2.546 4.406l42.133 24.336c1.575.907 3.517.907 5.09 0l42.126-24.336c1.57-.91 2.54-2.59 2.54-4.406v-48.668c0-1.816-.97-3.496-2.55-4.406l-42.12-24.317c-.79-.453-1.67-.68-2.55-.68-.88 0-1.76.227-2.55.68"
         id="path3061" /></clipPath><linearGradient
       id="b-6"
       x1="-.348"
       x2="1.251"
       gradientTransform="matrix(-38.064915,77.652126,-77.652126,-38.064915,258.72325,244.62943)"
       gradientUnits="userSpaceOnUse"><stop
         offset=".3"
         stop-color="#3E863D"
         id="stop3064" /><stop
         offset=".5"
         stop-color="#55934F"
         id="stop3066" /><stop
         offset=".8"
         stop-color="#5AAD45"
         id="stop3068" /></linearGradient><clipPath
       id="c-7"><path
         d="M195.398 307.086c.403.523.907.976 1.5 1.316l36.14 20.875 6.02 3.46c.9.52 1.926.74 2.934.665.336-.027.672-.09 1-.183l44.434-81.36c-.34-.37-.738-.68-1.184-.94l-27.586-15.93-14.582-8.39c-.414-.24-.863-.41-1.32-.53zm0 0"
         id="path3071" /></clipPath><linearGradient
       id="d-5"
       x1="-.456"
       x2=".582"
       gradientTransform="matrix(106.8057,-78.916731,78.916731,106.8057,235.18824,285.39477)"
       gradientUnits="userSpaceOnUse"><stop
         offset=".57"
         stop-color="#3E863D"
         id="stop3074" /><stop
         offset=".72"
         stop-color="#619857"
         id="stop3076" /><stop
         offset="1"
         stop-color="#76AC64"
         id="stop3078" /></linearGradient><clipPath
       id="e-3"><path
         d="M241.066 225.953c-.707.07-1.398.29-2.035.652l-42.01 24.247 45.3 82.51c.63-.09 1.25-.3 1.81-.624l42.13-24.336c1.3-.754 2.19-2.03 2.46-3.476l-46.18-78.89c-.34-.067-.68-.102-1.03-.102-.14 0-.28.007-.42.02"
         id="path3081" /></clipPath><linearGradient
       id="f-5"
       x1=".043"
       x2=".984"
       gradientTransform="matrix(97.417,0,0,97.417,192.862,279.652)"
       gradientUnits="userSpaceOnUse"><stop
         offset=".16"
         stop-color="#6BBF47"
         id="stop3084" /><stop
         offset=".38"
         stop-color="#79B461"
         id="stop3086" /><stop
         offset=".47"
         stop-color="#75AC64"
         id="stop3088" /><stop
         offset=".7"
         stop-color="#659E5A"
         id="stop3090" /><stop
         offset=".9"
         stop-color="#3E863D"
         id="stop3092" /></linearGradient></defs><sodipodi:namedview
     id="namedview204"
     pagecolor="#ffffff"
     bordercolor="#000000"
     borderopacity="0.25"
     inkscape:showpageshadow="2"
     inkscape:pageopacity="0.0"
     inkscape:pagecheckerboard="0"
     inkscape:deskcolor="#d1d1d1"
     showgrid="false"
     inkscape:zoom="1.578125"
     inkscape:cx="256.9505"
     inkscape:cy="238.89109"
     inkscape:window-width="2560"
     inkscape:window-height="1371"
     inkscape:window-x="0"
     inkscape:window-y="32"
     inkscape:window-maximized="1"
     inkscape:current-layer="g3501"
     showguides="true"><sodipodi:guide
       position="256.63366,488.94508"
       orientation="0,-1"
       id="guide1374"
       inkscape:locked="false" /><sodipodi:guide
       position="46.79347,320.63366"
       orientation="1,0"
       id="guide1376"
       inkscape:locked="false" /><sodipodi:guide
       position="257.90099,21.039946"
       orientation="0,-1"
       id="guide1378"
       inkscape:locked="false" /><sodipodi:guide
       position="470.13688,280.07921"
       orientation="1,0"
       id="guide1380"
       inkscape:locked="false" /></sodipodi:namedview><style
     id="style762">
    .st0{fill:#fff}
  </style><style
     type="text/css"
     id="style926">
	.st0{fill:#00ACD7;}
</style><g
     id="g965"
     transform="translate(28.428178,75.437795)"
     style="display:inline">
	
	
	
	
<g
   id="g3501"
   transform="matrix(0.80666174,0,0,0.80666174,18.357225,117.104)">
	<g
   id="g3489"
   transform="matrix(2.9698302,0,0,2.9698302,13.527858,-210.04761)">
		<path
   fill="#ffffff"
   d="m 86.085,127 c -0.209,-1.424 0.197,-2.841 -0.232,-4.177 -0.367,-1.166 -1.209,-1.273 -1.762,-2.221 -1.457,-2.487 -2.963,-5.709 -3.102,-8.754 -0.127,-2.735 -1.133,-5.206 -1.27,-7.917 -0.066,-1.308 0.088,-2.657 0.041,-3.952 -0.025,-0.63 -0.061,-1.176 -0.186,-1.86 -0.031,-0.169 -0.143,-0.865 -0.195,-1.144 l 0.34,-0.848 c -0.15,-0.291 2.902,-0.194 3.812,-0.188 1.545,0.019 2.998,0.099 4.539,0.173 3.148,0.156 6.016,0.117 9.082,-0.356 6.832,-1.055 9.973,-3.845 11.58,-5.005 6.273,-4.523 9.146,-11.918 9.146,-11.918 1.035,-2.31 1.031,-6.431 3.25,-8.276 2.615,-2.179 7.006,-2.022 10.008,-3.359 1.756,-0.777 3.023,-1.205 4.818,-0.833 1.332,0.278 3.73,1.821 4.281,-0.345 -0.445,-0.287 -0.619,-0.812 -0.857,-1.103 2.475,-0.245 0.047,-5.986 -0.932,-7.133 -1.512,-1.77 -4.035,-2.581 -6.719,-3.293 -3.188,-0.845 -6.08,-1.82 -9.082,-1.231 -5.242,1.026 -4.85,-1.974 -7.939,-1.974 -3.707,0 -10.303,0.182 -11.443,3.786 -0.531,1.683 -1.078,1.753 -1.998,3.044 -0.787,1.106 0.137,2.082 -0.258,3.344 -0.408,1.297 -1.007,5.865 -1.632,7.459 -1.057,2.697 -2.317,6.065 -4.643,6.065 -3.261,0.39 -5.824,0.515 -8.469,-0.445 -1.592,-0.578 -4.26,-1.483 -5.58,-2.039 -6.088,-2.563 -7.088,-5.367 -7.088,-5.367 -0.653,-1.08 -2.374,-2.821 -3.018,-5.093 -0.708,-2.502 -1.903,-4.589 -2.387,-5.891 -0.501,-1.349 -1.699,-3.51 -2.64,-5.846 -1.205,-2.991 -2.9,-5.223 -4.141,-6.331 -1.896,-1.69 -3.646,-4.306 -7.495,-3.546 -0.688,0.136 -3.188,0.249 -5.104,1.856 -1.299,1.09 -1.709,3.339 -2.912,5.236 -0.695,1.096 -1.917,4.24 -3.038,6.863 -0.777,1.818 -1.139,3.181 -1.979,3.85 -0.657,0.524 -1.471,1.201 -2.456,0.832 -0.611,-0.229 -1.264,-0.617 -1.923,-1.132 -0.89,-0.695 -2.913,-4.138 -4.156,-6.681 -1.077,-2.205 -3.376,-5.502 -4.706,-7.287 -1.914,-2.568 -3.036,-3.219 -5.864,-3.219 -6.067,0 -6.526,3.397 -9.195,8.337 -1.172,2.17 -1.599,5.614 -3.952,8.313 -1.345,1.544 -5.637,7.893 -8.621,8.972 V 66.335 L 0,66.366 v 45.257 l 0.008,0.063 v -0.284 c 0.193,-0.59 0.398,-1.156 0.631,-1.662 1.154,-2.459 3.832,-4.741 5.32,-7.266 0.809,-1.376 1.732,-2.724 2.268,-4.168 0.461,-1.244 0.688,-3.099 1.354,-4.178 0.816,-1.323 2.094,-1.773 3.406,-1.987 2.055,-0.339 3.801,2.954 6.43,4.166 1.121,0.515 6.281,2.342 7.83,2.717 2.551,0.61 5.381,1.119 7.971,1.642 1.387,0.28 2.713,0.443 4.141,0.588 1.281,0.128 6.08,0.287 6.377,0.634 -2.439,1.244 -3.869,4.736 -4.785,7.207 -0.955,2.575 -1.621,5.441 -2.775,7.96 -1.279,2.783 -3.961,3.941 -3.641,7.184 0.123,1.294 0.359,2.651 0.143,4.075 -0.23,1.499 -0.836,2.669 -1.277,4.137 -0.566,1.915 -1.24,8.1 -2.113,9.918 l 5.337,-0.669 0.009,-0.003 c 0.583,-1.386 1.12,-7.237 1.309,-7.794 0.998,-2.934 2.322,-5.348 4.359,-7.617 1.986,-2.211 1.883,-5.061 3.043,-7.637 1.256,-2.8 2.945,-5.039 4.539,-7.671 2.881,-4.759 4.781,-10.767 10.906,-11.989 0.654,-0.135 4.404,2.569 6.068,4.177 1.906,1.832 3.988,3.954 5.24,6.48 2.424,4.896 4.48,11.988 5.258,15.899 0.447,2.246 0.803,2.38 2.322,4.159 0.699,0.815 2.094,3.362 2.553,4.34 0.482,1.044 1.215,3.42 1.799,4.633 0.344,0.722 1.236,2.94 1.885,4.856 l 4.987,-0.156 c 0.018,0.042 0.109,-0.012 0.13,0.027 0.002,0 0.005,-0.001 0.007,-0.002 -0.021,-0.038 -0.04,-0.082 -0.058,-0.123 C 88.496,138.292 86.906,132.522 86.085,127 Z"
   id="path3445" />
		<path
   fill="#484444"
   d="m 82.919,97.901 0.023,-0.061 c -0.034,-0.154 -0.046,-0.189 -0.023,0.061 z"
   id="path3447" />
		<g
   id="g3487">
			<g
   id="g3485">
				
					<linearGradient
   id="SVGID_1_"
   gradientUnits="userSpaceOnUse"
   x1="-675.07538"
   y1="96.4384"
   x2="-675.07538"
   y2="96.620499"
   gradientTransform="translate(758,1.28)">
					<stop
   offset="0"
   style="stop-color:#F29100"
   id="stop3449" />
					<stop
   offset="1"
   style="stop-color:#EC670F"
   id="stop3451" />
				</linearGradient>
				<path
   fill="url(#SVGID_1_)"
   d="m 82.919,97.901 0.023,-0.061 c -0.034,-0.154 -0.046,-0.189 -0.023,0.061 z"
   id="path3454"
   style="fill:url(#SVGID_1_)" />
				<g
   id="g3463">
					
						<linearGradient
   id="SVGID_2_"
   gradientUnits="userSpaceOnUse"
   x1="-696.72449"
   y1="97.700996"
   x2="-696.72449"
   y2="142.99719"
   gradientTransform="translate(758,1.28)">
						<stop
   offset="0"
   style="stop-color:#F29100"
   id="stop3456" />
						<stop
   offset="1"
   style="stop-color:#EC670F"
   id="stop3458" />
					</linearGradient>
					<path
   fill="url(#SVGID_2_)"
   d="m 84.031,138.674 c -0.584,-1.213 -1.316,-3.589 -1.799,-4.633 -0.459,-0.978 -1.854,-3.524 -2.553,-4.34 -1.52,-1.779 -1.875,-1.913 -2.322,-4.159 -0.777,-3.911 -2.834,-11.004 -5.258,-15.899 -1.252,-2.526 -3.334,-4.648 -5.24,-6.48 -1.664,-1.607 -5.414,-4.312 -6.068,-4.177 -6.125,1.223 -8.025,7.23 -10.906,11.989 -1.594,2.632 -3.283,4.871 -4.539,7.671 -1.16,2.575 -1.057,5.426 -3.043,7.637 -2.037,2.27 -3.361,4.684 -4.359,7.617 -0.189,0.557 -0.726,6.408 -1.309,7.794 0,0.001 -10e-4,0.002 -10e-4,0.003 l 9.104,-0.641 c 8.482,0.578 6.033,3.829 19.273,3.121 l 20.906,-0.647 v 0 c -0.65,-1.916 -1.542,-4.134 -1.886,-4.856 z"
   id="path3461"
   style="fill:url(#SVGID_2_)" />
				</g>
				<g
   id="g3474">
					<g
   id="g3472">
						
							<linearGradient
   id="SVGID_3_"
   gradientUnits="userSpaceOnUse"
   x1="-675.21912"
   y1="-1.2802"
   x2="-675.21912"
   y2="142.9646"
   gradientTransform="translate(758,1.28)">
							<stop
   offset="0"
   style="stop-color:#F29100"
   id="stop3465" />
							<stop
   offset="1"
   style="stop-color:#EC670F"
   id="stop3467" />
						</linearGradient>
						<path
   fill="url(#SVGID_3_)"
   d="M 144.695,0 H 20.865 C 9.347,0 0.01,9.339 0.01,20.857 v 45.476 0.031 c 2.984,-1.079 7.276,-7.428 8.621,-8.972 2.353,-2.7 2.78,-6.144 3.952,-8.313 2.669,-4.94 3.128,-8.337 9.195,-8.337 2.828,0 3.951,0.652 5.864,3.219 1.331,1.785 3.63,5.083 4.706,7.287 1.242,2.544 3.266,5.986 4.156,6.681 0.659,0.516 1.312,0.903 1.923,1.132 0.984,0.369 1.798,-0.308 2.456,-0.832 0.84,-0.669 1.202,-2.032 1.979,-3.85 1.122,-2.623 2.343,-5.766 3.038,-6.863 1.203,-1.896 1.613,-4.146 2.912,-5.236 1.916,-1.607 4.416,-1.72 5.104,-1.856 3.849,-0.76 5.599,1.856 7.495,3.546 1.241,1.108 2.937,3.34 4.141,6.331 0.941,2.336 2.139,4.497 2.64,5.846 0.484,1.302 1.679,3.389 2.387,5.891 0.643,2.272 2.364,4.013 3.018,5.093 0,0 1.001,2.804 7.088,5.367 1.32,0.556 3.988,1.46 5.58,2.039 2.645,0.961 5.207,0.836 8.469,0.445 2.326,0 3.586,-3.368 4.643,-6.065 0.625,-1.594 1.224,-6.162 1.632,-7.459 0.395,-1.262 -0.529,-2.238 0.258,-3.344 0.92,-1.291 1.467,-1.361 1.998,-3.044 1.141,-3.604 7.736,-3.786 11.443,-3.786 3.09,0 2.697,3 7.939,1.974 3.002,-0.589 5.895,0.387 9.082,1.231 2.684,0.712 5.207,1.523 6.719,3.293 0.979,1.146 3.406,6.888 0.932,7.133 0.238,0.291 0.412,0.816 0.857,1.103 -0.551,2.166 -2.949,0.623 -4.281,0.345 -1.795,-0.372 -3.062,0.056 -4.818,0.833 -3.002,1.337 -7.393,1.181 -10.008,3.359 -2.219,1.846 -2.215,5.967 -3.25,8.276 0,0 -2.873,7.394 -9.146,11.918 -1.607,1.16 -4.748,3.95 -11.58,5.005 -3.066,0.474 -5.934,0.513 -9.082,0.356 -1.541,-0.074 -2.994,-0.153 -4.539,-0.173 -0.91,-0.007 -3.963,-0.104 -3.812,0.188 l -0.34,0.848 c 0.053,0.279 0.164,0.976 0.195,1.144 0.125,0.685 0.16,1.231 0.186,1.86 0.047,1.295 -0.107,2.645 -0.041,3.952 0.137,2.711 1.143,5.182 1.27,7.917 0.139,3.045 1.645,6.267 3.102,8.754 0.553,0.947 1.395,1.055 1.762,2.221 0.43,1.336 0.023,2.753 0.232,4.177 0.82,5.521 2.41,11.292 4.896,16.275 0.017,0.041 0.037,0.086 0.058,0.123 0,0 0,0.001 0.001,0.002 3.07,-0.516 6.146,-1.62 10.135,-2.21 7.314,-1.085 17.486,-0.526 24.02,-1.138 16.533,-1.554 25.506,6.781 40.355,3.365 V 20.858 C 165.55,9.339 156.216,0 144.695,0 Z M 82.919,97.901 c -0.023,-0.25 -0.012,-0.215 0.023,-0.061 z"
   id="path3470"
   style="fill:url(#SVGID_3_)" />
					</g>
				</g>
				<g
   id="g3483">
					
						<linearGradient
   id="SVGID_4_"
   gradientUnits="userSpaceOnUse"
   x1="-735.12903"
   y1="90.834396"
   x2="-735.12903"
   y2="141.9687"
   gradientTransform="translate(758,1.28)">
						<stop
   offset="0"
   style="stop-color:#F29100"
   id="stop3476" />
						<stop
   offset="1"
   style="stop-color:#EC670F"
   id="stop3478" />
					</linearGradient>
					<path
   fill="url(#SVGID_4_)"
   d="m 38.175,117.053 c 1.154,-2.518 1.82,-5.385 2.775,-7.96 0.916,-2.471 2.346,-5.963 4.785,-7.207 -0.297,-0.347 -5.096,-0.506 -6.377,-0.634 -1.428,-0.145 -2.754,-0.308 -4.141,-0.588 -2.59,-0.523 -5.42,-1.031 -7.971,-1.642 -1.549,-0.375 -6.709,-2.202 -7.83,-2.717 -2.629,-1.212 -4.375,-4.505 -6.43,-4.166 -1.312,0.214 -2.59,0.664 -3.406,1.987 -0.666,1.079 -0.893,2.933 -1.354,4.178 -0.535,1.444 -1.459,2.792 -2.268,4.168 -1.488,2.524 -4.166,4.807 -5.32,7.266 -0.232,0.506 -0.438,1.072 -0.631,1.662 v 0.284 9.15 16.321 2.358 c 1.346,0.23 2.754,0.513 4.33,0.934 11.631,3.104 14.469,3.366 25.877,2.062 l 1.07,-0.142 v -10e-4 c 0.873,-1.818 1.547,-8.003 2.113,-9.918 0.441,-1.468 1.047,-2.638 1.277,-4.137 0.217,-1.424 -0.02,-2.781 -0.143,-4.075 -0.317,-3.242 2.365,-4.4 3.644,-7.183 z"
   id="path3481"
   style="fill:url(#SVGID_4_)" />
				</g>
			</g>
		</g>
	</g>
	<path
   fill="#484444"
   d="m 69.370078,364.43236 c -7.829921,0 -14.97867,-1.39505 -21.444825,-4.18231 -6.468999,-2.78583 -12.01223,-6.78896 -16.639648,-12.01223 -4.627417,-5.219 -8.215302,-11.56713 -10.765074,-19.04152 -2.552617,-7.47441 -3.826792,-15.95564 -3.826792,-25.44938 0,-9.4909 1.274175,-17.94369 3.826792,-25.35836 2.549772,-7.41326 6.137657,-13.64193 10.765074,-18.68601 4.627418,-5.04124 10.170649,-8.8979 16.639648,-11.56712 6.466155,-2.66923 13.614904,-4.00455 21.444825,-4.00455 7.829921,0 14.975825,1.33532 21.444825,4.00455 6.46331,2.66922 12.009387,6.55717 16.636797,11.65671 4.62742,5.10239 8.21531,11.36235 10.76793,18.7756 2.54977,7.4161 3.82394,15.81058 3.82394,25.1806 0,9.49375 -1.27417,17.97497 -3.82394,25.44938 -2.55262,7.4744 -6.14051,13.82252 -10.76793,19.04152 -4.62741,5.22326 -10.173487,9.22639 -16.636797,12.01223 -6.467578,2.78442 -13.614904,4.18089 -21.444825,4.18089 z m 0,-22.60239 c 7.94653,0 14.23777,-3.4087 18.865188,-10.2318 4.624573,-6.82167 6.938282,-16.10494 6.938282,-27.85125 0,-11.62542 -2.313709,-20.7025 -6.938282,-27.22696 -4.627418,-6.52304 -10.918658,-9.78812 -18.865188,-9.78812 -7.949375,0 -14.237771,3.26366 -18.865189,9.78812 -4.627418,6.52588 -6.941127,15.60295 -6.941127,27.22696 0,11.74631 2.313709,21.02958 6.941127,27.85125 4.62884,6.8231 10.917236,10.2318 18.865189,10.2318 z"
   id="path3491"
   style="stroke-width:1.42207" />
	<path
   fill="#484444"
   d="m 131.29699,304.99265 c 0,-9.61035 1.48322,-18.17975 4.44966,-25.71529 2.96644,-7.53272 6.96814,-13.90928 12.01223,-19.13113 5.04124,-5.21899 10.9158,-9.19226 17.61803,-11.92406 6.70221,-2.72753 13.79266,-4.09414 21.26706,-4.09414 7.2355,0 13.78982,1.51309 19.66439,4.53783 5.87173,3.02616 10.76507,6.55717 14.68146,10.58874 l -14.41553,16.19453 c -2.96644,-2.72753 -5.96275,-4.86347 -8.98749,-6.40643 -3.02474,-1.54009 -6.55432,-2.3137 -10.58731,-2.3137 -4.03584,0 -7.80148,0.86177 -11.3012,2.57964 -3.49972,1.72071 -6.55432,4.1823 -9.1624,7.38481 -2.61092,3.2025 -4.65728,7.11746 -6.1405,11.74488 -1.48322,4.626 -2.22412,9.84926 -2.22412,15.65984 0,11.98521 2.55262,21.26707 7.65501,27.85125 5.0967,6.58561 11.92121,9.87628 20.46501,9.87628 4.74403,0 8.89648,-0.94852 12.45734,-2.84698 3.55803,-1.89704 6.76053,-4.38851 9.61036,-7.47441 l 14.41553,15.83903 c -4.86633,5.69397 -10.41241,9.96587 -16.63965,12.81285 -6.2301,2.84842 -12.96502,4.2719 -20.20051,4.2719 -7.47441,0 -14.53215,-1.2756 -21.17606,-3.82537 -6.64675,-2.54977 -12.45733,-6.31825 -17.44027,-11.30119 -4.98293,-4.98294 -8.89931,-11.18032 -11.7463,-18.59642 -2.84983,-7.41041 -4.27474,-15.98265 -4.27474,-25.71246 z"
   id="path3493"
   style="stroke-width:1.42207" />
	<path
   fill="#484444"
   d="m 231.48896,337.73725 c 0,-9.25483 3.91354,-16.49033 11.74347,-21.71075 7.83275,-5.219 20.46786,-8.72014 37.9067,-10.49915 -0.2389,-3.91638 -1.42491,-7.02929 -3.55802,-9.343 -2.13594,-2.31371 -5.5802,-3.46985 -10.32423,-3.46985 -3.79693,0 -7.59385,0.71245 -11.38793,2.13595 -3.79978,1.42349 -7.83277,3.38168 -12.10183,5.87314 l -9.25483,-17.26251 c 5.69397,-3.43999 11.65671,-6.22866 17.88396,-8.36462 6.23009,-2.13452 12.83987,-3.2025 19.84215,-3.2025 11.39078,0 20.08106,3.23379 26.07224,9.69852 5.98834,6.46758 8.98749,16.52161 8.98749,30.16496 v 50.5404 h -21.35381 l -1.9582,-9.07566 h -0.53328 c -3.79977,3.32195 -7.80147,6.02247 -12.01222,8.09584 -4.2136,2.0748 -8.80973,3.11434 -13.79266,3.11434 -4.033,0 -7.65217,-0.68402 -10.85467,-2.04636 -3.2025,-1.36234 -5.93288,-3.26223 -8.18544,-5.6954 -2.2554,-2.43031 -4.00455,-5.24886 -5.2517,-8.45278 -1.24432,-3.20392 -1.86719,-6.70222 -1.86719,-10.50057 z m 24.91468,-1.95819 c 0,2.84841 0.91724,4.9545 2.75739,6.31684 1.83875,1.36661 4.29892,2.04635 7.38482,2.04635 3.08305,0 5.69397,-0.64988 7.82992,-1.95676 2.13595,-1.30546 4.38851,-3.14278 6.76336,-5.51763 v -15.48351 c -9.37428,1.30688 -15.83759,3.20392 -19.39846,5.69539 -3.5566,2.49431 -5.33703,5.45933 -5.33703,8.89932 z"
   id="path3495"
   style="stroke-width:1.42207" />
	<path
   fill="#484444"
   d="m 322.60245,274.02707 h 21.35666 l 1.78043,11.38936 h 0.71103 c 3.67748,-3.67605 7.59102,-6.85154 11.74631,-9.52076 4.15244,-2.66923 9.13537,-4.00456 14.9488,-4.00456 6.2884,0 11.3595,1.2756 15.21474,3.82538 3.85523,2.55261 6.90984,6.20022 9.16524,10.94425 3.91639,-4.03157 8.0347,-7.50142 12.36775,-10.41097 4.33021,-2.9053 9.45961,-4.36008 15.39534,-4.36008 9.48805,0 16.45904,3.17549 20.9087,9.52076 4.44966,6.34813 6.67378,15.03698 6.67378,26.07083 v 54.81228 h -26.16041 v -51.4306 c 0,-6.40643 -0.86178,-10.79494 -2.57964,-13.1698 -1.72213,-2.37201 -4.47952,-3.55944 -8.27361,-3.55944 -4.39135,0 -9.43259,2.84841 -15.1294,8.54238 v 59.61746 H 374.5706 v -51.4306 c 0,-6.40643 -0.8632,-10.79494 -2.58106,-13.1698 -1.72212,-2.37201 -4.47952,-3.55944 -8.27645,-3.55944 -4.51081,0 -9.49374,2.84841 -14.94881,8.54238 v 59.61746 h -26.16183 z"
   id="path3497"
   style="stroke-width:1.42207" />
	<path
   fill="#484444"
   d="m 467.99779,237.54527 h 26.16183 v 98.41154 c 0,2.73181 0.502,4.62742 1.51024,5.6954 1.00825,1.06798 2.04636,1.60125 3.11576,1.60125 0.59158,0 1.09357,0 1.51024,0 0.41382,0 0.97981,-0.1166 1.69084,-0.35552 l 3.20251,19.39847 c -1.42208,0.59158 -3.23238,1.09641 -5.42663,1.51167 -2.19709,0.41524 -4.77673,0.62428 -7.74033,0.62428 -4.51081,0 -8.30773,-0.71246 -11.39078,-2.13595 -3.08589,-1.4235 -5.54608,-3.4087 -7.38482,-5.96132 -1.84158,-2.54977 -3.17406,-5.63282 -4.00454,-9.25341 -0.83049,-3.61775 -1.24432,-7.68061 -1.24432,-12.19 z"
   id="path3499"
   style="stroke-width:1.42207" />
</g></g></svg>
