<?xml version="1.0" encoding="utf-8"?>
<svg viewBox="0 0 500 500" xmlns="http://www.w3.org/2000/svg">
  <path d="M 293.596 263.695 C 297.442 286.351 300.05 309.209 301.414 332.156 C 301.796 346.441 297.623 360.487 289.504 372.251 C 287.594 379.071 281.866 372.251 277.776 372.251 C 267.684 372.251 263.956 361.341 258.501 354.614 C 253.046 347.886 256.956 341.794 260.592 336.43 C 264.502 333.611 266.047 327.338 271.684 327.338 C 277.322 327.338 276.594 319.61 275.775 315.518 C 279.504 309.79 277.229 301.335 280.867 295.062 C 287.413 292.153 285.504 281.969 287.777 276.241 C 289.595 272.15 287.777 264.331 292.958 262.604 C 292.958 262.604 293.596 262.604 293.504 263.513 M 287.23 30.033 C 278.684 29.032 272.229 34.851 265.046 38.126 C 259.083 40.107 253.01 41.744 246.862 43.034 C 242.408 52.126 232.134 57.49 226.588 66.036 C 220.915 83.02 210.349 97.949 196.221 108.95 C 176.038 119.406 165.854 142.136 159.217 163.501 C 156.944 168.321 157.308 175.412 154.853 179.503 C 146.852 181.777 151.126 171.321 150.216 166.32 C 149.034 158.865 155.58 154.047 156.036 146.773 C 158.744 141.6 159.881 135.754 159.308 129.952 C 158.398 116.952 162.309 101.131 153.125 90.493 C 147.67 87.311 149.398 80.584 147.397 75.401 C 141.979 67.992 135.068 61.8 127.122 57.217 C 120.577 56.581 114.575 48.126 107.848 52.036 C 103.666 56.944 95.937 56.854 93.482 63.4 C 91.937 71.582 82.754 69.4 76.754 71.402 C 69.116 74.401 59.297 71.402 53.024 77.493 C 46.75 83.585 36.476 92.494 39.568 102.769 C 46.75 116.861 65.297 109.768 75.389 118.315 C 72.199 127.77 68.535 137.054 64.389 146.136 C 62.734 158.465 62.498 170.939 63.662 183.323 C 65.571 195.687 62.388 211.598 72.753 220.326 C 78.663 222.509 78.3 229.419 80.572 234.51 C 82.845 239.601 87.21 232.691 89.028 237.601 C 94.301 240.51 89.573 246.693 92.482 250.33 C 97.338 251.284 101.793 253.657 105.302 257.149 C 110.894 261.04 116.095 265.449 120.849 270.332 C 124.486 277.788 129.123 263.058 133.123 268.605 C 135.169 273.65 141.169 275.778 145.942 273.15 C 153.345 271.895 160.335 268.878 166.308 264.331 C 170.218 278.241 167.218 293.335 168.946 307.699 C 171.364 318.183 172.882 328.866 173.492 339.612 C 176.219 350.194 177.801 361.05 178.219 371.979 C 181.175 394.682 177.31 417.748 167.127 438.26 C 165.909 444.688 160.909 449.724 154.489 450.987 C 149.943 453.079 140.488 456.807 143.67 463.353 C 154.216 472.444 170.945 471.445 183.038 466.808 C 191.039 462.898 184.128 453.169 188.22 447.261 C 193.584 426.53 190.947 404.346 197.312 383.617 C 202.24 373.161 204.095 361.533 202.676 350.068 C 203.95 343.067 201.04 334.611 205.587 328.884 C 205.659 321.837 208.268 315.054 212.95 309.79 C 214.432 299.09 215.187 288.306 215.224 277.514 C 221.624 275.505 228.37 274.833 235.044 275.514 C 235.044 281.515 230.77 288.424 232.043 295.152 C 233.38 302.708 231.925 310.492 227.952 317.064 C 225.133 328.884 223.224 343.431 230.589 353.432 C 242.772 366.797 258.682 376.253 270.229 390.527 C 274.158 393.69 274.411 399.583 270.775 403.074 C 268.657 410.774 262.874 416.929 255.318 419.53 C 250.499 421.439 242.772 428.622 248.409 433.623 C 259.755 436.178 271.603 435.386 282.503 431.349 C 289.959 428.622 287.23 419.62 290.14 413.983 C 294.16 419.43 297.86 425.112 301.233 430.986 C 305.87 437.896 313.87 432.167 319.417 429.985 C 320.071 419.875 318.034 409.774 313.507 400.709 C 310.961 394.709 301.05 394.527 301.505 387.163 C 306.414 368.979 318.598 354.796 328.235 339.43 C 336.237 331.793 330.235 320.428 330.69 310.79 C 328.145 286.015 334.136 261.122 347.692 240.237 C 350.501 251.839 354.111 263.231 358.512 274.332 C 361.684 287.342 367.431 299.581 375.423 310.336 C 379.15 323.247 378.15 337.612 380.605 350.977 C 384.115 374.079 382.814 397.673 376.787 420.257 C 377.423 428.531 369.603 434.622 370.33 442.714 C 372.513 450.17 381.241 444.169 385.788 447.351 C 393.998 449.897 402.835 446.024 406.517 438.26 C 404.616 431.94 403.344 425.457 402.697 418.893 C 396.461 399.773 395.089 379.399 398.698 359.614 C 399.425 348.886 405.881 335.793 397.516 326.61 C 395.243 316.791 399.152 306.153 396.789 296.062 C 391.18 270.204 390.533 243.511 394.879 217.416 C 396.333 213.78 394.879 207.052 398.788 205.052 C 402.662 210.825 404.388 217.771 403.699 224.691 C 407.235 235.41 407.671 246.912 404.972 257.876 C 398.335 266.33 402.425 277.788 403.244 287.333 C 404.335 294.062 411.335 289.244 412.335 285.061 C 418.445 273.678 423.383 261.703 427.065 249.33 C 431.247 243.692 427.065 237.055 427.065 231.146 C 433.52 230.328 431.065 223.053 427.61 219.871 C 424.155 208.234 424.974 194.778 417.155 184.868 C 404.789 172.085 394.542 157.41 386.788 141.409 C 378.513 115.315 354.875 97.949 346.875 71.582 C 343.873 56.282 334.699 42.889 321.508 34.579 C 315.634 31.878 309.552 29.66 303.325 27.942 C 298.023 29.042 292.64 29.715 287.23 29.942" fill="#004065" style="" transform="matrix(1, 0, 0, 1, 7.105427357601002e-15, 3.552713678800501e-15)"/>
</svg>