<?xml version="1.0" encoding="UTF-8" standalone="no"?>
<svg
   height="512"
   width="512"
   version="1.1"
   id="svg202"
   sodipodi:docname="python.svg"
   xml:space="preserve"
   inkscape:version="1.2.1 (9c6d41e410, 2022-07-14)"
   xmlns:inkscape="http://www.inkscape.org/namespaces/inkscape"
   xmlns:sodipodi="http://sodipodi.sourceforge.net/DTD/sodipodi-0.dtd"
   xmlns:xlink="http://www.w3.org/1999/xlink"
   xmlns="http://www.w3.org/2000/svg"
   xmlns:svg="http://www.w3.org/2000/svg"><defs
     id="defs206"><linearGradient
       id="a"
       gradientTransform="matrix(0.12970797,0,0,0.19997863,11.409779,-1e-6)"
       gradientUnits="userSpaceOnUse"
       x1="167.51685"
       x2="160.31"
       y1="24.393208"
       y2="320.03421"><stop
         offset="0"
         stop-color="#d9d8dc"
         id="stop2044" /><stop
         offset="1"
         stop-color="#fff"
         stop-opacity=".385275"
         id="stop2046" /></linearGradient><linearGradient
       id="b"
       gradientTransform="matrix(0.11420937,0,0,0.22711641,11.409779,-1e-6)"
       gradientUnits="userSpaceOnUse"
       x1="199.03606"
       x2="140.0712"
       y1="21.412943"
       y2="278.40781"><stop
         offset="0"
         stop-color="#8d67af"
         stop-opacity=".671932"
         id="stop2049" /><stop
         offset="1"
         stop-color="#9f8daf"
         id="stop2051" /></linearGradient><linearGradient
       id="c"
       gradientTransform="matrix(0.12266694,0,0,0.21145732,11.409779,-1e-6)"
       gradientUnits="userSpaceOnUse"
       x1="206.42825"
       x2="206.42825"
       y1="100.91758"
       y2="294.31174"><stop
         offset="0"
         stop-color="#26053d"
         stop-opacity=".761634"
         id="stop2054" /><stop
         offset="1"
         stop-color="#b7b4b4"
         stop-opacity=".277683"
         id="stop2056" /></linearGradient><linearGradient
       id="d"
       gradientTransform="matrix(0.18477958,0,0,0.14037711,11.409779,-1e-6)"
       gradientUnits="userSpaceOnUse"
       x1="23.483095"
       x2="112.93069"
       y1="171.71753"
       y2="351.72263"><stop
         offset="0"
         stop-color="#91739f"
         stop-opacity=".45955"
         id="stop2059" /><stop
         offset="1"
         stop-color="#32054f"
         stop-opacity=".539912"
         id="stop2061" /></linearGradient><linearGradient
       id="e"
       gradientTransform="matrix(0.14183937,0,0,0.18287462,11.409779,-1e-6)"
       gradientUnits="userSpaceOnUse"
       x1="226.7811"
       x2="67.803513"
       y1="317.25201"
       y2="147.4131"><stop
         offset="0"
         stop-color="#463d49"
         stop-opacity=".331182"
         id="stop2064" /><stop
         offset="1"
         stop-color="#340a50"
         stop-opacity=".821388"
         id="stop2066" /></linearGradient><linearGradient
       id="f"
       gradientTransform="matrix(0.10596912,0,0,0.24477717,11.409779,-1e-6)"
       gradientUnits="userSpaceOnUse"
       x1="248.0164"
       x2="200.70529"
       y1="88.755211"
       y2="255.00513"><stop
         offset="0"
         stop-color="#715383"
         stop-opacity=".145239"
         id="stop2069" /><stop
         offset="1"
         stop-color="#f4f4f4"
         stop-opacity=".233639"
         id="stop2071" /></linearGradient><linearGradient
       id="g"
       gradientTransform="matrix(0.09173097,0,0,0.28277061,11.409779,-1e-6)"
       gradientUnits="userSpaceOnUse"
       x1="307.5639"
       x2="156.45103"
       y1="109.963"
       y2="81.526764"><stop
         offset="0"
         stop-color="#a5a1a8"
         stop-opacity=".356091"
         id="stop2074" /><stop
         offset="1"
         stop-color="#370c50"
         stop-opacity=".581975"
         id="stop2076" /></linearGradient><clipPath
       id="a-3"><path
         d="M239.03 226.605l-42.13 24.317c-1.578.91-2.546 2.59-2.546 4.406v48.668c0 1.817.968 3.496 2.546 4.406l42.133 24.336c1.575.907 3.517.907 5.09 0l42.126-24.336c1.57-.91 2.54-2.59 2.54-4.406v-48.668c0-1.816-.97-3.496-2.55-4.406l-42.12-24.317c-.79-.453-1.67-.68-2.55-.68-.88 0-1.76.227-2.55.68"
         id="path3061" /></clipPath><linearGradient
       id="b-6"
       x1="-.348"
       x2="1.251"
       gradientTransform="matrix(-38.064915,77.652126,-77.652126,-38.064915,258.72325,244.62943)"
       gradientUnits="userSpaceOnUse"><stop
         offset=".3"
         stop-color="#3E863D"
         id="stop3064" /><stop
         offset=".5"
         stop-color="#55934F"
         id="stop3066" /><stop
         offset=".8"
         stop-color="#5AAD45"
         id="stop3068" /></linearGradient><clipPath
       id="c-7"><path
         d="M195.398 307.086c.403.523.907.976 1.5 1.316l36.14 20.875 6.02 3.46c.9.52 1.926.74 2.934.665.336-.027.672-.09 1-.183l44.434-81.36c-.34-.37-.738-.68-1.184-.94l-27.586-15.93-14.582-8.39c-.414-.24-.863-.41-1.32-.53zm0 0"
         id="path3071" /></clipPath><linearGradient
       id="d-5"
       x1="-.456"
       x2=".582"
       gradientTransform="matrix(106.8057,-78.916731,78.916731,106.8057,235.18824,285.39477)"
       gradientUnits="userSpaceOnUse"><stop
         offset=".57"
         stop-color="#3E863D"
         id="stop3074" /><stop
         offset=".72"
         stop-color="#619857"
         id="stop3076" /><stop
         offset="1"
         stop-color="#76AC64"
         id="stop3078" /></linearGradient><clipPath
       id="e-3"><path
         d="M241.066 225.953c-.707.07-1.398.29-2.035.652l-42.01 24.247 45.3 82.51c.63-.09 1.25-.3 1.81-.624l42.13-24.336c1.3-.754 2.19-2.03 2.46-3.476l-46.18-78.89c-.34-.067-.68-.102-1.03-.102-.14 0-.28.007-.42.02"
         id="path3081" /></clipPath><linearGradient
       id="f-5"
       x1=".043"
       x2=".984"
       gradientTransform="matrix(97.417,0,0,97.417,192.862,279.652)"
       gradientUnits="userSpaceOnUse"><stop
         offset=".16"
         stop-color="#6BBF47"
         id="stop3084" /><stop
         offset=".38"
         stop-color="#79B461"
         id="stop3086" /><stop
         offset=".47"
         stop-color="#75AC64"
         id="stop3088" /><stop
         offset=".7"
         stop-color="#659E5A"
         id="stop3090" /><stop
         offset=".9"
         stop-color="#3E863D"
         id="stop3092" /></linearGradient><clipPath
       clipPathUnits="userSpaceOnUse"
       id="clipPath3444">
      <path
   d="M 11.52,162 C 11.52,81.677 135.307,16.561 288,16.561 l 0,0 c 152.693,0 276.481,65.116 276.481,145.439 l 0,0 c 0,80.322 -123.788,145.439 -276.481,145.439 l 0,0 C 135.307,307.439 11.52,242.322 11.52,162"
   id="path3446" />
    </clipPath><radialGradient
       cx="0"
       cy="0"
       fx="0"
       fy="0"
       gradientTransform="matrix(363.05789,0,0,-363.05789,177.52002,256.30713)"
       gradientUnits="userSpaceOnUse"
       id="radialGradient3452"
       r="1"
       spreadMethod="pad">
      <stop
   id="stop3454"
   offset="0"
   style="stop-opacity:1;stop-color:#aeb2d5" />
      <stop
   id="stop3456-6"
   offset="0.3"
   style="stop-opacity:1;stop-color:#aeb2d5" />
      <stop
   id="stop3458-2"
   offset="0.75"
   style="stop-opacity:1;stop-color:#484c89" />
      <stop
   id="stop3460"
   offset="1"
   style="stop-opacity:1;stop-color:#484c89" />
    </radialGradient><clipPath
       clipPathUnits="userSpaceOnUse"
       id="clipPath3468">
      <path
   d="M 0,324 576,324 576,0 0,0 0,324 Z"
   id="path3470-9" />
    </clipPath><clipPath
       clipPathUnits="userSpaceOnUse"
       id="clipPath3480">
      <path
   d="M 0,324 576,324 576,0 0,0 0,324 Z"
   id="path3482" />
    </clipPath><linearGradient
       id="linearGradient2795"><stop
         style="stop-color:#b8b8b8;stop-opacity:0.49803922;"
         offset="0"
         id="stop2797" /><stop
         style="stop-color:#7f7f7f;stop-opacity:0;"
         offset="1"
         id="stop2799" /></linearGradient><linearGradient
       id="linearGradient2787"><stop
         style="stop-color:#7f7f7f;stop-opacity:0.5;"
         offset="0"
         id="stop2789" /><stop
         style="stop-color:#7f7f7f;stop-opacity:0;"
         offset="1"
         id="stop2791" /></linearGradient><linearGradient
       id="linearGradient3676"><stop
         style="stop-color:#b2b2b2;stop-opacity:0.5;"
         offset="0"
         id="stop3678" /><stop
         style="stop-color:#b3b3b3;stop-opacity:0;"
         offset="1"
         id="stop3680" /></linearGradient><linearGradient
       id="linearGradient3236"><stop
         style="stop-color:#f4f4f4;stop-opacity:1"
         offset="0"
         id="stop3244" /><stop
         style="stop-color:white;stop-opacity:1"
         offset="1"
         id="stop3240" /></linearGradient><linearGradient
       id="linearGradient4671"><stop
         style="stop-color:#ffd43b;stop-opacity:1;"
         offset="0"
         id="stop4673" /><stop
         style="stop-color:#ffe873;stop-opacity:1"
         offset="1"
         id="stop4675" /></linearGradient><linearGradient
       id="linearGradient4689"><stop
         style="stop-color:#5a9fd4;stop-opacity:1;"
         offset="0"
         id="stop4691" /><stop
         style="stop-color:#306998;stop-opacity:1;"
         offset="1"
         id="stop4693" /></linearGradient><linearGradient
       x1="224.23996"
       y1="144.75717"
       x2="-65.308502"
       y2="144.75717"
       id="linearGradient2987"
       xlink:href="#linearGradient4671"
       gradientUnits="userSpaceOnUse"
       gradientTransform="translate(100.2702,99.61116)" /><linearGradient
       x1="172.94208"
       y1="77.475983"
       x2="26.670298"
       y2="76.313133"
       id="linearGradient2990"
       xlink:href="#linearGradient4689"
       gradientUnits="userSpaceOnUse"
       gradientTransform="translate(100.2702,99.61116)" /><linearGradient
       inkscape:collect="always"
       xlink:href="#linearGradient4671"
       id="linearGradient2255"
       gradientUnits="userSpaceOnUse"
       gradientTransform="matrix(0.562541,0,0,0.567972,-11.5974,-7.60954)"
       x1="224.23996"
       y1="144.75717"
       x2="-65.308502"
       y2="144.75717" /><linearGradient
       inkscape:collect="always"
       xlink:href="#linearGradient4689"
       id="linearGradient2258"
       gradientUnits="userSpaceOnUse"
       gradientTransform="matrix(0.562541,0,0,0.567972,-11.5974,-7.60954)"
       x1="172.94208"
       y1="76.176224"
       x2="26.670298"
       y2="76.313133" /><radialGradient
       inkscape:collect="always"
       xlink:href="#linearGradient2795"
       id="radialGradient2801"
       cx="61.518883"
       cy="132.28575"
       fx="61.518883"
       fy="132.28575"
       r="29.036913"
       gradientTransform="matrix(1,0,0,0.177966,0,108.7434)"
       gradientUnits="userSpaceOnUse" /><linearGradient
       inkscape:collect="always"
       xlink:href="#linearGradient4671"
       id="linearGradient1475"
       gradientUnits="userSpaceOnUse"
       gradientTransform="matrix(0.562541,0,0,0.567972,-14.99112,-11.702371)"
       x1="150.96111"
       y1="192.35176"
       x2="112.03144"
       y2="137.27299" /><linearGradient
       inkscape:collect="always"
       xlink:href="#linearGradient4689"
       id="linearGradient1478"
       gradientUnits="userSpaceOnUse"
       gradientTransform="matrix(0.562541,0,0,0.567972,-14.99112,-11.702371)"
       x1="26.648937"
       y1="20.603781"
       x2="135.66525"
       y2="114.39767" /></defs><sodipodi:namedview
     id="namedview204"
     pagecolor="#ffffff"
     bordercolor="#000000"
     borderopacity="0.25"
     inkscape:showpageshadow="2"
     inkscape:pageopacity="0.0"
     inkscape:pagecheckerboard="0"
     inkscape:deskcolor="#d1d1d1"
     showgrid="false"
     inkscape:zoom="1.578125"
     inkscape:cx="256.9505"
     inkscape:cy="238.89109"
     inkscape:window-width="2560"
     inkscape:window-height="1371"
     inkscape:window-x="0"
     inkscape:window-y="32"
     inkscape:window-maximized="1"
     inkscape:current-layer="g965"
     showguides="true"><sodipodi:guide
       position="256.63366,488.94508"
       orientation="0,-1"
       id="guide1374"
       inkscape:locked="false" /><sodipodi:guide
       position="46.79347,320.63366"
       orientation="1,0"
       id="guide1376"
       inkscape:locked="false" /><sodipodi:guide
       position="257.90099,21.039946"
       orientation="0,-1"
       id="guide1378"
       inkscape:locked="false" /><sodipodi:guide
       position="470.13688,280.07921"
       orientation="1,0"
       id="guide1380"
       inkscape:locked="false" /></sodipodi:namedview><style
     id="style762">
    .st0{fill:#fff}
  </style><style
     type="text/css"
     id="style926">
	.st0{fill:#00ACD7;}
</style><g
     id="g965"
     transform="translate(28.428178,75.437795)"
     style="display:inline">
	
	
	
	
<g
   id="g3501"
   transform="matrix(0.88417323,0,0,0.88417323,6.8230223,153.38986)">
	
	
	
	
	
	
<g
   id="g4230"
   transform="matrix(4.3072652,0,0,4.3072652,13.054308,-210.10898)"><path
     style="fill:url(#linearGradient1478);fill-opacity:1"
     d="M 54.918785,9.1927389e-4 C 50.335132,0.02221727 45.957846,0.41313697 42.106285,1.0946693 30.760069,3.0991731 28.700036,7.2947714 28.700035,15.032169 v 10.21875 h 26.8125 v 3.40625 h -26.8125 -10.0625 c -7.792459,0 -14.6157588,4.683717 -16.7499998,13.59375 -2.46181998,10.212966 -2.57101508,16.586023 0,27.25 1.9059283,7.937852 6.4575432,13.593748 14.2499998,13.59375 h 9.21875 v -12.25 c 0,-8.849902 7.657144,-16.656248 16.75,-16.65625 h 26.78125 c 7.454951,0 13.406253,-6.138164 13.40625,-13.625 v -25.53125 c 0,-7.2663386 -6.12998,-12.7247771 -13.40625,-13.9374997 C 64.281548,0.32794397 59.502438,-0.02037903 54.918785,9.1927389e-4 Z m -14.5,8.21875012611 c 2.769547,0 5.03125,2.2986456 5.03125,5.1249996 -2e-6,2.816336 -2.261703,5.09375 -5.03125,5.09375 -2.779476,-1e-6 -5.03125,-2.277415 -5.03125,-5.09375 -10e-7,-2.826353 2.251774,-5.1249996 5.03125,-5.1249996 z"
     id="path1948" /><path
     style="fill:url(#linearGradient1475);fill-opacity:1"
     d="m 85.637535,28.657169 v 11.90625 c 0,9.230755 -7.825895,16.999999 -16.75,17 h -26.78125 c -7.335833,0 -13.406249,6.278483 -13.40625,13.625 v 25.531247 c 0,7.266344 6.318588,11.540324 13.40625,13.625004 8.487331,2.49561 16.626237,2.94663 26.78125,0 6.750155,-1.95439 13.406253,-5.88761 13.40625,-13.625004 V 86.500919 h -26.78125 v -3.40625 h 26.78125 13.406254 c 7.792461,0 10.696251,-5.435408 13.406241,-13.59375 2.79933,-8.398886 2.68022,-16.475776 0,-27.25 -1.92578,-7.757441 -5.60387,-13.59375 -13.406241,-13.59375 z m -15.0625,64.65625 c 2.779478,3e-6 5.03125,2.277417 5.03125,5.093747 -2e-6,2.826354 -2.251775,5.125004 -5.03125,5.125004 -2.76955,0 -5.03125,-2.29865 -5.03125,-5.125004 2e-6,-2.81633 2.261697,-5.093747 5.03125,-5.093747 z"
     id="path1950" /></g></g></g></svg>
