<svg
	width="49"
	height="40"
	viewBox="0 0 49 40"
	fill="none"
	xmlns="http://www.w3.org/2000/svg"
>
	<g clip-path="url(#clip0_21_344)">
		<path
			d="M43.392 10.057C43.4213 10.4825 43.4213 10.9079 43.4213 11.3374C43.4213 24.4217 33.4897 39.5119 15.3294 39.5119V39.504C9.96482 39.5119 4.71164 37.9707 0.195511 35.0648C0.975569 35.1589 1.75954 35.206 2.54546 35.2079C6.99121 35.2119 11.3099 33.7158 14.8074 30.9609C10.5826 30.8805 6.87782 28.1177 5.58358 24.0844C7.06355 24.3707 8.58847 24.3119 10.0411 23.9138C5.435 22.9805 2.12122 18.9217 2.12122 14.2079V14.0825C3.49365 14.8491 5.03031 15.2746 6.60216 15.3217C2.26394 12.4138 0.926694 6.62559 3.54644 2.1001C8.55915 8.28637 15.955 12.0472 23.8944 12.4452C23.0987 9.00598 24.1857 5.40206 26.7507 2.98441C30.7273 -0.764608 36.9814 -0.572451 40.7195 3.41382C42.9306 2.97657 45.0499 2.16284 46.9893 1.0099C46.2522 3.30206 44.7097 5.24912 42.6491 6.48637C44.6061 6.255 46.5181 5.72951 48.3187 4.92755C46.9932 6.91971 45.3236 8.655 43.392 10.057Z"
			fill="#3A5A6E"
		/>
	</g>
	<defs>
		<clipPath id="clip0_21_344">
			<rect width="48.4848" height="40" fill="white" />
		</clipPath>
	</defs>
</svg>
