<svg
   fill="none"
   viewBox="20 20 30 22"
   version="1.1"
   id="svg91"
   width="40"
   sodipodi:docname="YouTube.svg"
   inkscape:version="1.2.2 (b0a8486541, 2022-12-01)"
   xmlns:inkscape="http://www.inkscape.org/namespaces/inkscape"
   xmlns:sodipodi="http://sodipodi.sourceforge.net/DTD/sodipodi-0.dtd"
   xmlns="http://www.w3.org/2000/svg"
   xmlns:svg="http://www.w3.org/2000/svg">
  <defs
     id="defs95">
    <clipPath
       clipPathUnits="userSpaceOnUse"
       id="clipPath259">
      <path
         d="m 32.011533,35.328918 7.7597,-4.4797 -7.7597,-4.47976 z"
         fill="#d7e9ef"
         id="path261"
         style="display:none" />
      <path
         id="lpe_path-effect263"
         class="powerclip"
         d="M 15.066989,15.394662 H 54.935133 V 46.303318 H 15.066989 Z m 16.944544,19.934256 7.7597,-4.4797 -7.7597,-4.47976 z" />
    </clipPath>
  </defs>
  <path
     d="m 49.310533,23.659798 c -0.3441,-1.28589 -1.3548,-2.296414 -2.6406,-2.64063 -2.3283,-0.624506 -11.6689,-0.624506 -11.6689,-0.624506 0,0 -9.34054,0 -11.66892,0.624506 -1.28588,0.344216 -2.296403,1.35474 -2.640619,2.64063 -0.624505,2.32836 -0.624505,7.18922 -0.624505,7.18922 0,0 0,4.8608 0.624505,7.1892 0.344216,1.2859 1.354739,2.2964 2.640619,2.6405 2.32838,0.6246 11.66892,0.6246 11.66892,0.6246 0,0 9.3406,0 11.6689,-0.6246 1.2858,-0.3441 2.2965,-1.3546 2.6406,-2.6405 0.6246,-2.3284 0.6246,-7.1892 0.6246,-7.1892 0,0 -0.0026,-4.86086 -0.6246,-7.18922 z"
     fill="#3a5a6e"
     id="path87"
     clip-path="url(#clipPath259)"
     inkscape:path-effect="#path-effect263"
     inkscape:original-d="m 49.310533,23.659798 c -0.3441,-1.28589 -1.3548,-2.296414 -2.6406,-2.64063 -2.3283,-0.624506 -11.6689,-0.624506 -11.6689,-0.624506 0,0 -9.34054,0 -11.66892,0.624506 -1.28588,0.344216 -2.296403,1.35474 -2.640619,2.64063 -0.624505,2.32836 -0.624505,7.18922 -0.624505,7.18922 0,0 0,4.8608 0.624505,7.1892 0.344216,1.2859 1.354739,2.2964 2.640619,2.6405 2.32838,0.6246 11.66892,0.6246 11.66892,0.6246 0,0 9.3406,0 11.6689,-0.6246 1.2858,-0.3441 2.2965,-1.3546 2.6406,-2.6405 0.6246,-2.3284 0.6246,-7.1892 0.6246,-7.1892 0,0 -0.0026,-4.86086 -0.6246,-7.18922 z"
     transform="translate(-0.001061,0.15101)" />
</svg>
