<svg
	viewBox="0 0 37 37"
	width="256"
	height="256"
	fill="#C9E6F3"
	shape-rendering="crispEdges"
	xmlns="http://www.w3.org/2000/svg"
	version="1.1"
>
	<path
		transform="matrix(1,0,0,1,0,0)"
		d="M36,36h1v1h-1v-1zM30,36h1v1h-1v-1zM28,36h1v1h-1v-1zM24,36h1v1h-1v-1zM19,36h2v1h-2v-1zM14,36h2v1h-2v-1zM12,36h1v1h-1v-1zM10,36h1v1h-1v-1zM0,36h7v1h-7v-1zM36,35h1v1h-1v-1zM32,35h2v1h-2v-1zM28,35h3v1h-3v-1zM26,35h1v1h-1v-1zM23,35h1v1h-1v-1zM19,35h3v1h-3v-1zM16,35h1v1h-1v-1zM14,35h1v1h-1v-1zM11,35h2v1h-2v-1zM9,35h1v1h-1v-1zM6,35h1v1h-1v-1zM0,35h1v1h-1v-1zM36,34h1v1h-1v-1zM33,34h2v1h-2v-1zM31,34h1v1h-1v-1zM29,34h1v1h-1v-1zM27,34h1v1h-1v-1zM20,34h6v1h-6v-1zM18,34h1v1h-1v-1zM13,34h2v1h-2v-1zM10,34h1v1h-1v-1zM6,34h1v1h-1v-1zM2,34h3v1h-3v-1zM0,34h1v1h-1v-1zM33,33h1v1h-1v-1zM30,33h1v1h-1v-1zM26,33h2v1h-2v-1zM22,33h1v1h-1v-1zM20,33h1v1h-1v-1zM13,33h3v1h-3v-1zM10,33h1v1h-1v-1zM6,33h1v1h-1v-1zM2,33h3v1h-3v-1zM0,33h1v1h-1v-1zM36,32h1v1h-1v-1zM34,32h1v1h-1v-1zM24,32h9v1h-9v-1zM22,32h1v1h-1v-1zM18,32h3v1h-3v-1zM15,32h1v1h-1v-1zM11,32h1v1h-1v-1zM9,32h1v1h-1v-1zM6,32h1v1h-1v-1zM2,32h3v1h-3v-1zM0,32h1v1h-1v-1zM36,31h1v1h-1v-1zM32,31h2v1h-2v-1zM27,31h2v1h-2v-1zM23,31h2v1h-2v-1zM20,31h1v1h-1v-1zM18,31h1v1h-1v-1zM16,31h1v1h-1v-1zM13,31h2v1h-2v-1zM10,31h1v1h-1v-1zM8,31h1v1h-1v-1zM6,31h1v1h-1v-1zM0,31h1v1h-1v-1zM32,30h5v1h-5v-1zM30,30h1v1h-1v-1zM28,30h1v1h-1v-1zM25,30h1v1h-1v-1zM21,30h3v1h-3v-1zM19,30h1v1h-1v-1zM17,30h1v1h-1v-1zM10,30h1v1h-1v-1zM0,30h7v1h-7v-1zM35,29h1v1h-1v-1zM32,29h2v1h-2v-1zM28,29h1v1h-1v-1zM25,29h2v1h-2v-1zM20,29h4v1h-4v-1zM14,29h5v1h-5v-1zM12,29h1v1h-1v-1zM8,29h1v1h-1v-1zM34,28h3v1h-3v-1zM28,28h5v1h-5v-1zM24,28h2v1h-2v-1zM22,28h1v1h-1v-1zM17,28h4v1h-4v-1zM14,28h1v1h-1v-1zM11,28h1v1h-1v-1zM6,28h1v1h-1v-1zM0,28h1v1h-1v-1zM31,27h6v1h-6v-1zM29,27h1v1h-1v-1zM26,27h2v1h-2v-1zM24,27h1v1h-1v-1zM21,27h1v1h-1v-1zM19,27h1v1h-1v-1zM12,27h3v1h-3v-1zM7,27h2v1h-2v-1zM3,27h2v1h-2v-1zM0,27h1v1h-1v-1zM35,26h2v1h-2v-1zM33,26h1v1h-1v-1zM30,26h2v1h-2v-1zM25,26h1v1h-1v-1zM21,26h2v1h-2v-1zM19,26h1v1h-1v-1zM14,26h1v1h-1v-1zM2,26h5v1h-5v-1zM0,26h1v1h-1v-1zM33,25h1v1h-1v-1zM30,25h2v1h-2v-1zM28,25h1v1h-1v-1zM26,25h1v1h-1v-1zM24,25h1v1h-1v-1zM21,25h1v1h-1v-1zM19,25h1v1h-1v-1zM16,25h2v1h-2v-1zM13,25h1v1h-1v-1zM7,25h5v1h-5v-1zM5,25h1v1h-1v-1zM3,25h1v1h-1v-1zM0,25h1v1h-1v-1zM35,24h1v1h-1v-1zM33,24h1v1h-1v-1zM28,24h4v1h-4v-1zM25,24h2v1h-2v-1zM22,24h1v1h-1v-1zM13,24h3v1h-3v-1zM10,24h1v1h-1v-1zM8,24h1v1h-1v-1zM5,24h2v1h-2v-1zM2,24h2v1h-2v-1zM0,24h1v1h-1v-1zM36,23h1v1h-1v-1zM33,23h1v1h-1v-1zM29,23h3v1h-3v-1zM26,23h2v1h-2v-1zM24,23h1v1h-1v-1zM19,23h1v1h-1v-1zM14,23h4v1h-4v-1zM7,23h2v1h-2v-1zM4,23h2v1h-2v-1zM0,23h2v1h-2v-1zM34,22h3v1h-3v-1zM29,22h2v1h-2v-1zM27,22h1v1h-1v-1zM23,22h1v1h-1v-1zM21,22h1v1h-1v-1zM19,22h1v1h-1v-1zM14,22h3v1h-3v-1zM12,22h1v1h-1v-1zM8,22h3v1h-3v-1zM5,22h2v1h-2v-1zM3,22h1v1h-1v-1zM1,22h1v1h-1v-1zM31,21h3v1h-3v-1zM27,21h2v1h-2v-1zM21,21h4v1h-4v-1zM19,21h1v1h-1v-1zM17,21h1v1h-1v-1zM15,21h1v1h-1v-1zM12,21h1v1h-1v-1zM7,21h4v1h-4v-1zM2,21h3v1h-3v-1zM0,21h1v1h-1v-1zM29,20h8v1h-8v-1zM24,20h3v1h-3v-1zM20,20h1v1h-1v-1zM17,20h1v1h-1v-1zM15,20h1v1h-1v-1zM13,20h1v1h-1v-1zM9,20h3v1h-3v-1zM6,20h1v1h-1v-1zM4,20h1v1h-1v-1zM1,20h1v1h-1v-1zM26,19h1v1h-1v-1zM24,19h1v1h-1v-1zM22,19h1v1h-1v-1zM20,19h1v1h-1v-1zM15,19h4v1h-4v-1zM11,19h3v1h-3v-1zM9,19h1v1h-1v-1zM4,19h1v1h-1v-1zM0,19h2v1h-2v-1zM36,18h1v1h-1v-1zM33,18h2v1h-2v-1zM27,18h1v1h-1v-1zM21,18h3v1h-3v-1zM16,18h1v1h-1v-1zM13,18h2v1h-2v-1zM10,18h1v1h-1v-1zM2,18h7v1h-7v-1zM33,17h1v1h-1v-1zM31,17h1v1h-1v-1zM27,17h3v1h-3v-1zM25,17h1v1h-1v-1zM23,17h1v1h-1v-1zM20,17h1v1h-1v-1zM16,17h2v1h-2v-1zM14,17h1v1h-1v-1zM10,17h2v1h-2v-1zM7,17h1v1h-1v-1zM1,17h3v1h-3v-1zM36,16h1v1h-1v-1zM34,16h1v1h-1v-1zM29,16h4v1h-4v-1zM25,16h2v1h-2v-1zM21,16h1v1h-1v-1zM17,16h1v1h-1v-1zM14,16h2v1h-2v-1zM8,16h3v1h-3v-1zM4,16h3v1h-3v-1zM1,16h2v1h-2v-1zM29,15h6v1h-6v-1zM27,15h1v1h-1v-1zM24,15h1v1h-1v-1zM19,15h1v1h-1v-1zM16,15h1v1h-1v-1zM14,15h1v1h-1v-1zM8,15h2v1h-2v-1zM4,15h2v1h-2v-1zM0,15h1v1h-1v-1zM36,14h1v1h-1v-1zM32,14h2v1h-2v-1zM30,14h1v1h-1v-1zM23,14h6v1h-6v-1zM16,14h6v1h-6v-1zM12,14h2v1h-2v-1zM9,14h2v1h-2v-1zM3,14h5v1h-5v-1zM1,14h1v1h-1v-1zM34,13h2v1h-2v-1zM26,13h4v1h-4v-1zM23,13h1v1h-1v-1zM16,13h1v1h-1v-1zM12,13h2v1h-2v-1zM7,13h2v1h-2v-1zM3,13h2v1h-2v-1zM35,12h2v1h-2v-1zM33,12h1v1h-1v-1zM30,12h2v1h-2v-1zM26,12h3v1h-3v-1zM24,12h1v1h-1v-1zM19,12h1v1h-1v-1zM17,12h1v1h-1v-1zM15,12h1v1h-1v-1zM12,12h2v1h-2v-1zM9,12h1v1h-1v-1zM6,12h2v1h-2v-1zM35,11h1v1h-1v-1zM30,11h4v1h-4v-1zM26,11h1v1h-1v-1zM23,11h1v1h-1v-1zM21,11h1v1h-1v-1zM14,11h6v1h-6v-1zM11,11h2v1h-2v-1zM7,11h2v1h-2v-1zM5,11h1v1h-1v-1zM3,11h1v1h-1v-1zM35,10h2v1h-2v-1zM30,10h1v1h-1v-1zM25,10h4v1h-4v-1zM22,10h2v1h-2v-1zM18,10h2v1h-2v-1zM13,10h3v1h-3v-1zM10,10h1v1h-1v-1zM4,10h3v1h-3v-1zM0,10h1v1h-1v-1zM31,9h4v1h-4v-1zM28,9h1v1h-1v-1zM24,9h3v1h-3v-1zM19,9h3v1h-3v-1zM14,9h1v1h-1v-1zM11,9h2v1h-2v-1zM8,9h1v1h-1v-1zM0,9h6v1h-6v-1zM36,8h1v1h-1v-1zM34,8h1v1h-1v-1zM32,8h1v1h-1v-1zM30,8h1v1h-1v-1zM28,8h1v1h-1v-1zM26,8h1v1h-1v-1zM21,8h3v1h-3v-1zM18,8h2v1h-2v-1zM14,8h1v1h-1v-1zM10,8h2v1h-2v-1zM5,8h2v1h-2v-1zM27,7h2v1h-2v-1zM23,7h3v1h-3v-1zM15,7h3v1h-3v-1zM11,7h3v1h-3v-1zM8,7h2v1h-2v-1zM30,6h7v1h-7v-1zM28,6h1v1h-1v-1zM26,6h1v1h-1v-1zM24,6h1v1h-1v-1zM22,6h1v1h-1v-1zM20,6h1v1h-1v-1zM18,6h1v1h-1v-1zM16,6h1v1h-1v-1zM14,6h1v1h-1v-1zM12,6h1v1h-1v-1zM10,6h1v1h-1v-1zM8,6h1v1h-1v-1zM0,6h7v1h-7v-1zM36,5h1v1h-1v-1zM30,5h1v1h-1v-1zM28,5h1v1h-1v-1zM24,5h3v1h-3v-1zM21,5h1v1h-1v-1zM15,5h4v1h-4v-1zM9,5h2v1h-2v-1zM6,5h1v1h-1v-1zM0,5h1v1h-1v-1zM36,4h1v1h-1v-1zM32,4h3v1h-3v-1zM30,4h1v1h-1v-1zM25,4h1v1h-1v-1zM21,4h1v1h-1v-1zM17,4h3v1h-3v-1zM15,4h1v1h-1v-1zM10,4h1v1h-1v-1zM8,4h1v1h-1v-1zM6,4h1v1h-1v-1zM2,4h3v1h-3v-1zM0,4h1v1h-1v-1zM36,3h1v1h-1v-1zM32,3h3v1h-3v-1zM30,3h1v1h-1v-1zM28,3h1v1h-1v-1zM24,3h3v1h-3v-1zM22,3h1v1h-1v-1zM18,3h3v1h-3v-1zM15,3h1v1h-1v-1zM12,3h2v1h-2v-1zM9,3h2v1h-2v-1zM6,3h1v1h-1v-1zM2,3h3v1h-3v-1zM0,3h1v1h-1v-1zM36,2h1v1h-1v-1zM32,2h3v1h-3v-1zM30,2h1v1h-1v-1zM28,2h1v1h-1v-1zM26,2h1v1h-1v-1zM23,2h2v1h-2v-1zM21,2h1v1h-1v-1zM17,2h2v1h-2v-1zM12,2h3v1h-3v-1zM8,2h2v1h-2v-1zM6,2h1v1h-1v-1zM2,2h3v1h-3v-1zM0,2h1v1h-1v-1zM36,1h1v1h-1v-1zM30,1h1v1h-1v-1zM28,1h1v1h-1v-1zM26,1h1v1h-1v-1zM24,1h1v1h-1v-1zM21,1h2v1h-2v-1zM18,1h1v1h-1v-1zM12,1h4v1h-4v-1zM9,1h1v1h-1v-1zM6,1h1v1h-1v-1zM0,1h1v1h-1v-1zM30,0h7v1h-7v-1zM26,0h1v1h-1v-1zM24,0h1v1h-1v-1zM20,0h1v1h-1v-1zM18,0h1v1h-1v-1zM15,0h1v1h-1v-1zM8,0h2v1h-2v-1zM0,0h7v1h-7v-1z"
	/>
</svg>
