<svg
	viewBox="0 0 33 33"
	width="256"
	height="256"
	fill="#C9E6F3"
	shape-rendering="crispEdges"
	xmlns="http://www.w3.org/2000/svg"
	version="1.1"
>
	<path
		transform="matrix(1,0,0,1,0,0)"
		d="M30,32h3v1h-3v-1zM24,32h1v1h-1v-1zM20,32h3v1h-3v-1zM16,32h1v1h-1v-1zM13,32h1v1h-1v-1zM10,32h1v1h-1v-1zM0,32h7v1h-7v-1zM31,31h1v1h-1v-1zM29,31h1v1h-1v-1zM23,31h4v1h-4v-1zM20,31h2v1h-2v-1zM16,31h1v1h-1v-1zM12,31h2v1h-2v-1zM9,31h2v1h-2v-1zM6,31h1v1h-1v-1zM0,31h1v1h-1v-1zM32,30h1v1h-1v-1zM27,30h3v1h-3v-1zM24,30h2v1h-2v-1zM22,30h1v1h-1v-1zM17,30h1v1h-1v-1zM15,30h1v1h-1v-1zM8,30h2v1h-2v-1zM6,30h1v1h-1v-1zM2,30h3v1h-3v-1zM0,30h1v1h-1v-1zM29,29h2v1h-2v-1zM27,29h1v1h-1v-1zM24,29h2v1h-2v-1zM18,29h5v1h-5v-1zM13,29h3v1h-3v-1zM9,29h1v1h-1v-1zM6,29h1v1h-1v-1zM2,29h3v1h-3v-1zM0,29h1v1h-1v-1zM31,28h2v1h-2v-1zM24,28h6v1h-6v-1zM22,28h1v1h-1v-1zM18,28h1v1h-1v-1zM13,28h3v1h-3v-1zM10,28h2v1h-2v-1zM8,28h1v1h-1v-1zM6,28h1v1h-1v-1zM2,28h3v1h-3v-1zM0,28h1v1h-1v-1zM32,27h1v1h-1v-1zM28,27h1v1h-1v-1zM24,27h1v1h-1v-1zM21,27h2v1h-2v-1zM15,27h3v1h-3v-1zM8,27h3v1h-3v-1zM6,27h1v1h-1v-1zM0,27h1v1h-1v-1zM31,26h2v1h-2v-1zM28,26h2v1h-2v-1zM26,26h1v1h-1v-1zM22,26h3v1h-3v-1zM16,26h3v1h-3v-1zM9,26h3v1h-3v-1zM0,26h7v1h-7v-1zM28,25h1v1h-1v-1zM24,25h1v1h-1v-1zM19,25h4v1h-4v-1zM17,25h1v1h-1v-1zM14,25h2v1h-2v-1zM12,25h1v1h-1v-1zM8,25h3v1h-3v-1zM32,24h1v1h-1v-1zM21,24h9v1h-9v-1zM15,24h3v1h-3v-1zM9,24h4v1h-4v-1zM6,24h1v1h-1v-1zM2,24h2v1h-2v-1zM0,24h1v1h-1v-1zM27,23h3v1h-3v-1zM24,23h1v1h-1v-1zM19,23h3v1h-3v-1zM14,23h2v1h-2v-1zM11,23h1v1h-1v-1zM8,23h2v1h-2v-1zM3,23h1v1h-1v-1zM1,23h1v1h-1v-1zM29,22h4v1h-4v-1zM27,22h1v1h-1v-1zM22,22h3v1h-3v-1zM20,22h1v1h-1v-1zM17,22h2v1h-2v-1zM13,22h2v1h-2v-1zM11,22h1v1h-1v-1zM9,22h1v1h-1v-1zM3,22h5v1h-5v-1zM0,22h1v1h-1v-1zM32,21h1v1h-1v-1zM29,21h1v1h-1v-1zM23,21h2v1h-2v-1zM18,21h1v1h-1v-1zM16,21h1v1h-1v-1zM14,21h1v1h-1v-1zM12,21h1v1h-1v-1zM7,21h3v1h-3v-1zM1,21h4v1h-4v-1zM30,20h1v1h-1v-1zM26,20h3v1h-3v-1zM23,20h2v1h-2v-1zM21,20h1v1h-1v-1zM16,20h4v1h-4v-1zM14,20h1v1h-1v-1zM9,20h4v1h-4v-1zM2,20h6v1h-6v-1zM0,20h1v1h-1v-1zM31,19h2v1h-2v-1zM21,19h2v1h-2v-1zM17,19h2v1h-2v-1zM10,19h3v1h-3v-1zM7,19h1v1h-1v-1zM4,19h2v1h-2v-1zM0,19h3v1h-3v-1zM32,18h1v1h-1v-1zM26,18h4v1h-4v-1zM24,18h1v1h-1v-1zM18,18h3v1h-3v-1zM15,18h2v1h-2v-1zM12,18h1v1h-1v-1zM3,18h7v1h-7v-1zM32,17h1v1h-1v-1zM26,17h1v1h-1v-1zM18,17h7v1h-7v-1zM11,17h6v1h-6v-1zM9,17h1v1h-1v-1zM7,17h1v1h-1v-1zM3,17h2v1h-2v-1zM0,17h2v1h-2v-1zM31,16h1v1h-1v-1zM29,16h1v1h-1v-1zM25,16h2v1h-2v-1zM17,16h1v1h-1v-1zM13,16h2v1h-2v-1zM6,16h1v1h-1v-1zM4,16h1v1h-1v-1zM1,16h2v1h-2v-1zM31,15h1v1h-1v-1zM28,15h2v1h-2v-1zM23,15h1v1h-1v-1zM20,15h2v1h-2v-1zM16,15h2v1h-2v-1zM10,15h1v1h-1v-1zM8,15h1v1h-1v-1zM2,15h4v1h-4v-1zM31,14h2v1h-2v-1zM29,14h1v1h-1v-1zM24,14h3v1h-3v-1zM20,14h3v1h-3v-1zM18,14h1v1h-1v-1zM16,14h1v1h-1v-1zM13,14h2v1h-2v-1zM10,14h1v1h-1v-1zM6,14h1v1h-1v-1zM3,14h1v1h-1v-1zM28,13h3v1h-3v-1zM26,13h1v1h-1v-1zM24,13h1v1h-1v-1zM15,13h1v1h-1v-1zM13,13h1v1h-1v-1zM10,13h1v1h-1v-1zM3,13h2v1h-2v-1zM1,13h1v1h-1v-1zM32,12h1v1h-1v-1zM28,12h1v1h-1v-1zM26,12h1v1h-1v-1zM24,12h1v1h-1v-1zM20,12h1v1h-1v-1zM13,12h2v1h-2v-1zM11,12h1v1h-1v-1zM8,12h2v1h-2v-1zM6,12h1v1h-1v-1zM3,12h1v1h-1v-1zM31,11h1v1h-1v-1zM26,11h1v1h-1v-1zM23,11h2v1h-2v-1zM18,11h1v1h-1v-1zM13,11h3v1h-3v-1zM7,11h5v1h-5v-1zM3,11h3v1h-3v-1zM1,11h1v1h-1v-1zM29,10h4v1h-4v-1zM26,10h1v1h-1v-1zM24,10h1v1h-1v-1zM19,10h3v1h-3v-1zM15,10h1v1h-1v-1zM12,10h1v1h-1v-1zM8,10h1v1h-1v-1zM6,10h1v1h-1v-1zM3,10h1v1h-1v-1zM0,10h2v1h-2v-1zM31,9h1v1h-1v-1zM29,9h1v1h-1v-1zM25,9h1v1h-1v-1zM18,9h2v1h-2v-1zM15,9h1v1h-1v-1zM11,9h2v1h-2v-1zM9,9h1v1h-1v-1zM7,9h1v1h-1v-1zM5,9h1v1h-1v-1zM2,9h1v1h-1v-1zM32,8h1v1h-1v-1zM29,8h1v1h-1v-1zM25,8h1v1h-1v-1zM18,8h1v1h-1v-1zM11,8h4v1h-4v-1zM8,8h2v1h-2v-1zM4,8h3v1h-3v-1zM2,8h1v1h-1v-1zM21,7h3v1h-3v-1zM19,7h1v1h-1v-1zM16,7h2v1h-2v-1zM10,7h3v1h-3v-1zM26,6h7v1h-7v-1zM24,6h1v1h-1v-1zM22,6h1v1h-1v-1zM20,6h1v1h-1v-1zM18,6h1v1h-1v-1zM16,6h1v1h-1v-1zM14,6h1v1h-1v-1zM12,6h1v1h-1v-1zM10,6h1v1h-1v-1zM8,6h1v1h-1v-1zM0,6h7v1h-7v-1zM32,5h1v1h-1v-1zM26,5h1v1h-1v-1zM23,5h2v1h-2v-1zM19,5h2v1h-2v-1zM17,5h1v1h-1v-1zM13,5h1v1h-1v-1zM9,5h3v1h-3v-1zM6,5h1v1h-1v-1zM0,5h1v1h-1v-1zM32,4h1v1h-1v-1zM28,4h3v1h-3v-1zM26,4h1v1h-1v-1zM24,4h1v1h-1v-1zM21,4h2v1h-2v-1zM18,4h1v1h-1v-1zM15,4h1v1h-1v-1zM12,4h1v1h-1v-1zM9,4h1v1h-1v-1zM6,4h1v1h-1v-1zM2,4h3v1h-3v-1zM0,4h1v1h-1v-1zM32,3h1v1h-1v-1zM28,3h3v1h-3v-1zM26,3h1v1h-1v-1zM22,3h3v1h-3v-1zM15,3h6v1h-6v-1zM10,3h3v1h-3v-1zM8,3h1v1h-1v-1zM6,3h1v1h-1v-1zM2,3h3v1h-3v-1zM0,3h1v1h-1v-1zM32,2h1v1h-1v-1zM28,2h3v1h-3v-1zM26,2h1v1h-1v-1zM22,2h1v1h-1v-1zM18,2h1v1h-1v-1zM15,2h2v1h-2v-1zM12,2h1v1h-1v-1zM10,2h1v1h-1v-1zM6,2h1v1h-1v-1zM2,2h3v1h-3v-1zM0,2h1v1h-1v-1zM32,1h1v1h-1v-1zM26,1h1v1h-1v-1zM22,1h2v1h-2v-1zM20,1h1v1h-1v-1zM15,1h1v1h-1v-1zM13,1h1v1h-1v-1zM6,1h1v1h-1v-1zM0,1h1v1h-1v-1zM26,0h7v1h-7v-1zM23,0h2v1h-2v-1zM19,0h3v1h-3v-1zM17,0h1v1h-1v-1zM14,0h2v1h-2v-1zM8,0h3v1h-3v-1zM0,0h7v1h-7v-1z"
	/>
</svg>
