<svg
	viewBox="0 0 33 33"
	width="256"
	height="256"
	fill="#C9E6F3"
	shape-rendering="crispEdges"
	xmlns="http://www.w3.org/2000/svg"
	version="1.1"
>
	<path
		transform="matrix(1,0,0,1,0,0)"
		d="M31,32h1v1h-1v-1zM23,32h4v1h-4v-1zM21,32h1v1h-1v-1zM19,32h1v1h-1v-1zM16,32h2v1h-2v-1zM13,32h1v1h-1v-1zM9,32h2v1h-2v-1zM0,32h7v1h-7v-1zM30,31h1v1h-1v-1zM25,31h2v1h-2v-1zM22,31h2v1h-2v-1zM19,31h1v1h-1v-1zM15,31h3v1h-3v-1zM9,31h1v1h-1v-1zM6,31h1v1h-1v-1zM0,31h1v1h-1v-1zM31,30h2v1h-2v-1zM28,30h2v1h-2v-1zM24,30h1v1h-1v-1zM21,30h1v1h-1v-1zM19,30h1v1h-1v-1zM17,30h1v1h-1v-1zM15,30h1v1h-1v-1zM11,30h1v1h-1v-1zM9,30h1v1h-1v-1zM6,30h1v1h-1v-1zM2,30h3v1h-3v-1zM0,30h1v1h-1v-1zM32,29h1v1h-1v-1zM27,29h4v1h-4v-1zM25,29h1v1h-1v-1zM22,29h2v1h-2v-1zM19,29h1v1h-1v-1zM14,29h4v1h-4v-1zM9,29h1v1h-1v-1zM6,29h1v1h-1v-1zM2,29h3v1h-3v-1zM0,29h1v1h-1v-1zM31,28h2v1h-2v-1zM24,28h5v1h-5v-1zM20,28h2v1h-2v-1zM17,28h2v1h-2v-1zM12,28h2v1h-2v-1zM9,28h2v1h-2v-1zM6,28h1v1h-1v-1zM2,28h3v1h-3v-1zM0,28h1v1h-1v-1zM28,27h4v1h-4v-1zM23,27h2v1h-2v-1zM14,27h5v1h-5v-1zM11,27h2v1h-2v-1zM8,27h2v1h-2v-1zM6,27h1v1h-1v-1zM0,27h1v1h-1v-1zM28,26h4v1h-4v-1zM26,26h1v1h-1v-1zM23,26h2v1h-2v-1zM21,26h1v1h-1v-1zM18,26h2v1h-2v-1zM15,26h2v1h-2v-1zM11,26h3v1h-3v-1zM0,26h7v1h-7v-1zM32,25h1v1h-1v-1zM28,25h3v1h-3v-1zM24,25h1v1h-1v-1zM17,25h3v1h-3v-1zM15,25h1v1h-1v-1zM8,25h4v1h-4v-1zM31,24h2v1h-2v-1zM24,24h5v1h-5v-1zM19,24h2v1h-2v-1zM16,24h1v1h-1v-1zM13,24h2v1h-2v-1zM8,24h4v1h-4v-1zM6,24h1v1h-1v-1zM3,24h2v1h-2v-1zM0,24h2v1h-2v-1zM29,23h4v1h-4v-1zM22,23h2v1h-2v-1zM14,23h1v1h-1v-1zM9,23h2v1h-2v-1zM5,23h1v1h-1v-1zM0,23h1v1h-1v-1zM28,22h4v1h-4v-1zM18,22h1v1h-1v-1zM14,22h2v1h-2v-1zM10,22h1v1h-1v-1zM2,22h7v1h-7v-1zM0,22h1v1h-1v-1zM31,21h1v1h-1v-1zM27,21h2v1h-2v-1zM23,21h1v1h-1v-1zM20,21h1v1h-1v-1zM16,21h1v1h-1v-1zM13,21h1v1h-1v-1zM8,21h4v1h-4v-1zM5,21h1v1h-1v-1zM0,21h3v1h-3v-1zM31,20h2v1h-2v-1zM27,20h3v1h-3v-1zM24,20h2v1h-2v-1zM22,20h1v1h-1v-1zM20,20h1v1h-1v-1zM18,20h1v1h-1v-1zM16,20h1v1h-1v-1zM12,20h3v1h-3v-1zM8,20h1v1h-1v-1zM6,20h1v1h-1v-1zM1,20h4v1h-4v-1zM28,19h5v1h-5v-1zM23,19h4v1h-4v-1zM17,19h3v1h-3v-1zM15,19h1v1h-1v-1zM12,19h2v1h-2v-1zM7,19h4v1h-4v-1zM5,19h1v1h-1v-1zM3,19h1v1h-1v-1zM0,19h2v1h-2v-1zM32,18h1v1h-1v-1zM28,18h3v1h-3v-1zM25,18h2v1h-2v-1zM23,18h1v1h-1v-1zM19,18h2v1h-2v-1zM17,18h1v1h-1v-1zM14,18h1v1h-1v-1zM10,18h3v1h-3v-1zM0,18h9v1h-9v-1zM32,17h1v1h-1v-1zM26,17h2v1h-2v-1zM23,17h2v1h-2v-1zM21,17h1v1h-1v-1zM17,17h1v1h-1v-1zM10,17h2v1h-2v-1zM7,17h2v1h-2v-1zM4,17h2v1h-2v-1zM0,17h2v1h-2v-1zM27,16h2v1h-2v-1zM25,16h1v1h-1v-1zM20,16h1v1h-1v-1zM14,16h2v1h-2v-1zM6,16h3v1h-3v-1zM4,16h1v1h-1v-1zM2,16h1v1h-1v-1zM32,15h1v1h-1v-1zM29,15h2v1h-2v-1zM27,15h1v1h-1v-1zM23,15h3v1h-3v-1zM20,15h1v1h-1v-1zM18,15h1v1h-1v-1zM11,15h3v1h-3v-1zM8,15h2v1h-2v-1zM4,15h2v1h-2v-1zM1,15h1v1h-1v-1zM31,14h1v1h-1v-1zM27,14h2v1h-2v-1zM24,14h2v1h-2v-1zM22,14h1v1h-1v-1zM19,14h2v1h-2v-1zM16,14h1v1h-1v-1zM14,14h1v1h-1v-1zM11,14h1v1h-1v-1zM6,14h1v1h-1v-1zM3,14h2v1h-2v-1zM0,14h1v1h-1v-1zM32,13h1v1h-1v-1zM29,13h1v1h-1v-1zM26,13h2v1h-2v-1zM23,13h1v1h-1v-1zM21,13h1v1h-1v-1zM14,13h6v1h-6v-1zM9,13h1v1h-1v-1zM5,13h1v1h-1v-1zM0,13h2v1h-2v-1zM32,12h1v1h-1v-1zM26,12h2v1h-2v-1zM24,12h1v1h-1v-1zM21,12h1v1h-1v-1zM19,12h1v1h-1v-1zM17,12h1v1h-1v-1zM14,12h1v1h-1v-1zM10,12h2v1h-2v-1zM6,12h2v1h-2v-1zM2,12h2v1h-2v-1zM0,12h1v1h-1v-1zM29,11h2v1h-2v-1zM25,11h3v1h-3v-1zM21,11h1v1h-1v-1zM17,11h3v1h-3v-1zM12,11h3v1h-3v-1zM4,11h2v1h-2v-1zM1,11h2v1h-2v-1zM29,10h3v1h-3v-1zM27,10h1v1h-1v-1zM24,10h1v1h-1v-1zM22,10h1v1h-1v-1zM19,10h2v1h-2v-1zM11,10h6v1h-6v-1zM5,10h5v1h-5v-1zM3,10h1v1h-1v-1zM0,10h1v1h-1v-1zM30,9h1v1h-1v-1zM27,9h2v1h-2v-1zM25,9h1v1h-1v-1zM19,9h5v1h-5v-1zM14,9h3v1h-3v-1zM10,9h1v1h-1v-1zM7,9h1v1h-1v-1zM2,9h3v1h-3v-1zM0,9h1v1h-1v-1zM32,8h1v1h-1v-1zM30,8h1v1h-1v-1zM28,8h1v1h-1v-1zM26,8h1v1h-1v-1zM22,8h3v1h-3v-1zM18,8h1v1h-1v-1zM15,8h2v1h-2v-1zM12,8h2v1h-2v-1zM10,8h1v1h-1v-1zM5,8h2v1h-2v-1zM22,7h1v1h-1v-1zM17,7h2v1h-2v-1zM10,7h5v1h-5v-1zM8,7h1v1h-1v-1zM26,6h7v1h-7v-1zM24,6h1v1h-1v-1zM22,6h1v1h-1v-1zM20,6h1v1h-1v-1zM18,6h1v1h-1v-1zM16,6h1v1h-1v-1zM14,6h1v1h-1v-1zM12,6h1v1h-1v-1zM10,6h1v1h-1v-1zM8,6h1v1h-1v-1zM0,6h7v1h-7v-1zM32,5h1v1h-1v-1zM26,5h1v1h-1v-1zM22,5h1v1h-1v-1zM20,5h1v1h-1v-1zM16,5h3v1h-3v-1zM11,5h2v1h-2v-1zM9,5h1v1h-1v-1zM6,5h1v1h-1v-1zM0,5h1v1h-1v-1zM32,4h1v1h-1v-1zM28,4h3v1h-3v-1zM26,4h1v1h-1v-1zM24,4h1v1h-1v-1zM19,4h3v1h-3v-1zM17,4h1v1h-1v-1zM14,4h2v1h-2v-1zM8,4h2v1h-2v-1zM6,4h1v1h-1v-1zM2,4h3v1h-3v-1zM0,4h1v1h-1v-1zM32,3h1v1h-1v-1zM28,3h3v1h-3v-1zM26,3h1v1h-1v-1zM18,3h7v1h-7v-1zM16,3h1v1h-1v-1zM14,3h1v1h-1v-1zM6,3h1v1h-1v-1zM2,3h3v1h-3v-1zM0,3h1v1h-1v-1zM32,2h1v1h-1v-1zM28,2h3v1h-3v-1zM26,2h1v1h-1v-1zM23,2h2v1h-2v-1zM21,2h1v1h-1v-1zM16,2h3v1h-3v-1zM12,2h3v1h-3v-1zM8,2h2v1h-2v-1zM6,2h1v1h-1v-1zM2,2h3v1h-3v-1zM0,2h1v1h-1v-1zM32,1h1v1h-1v-1zM26,1h1v1h-1v-1zM24,1h1v1h-1v-1zM22,1h1v1h-1v-1zM18,1h2v1h-2v-1zM15,1h2v1h-2v-1zM12,1h2v1h-2v-1zM6,1h1v1h-1v-1zM0,1h1v1h-1v-1zM26,0h7v1h-7v-1zM24,0h1v1h-1v-1zM21,0h2v1h-2v-1zM18,0h1v1h-1v-1zM13,0h2v1h-2v-1zM11,0h1v1h-1v-1zM8,0h2v1h-2v-1zM0,0h7v1h-7v-1z"
	/>
</svg>
