<?xml version="1.0" encoding="UTF-8" standalone="no"?>
<!-- Created with Inkscape (http://www.inkscape.org/) -->

<svg
   version="1.1"
   id="svg2"
   width="421.33334"
   height="174.66667"
   viewBox="0 0 421.33334 174.66667"
   sodipodi:docname="BBGEngineering_white.eps"
   xmlns:inkscape="http://www.inkscape.org/namespaces/inkscape"
   xmlns:sodipodi="http://sodipodi.sourceforge.net/DTD/sodipodi-0.dtd"
   xmlns="http://www.w3.org/2000/svg"
   xmlns:svg="http://www.w3.org/2000/svg">
  <defs
     id="defs6" />
  <sodipodi:namedview
     id="namedview4"
     pagecolor="#ffffff"
     bordercolor="#000000"
     borderopacity="0.25"
     inkscape:showpageshadow="2"
     inkscape:pageopacity="0.0"
     inkscape:pagecheckerboard="0"
     inkscape:deskcolor="#d1d1d1" />
  <g
     id="g8"
     inkscape:groupmode="layer"
     inkscape:label="ink_ext_XXXXXX"
     transform="matrix(1.3333333,0,0,-1.3333333,0,174.66667)">
    <g
       id="g10"
       transform="scale(0.1)">
      <path
         d="m 853.219,246.18 c -12.051,0 -21.293,-3.942 -27.731,-11.809 -6.429,-7.883 -10.023,-17.793 -10.761,-29.762 h 72.308 c 0,12.129 -2.578,22.102 -7.75,29.879 -5.16,7.793 -13.851,11.692 -26.066,11.692"
         style="fill:#ffffff;fill-opacity:1;fill-rule:nonzero;stroke:none"
         id="path12" />
      <path
         d="m 450.375,245.191 c -11.23,0 -19.961,-4.109 -26.191,-12.293 -6.239,-8.199 -9.348,-20.589 -9.348,-37.136 0,-16.973 2.953,-29.481 8.852,-37.524 5.906,-8.027 14.464,-12.039 25.707,-12.039 7.128,0 13.402,1.332 18.812,4 5.406,2.66 10.039,5.711 13.898,9.16 v 73.77 c -5.582,4.031 -10.871,7.043 -15.871,9.051 -5,2.011 -10.289,3.011 -15.859,3.011"
         style="fill:#ffffff;fill-opacity:1;fill-rule:nonzero;stroke:none"
         id="path14" />
      <path
         d="m 994.156,246.18 c -12.062,0 -21.301,-3.942 -27.738,-11.809 -6.434,-7.883 -10.023,-17.793 -10.766,-29.762 h 72.308 c 0,12.129 -2.57,22.102 -7.74,29.879 -5.16,7.793 -13.85,11.692 -26.064,11.692"
         style="fill:#ffffff;fill-opacity:1;fill-rule:nonzero;stroke:none"
         id="path16" />
      <path
         d="m 1581.46,144.469 c 0.07,-25.239 -6.05,-43.571 -18.39,-54.9573 -12.34,-11.4023 -29.74,-17.0898 -52.21,-17.0898 -5.89,0 -11.85,0.5078 -17.82,1.5273 -5.98,1.0313 -12.3,2.4414 -18.94,4.2305 v 22.1483 h 5.54 c 3.6,-2.3788 8.25,-4.5077 13.94,-6.3866 5.71,-1.8906 12.41,-2.8398 20.12,-2.8398 14.35,0 25.35,3.1875 33.01,9.5274 7.67,6.359 11.51,18.109 11.51,35.242 v 6.758 c -3.79,-3.848 -9.05,-7.457 -15.81,-10.82 -6.77,-3.36 -14.16,-5.039 -22.2,-5.039 -16.39,0 -29.3,5.878 -38.74,17.64 -9.42,11.77 -14.14,28.879 -14.14,51.352 0,21.398 5.11,38.34 15.32,50.847 10.21,12.5 23.06,18.75 38.55,18.75 7.21,0 13.73,-1.187 19.55,-3.558 5.82,-2.391 11.55,-5.91 17.21,-10.582 l 2.84,10.32 h 20.66 z M 1440.9,119.762 h -23.24 v 93.09 c 0,12.218 -2.05,20.617 -6.16,25.207 -4.09,4.589 -10.93,6.89 -20.52,6.89 -5.83,0 -11.4,-1.09 -16.73,-3.258 -5.33,-2.171 -11.08,-5.472 -17.21,-9.902 V 119.762 h -23.5 v 141.777 h 20.66 l 3.32,-11.801 c 6.65,5.903 13.27,9.981 19.87,12.231 6.59,2.261 13.42,3.39 20.47,3.39 14.19,0 24.9,-4.211 32.15,-12.609 7.27,-8.398 10.89,-20.762 10.89,-37.078 z m -139.26,0 h -86.94 v 18.437 h 34.56 v 105.02 h -28.78 v 18.32 h 51.88 v -123.34 h 29.28 z M 1190.3,237.941 h -6.4 c -1.16,0.641 -2.36,1.329 -3.64,2.028 -1.27,0.679 -2.74,1.332 -4.42,1.902 -1.67,0.578 -3.62,1.07 -5.84,1.481 -2.21,0.41 -4.87,0.609 -7.99,0.609 -4.34,0 -8.43,-0.859 -12.23,-2.582 -3.82,-1.719 -7.43,-3.867 -10.82,-6.449 -3.41,-2.598 -6.62,-5.399 -9.6,-8.442 -2.99,-3.019 -5.81,-5.859 -8.42,-8.468 v -79.821 h 28.27 v -18.437 h -73.28 v 18.437 h 21.89 v 105.02 h -21.89 v 18.32 h 41.57 l 3.18,-24.711 c 3.21,3.613 6.61,7.113 10.22,10.512 3.61,3.398 7.25,6.441 10.94,9.109 3.69,2.66 7.37,4.813 11.07,6.449 3.69,1.641 7.26,2.461 10.69,2.461 5.58,0 10.57,-0.347 14.94,-1.039 4.39,-0.711 8.31,-1.621 11.76,-2.781 z M 1050.35,187.27 h -94.936 c 0,-17.301 4.473,-30.192 13.402,-38.68 8.938,-8.481 20.661,-12.719 35.164,-12.719 7.71,0 15.19,1.231 22.46,3.688 7.25,2.461 12.85,5.23 16.78,8.363 h 5.9 v -21.41 c -8.04,-3.364 -16.02,-5.91 -23.98,-7.672 -7.95,-1.762 -15.86,-2.649 -23.73,-2.649 -20.414,0 -37.101,5.95 -50.055,17.821 -12.949,11.898 -19.429,30.308 -19.429,55.226 0,24.344 5.84,43.114 17.515,56.321 11.696,13.203 26.754,19.8 45.207,19.8 18.272,0 32.132,-5.699 41.562,-17.089 9.42,-11.399 14.14,-26.692 14.14,-45.879 z m -140.936,0 h -94.926 c 0,-17.301 4.457,-30.192 13.399,-38.68 8.929,-8.481 20.66,-12.719 35.172,-12.719 7.707,0 15.187,1.231 22.437,3.688 7.258,2.461 12.848,5.23 16.789,8.363 h 5.899 v -21.41 c -8.028,-3.364 -16.028,-5.91 -23.981,-7.672 -7.949,-1.762 -15.859,-2.649 -23.723,-2.649 -20.421,0 -37.105,5.95 -50.054,17.821 -12.961,11.898 -19.43,30.308 -19.43,55.226 0,24.344 5.84,43.114 17.52,56.321 11.679,13.203 26.75,19.8 45.191,19.8 18.289,0 32.137,-5.699 41.566,-17.089 9.434,-11.399 14.141,-26.692 14.141,-45.879 z M 763.785,119.762 h -23.238 v 93.09 c 0,12.218 -2.051,20.617 -6.152,25.207 -4.098,4.589 -10.938,6.89 -20.54,6.89 -5.82,0 -11.39,-1.09 -16.714,-3.258 -5.332,-2.171 -11.078,-5.472 -17.223,-9.902 V 119.762 h -23.48 v 141.777 h 20.656 l 3.32,-11.801 c 6.641,5.903 13.262,9.981 19.859,12.231 6.59,2.261 13.422,3.39 20.473,3.39 14.18,0 24.899,-4.211 32.16,-12.609 7.25,-8.398 10.879,-20.762 10.879,-37.078 z m -139.258,0 H 537.59 v 18.437 h 34.551 v 105.02 h -28.778 v 18.32 h 51.891 v -123.34 h 29.273 z m -119.179,24.707 c 0.078,-25.239 -6.051,-43.571 -18.391,-54.9573 -12.344,-11.4023 -29.738,-17.0898 -52.199,-17.0898 -5.903,0 -11.852,0.5078 -17.832,1.5273 -5.988,1.0313 -12.301,2.4414 -18.938,4.2305 v 22.1483 h 5.535 c 3.602,-2.3788 8.254,-4.5077 13.954,-6.3866 5.699,-1.8906 12.402,-2.8398 20.113,-2.8398 14.344,0 25.344,3.1875 33.015,9.5274 7.661,6.359 11.5,18.109 11.5,35.242 v 6.758 c -3.781,-3.848 -9.039,-7.457 -15.812,-10.82 -6.758,-3.36 -14.152,-5.039 -22.188,-5.039 -16.402,0 -29.308,5.878 -38.738,17.64 -9.429,11.77 -14.14,28.879 -14.14,51.352 0,21.398 5.101,38.34 15.312,50.847 10.207,12.5 23.055,18.75 38.551,18.75 7.207,0 13.726,-1.187 19.551,-3.558 5.812,-2.391 11.554,-5.91 17.214,-10.582 l 2.833,10.32 h 20.66 z M 364.785,119.762 h -23.238 v 93.09 c 0,12.218 -2.051,20.617 -6.152,25.207 -4.102,4.589 -10.938,6.89 -20.532,6.89 -5.824,0 -11.394,-1.09 -16.726,-3.258 -5.328,-2.171 -11.071,-5.472 -17.207,-9.902 V 119.762 h -23.492 v 141.777 h 20.66 l 3.316,-11.801 c 6.645,5.903 13.266,9.981 19.859,12.231 6.602,2.261 13.422,3.39 20.473,3.39 14.184,0 24.899,-4.211 32.16,-12.609 7.262,-8.398 10.879,-20.762 10.879,-37.078 z M 231.824,288.73 H 149.68 v -56.941 h 78.086 V 211.738 H 149.68 V 139.93 h 82.144 V 119.762 H 125.691 v 188.879 h 106.133 z m 334.289,35.782 h 28.164 V 293.27 h -28.164 z m 677.117,0 h 28.16 V 293.27 h -28.16 z M 55,372.754 V 47.5 H 1648.21 V 372.754 H 55"
         style="fill:#ffffff;fill-opacity:1;fill-rule:nonzero;stroke:none"
         id="path18" />
      <path
         d="m 1526.48,245.191 c -11.23,0 -19.96,-4.109 -26.18,-12.293 -6.24,-8.199 -9.35,-20.589 -9.35,-37.136 0,-16.973 2.95,-29.481 8.84,-37.524 5.92,-8.027 14.48,-12.039 25.72,-12.039 7.13,0 13.4,1.332 18.81,4 5.41,2.66 10.04,5.711 13.9,9.16 v 73.77 c -5.58,4.031 -10.88,7.043 -15.88,9.051 -5,2.011 -10.28,3.011 -15.86,3.011"
         style="fill:#ffffff;fill-opacity:1;fill-rule:nonzero;stroke:none"
         id="path20" />
      <path
         d="m 135.145,1006.07 h 76.421 c 64.407,0 94.727,-16.492 94.727,-63.527 0,-59.105 -56.84,-66.094 -97.895,-66.094 H 135.145 Z M 55.5625,807.828 H 216.609 c 84.621,0 169.254,30.488 169.254,128.363 0,57.797 -40.414,102.309 -96.629,108.639 v 1.29 c 46.102,13.96 77.68,47.63 77.68,98.49 0,81.96 -69.473,113.09 -137.043,113.09 H 55.5625 Z m 79.5825,381.252 h 65.671 c 60.008,0 86.528,-19.06 86.528,-57.82 0,-33.68 -26.52,-56.56 -79.571,-56.56 h -72.628 v 114.38"
         style="fill:#ffffff;fill-opacity:1;fill-rule:nonzero;stroke:none"
         id="path22" />
      <path
         d="m 437.82,1268.35 h 75.785 V 807.828 H 437.82 v 460.522"
         style="fill:#ffffff;fill-opacity:1;fill-rule:nonzero;stroke:none"
         id="path24" />
      <path
         d="m 564.277,960.332 c 0,-95.969 73.25,-160.137 164.848,-160.137 91.559,0 164.816,64.168 164.816,160.137 0,95.948 -73.257,160.118 -164.816,160.118 -91.598,0 -164.848,-64.17 -164.848,-160.118 m 75.786,0 c 0,47.658 33.468,91.488 89.062,91.488 55.563,0 89.027,-43.83 89.027,-91.488 0,-47.664 -33.464,-91.516 -89.027,-91.516 -55.594,0 -89.062,43.852 -89.062,91.516"
         style="fill:#ffffff;fill-opacity:1;fill-rule:nonzero;stroke:none"
         id="path26" />
      <path
         d="m 928.203,960.332 c 0,-95.969 73.257,-160.137 164.837,-160.137 91.56,0 164.83,64.168 164.83,160.137 0,95.948 -73.27,160.118 -164.83,160.118 -91.58,0 -164.837,-64.17 -164.837,-160.118 m 75.777,0 c 0,47.658 33.49,91.488 89.06,91.488 55.57,0 89.04,-43.83 89.04,-91.488 0,-47.664 -33.47,-91.516 -89.04,-91.516 -55.57,0 -89.06,43.852 -89.06,91.516"
         style="fill:#ffffff;fill-opacity:1;fill-rule:nonzero;stroke:none"
         id="path28" />
      <path
         d="m 1304.14,1112.84 h 71.98 v -47.66 h 1.25 c 13.27,28.57 42.33,55.28 92.85,55.28 46.74,0 78.95,-18.43 94.74,-56.57 22.1,38.79 54.29,56.57 99.77,56.57 80.85,0 109.25,-57.82 109.25,-130.886 V 807.828 h -75.79 v 172.82 c 0,38.142 -11.35,71.172 -56.19,71.172 -47.36,0 -65.06,-39.39 -65.06,-78.769 V 807.828 h -75.76 v 181.746 c 0,37.476 -15.18,62.246 -51.8,62.246 -49.89,0 -69.46,-36.86 -69.46,-77.527 V 807.828 h -75.78 v 305.012"
         style="fill:#ffffff;fill-opacity:1;fill-rule:nonzero;stroke:none"
         id="path30" />
      <path
         d="m 1835.41,807.82 h 71.99 v 45.758 h 1.27 c 22.12,-36.84 61.9,-53.383 104.22,-53.383 93.46,0 149.66,69.899 149.66,160.137 0,90.208 -60,160.128 -146.51,160.128 -56.84,0 -87.16,-26.71 -102.93,-46.39 h -1.91 v 194.27 h -75.79 z m 251.36,152.512 c 0,-47.664 -33.48,-91.508 -89.05,-91.508 -55.56,0 -89.05,43.844 -89.05,91.508 0,47.658 33.49,91.488 89.05,91.488 55.57,0 89.05,-43.83 89.05,-91.488"
         style="fill:#ffffff;fill-opacity:1;fill-rule:nonzero;stroke:none"
         id="path32" />
      <path
         d="m 2503.75,933.656 v 20.938 c 0,106.096 -57.47,165.866 -142.11,165.866 -91.57,0 -164.83,-64.19 -164.83,-160.128 0,-95.969 73.26,-160.137 164.83,-160.137 48,0 92.83,17.188 128.2,61.012 l -54.3,41.281 c -18.93,-23.504 -43.58,-41.281 -81.47,-41.281 -42.31,0 -76.41,27.293 -81.47,72.449 z m -231.15,57.157 c 5.69,43.857 33.47,72.447 78.32,72.447 47.35,0 76.4,-27.95 77.03,-72.447 H 2272.6"
         style="fill:#ffffff;fill-opacity:1;fill-rule:nonzero;stroke:none"
         id="path34" />
      <path
         d="m 2553.16,1112.84 h 75.77 v -48.3 h 1.28 c 16.42,34.94 49.89,55.92 89.68,55.92 9.49,0 18.32,-1.92 27.14,-4.45 v -73.72 c -12.63,3.19 -24.63,5.72 -36.61,5.72 -71.37,0 -81.49,-60.377 -81.49,-76.893 V 807.828 h -75.77 v 305.012"
         style="fill:#ffffff;fill-opacity:1;fill-rule:nonzero;stroke:none"
         id="path36" />
      <path
         d="m 3006.25,1112.84 v -45.77 h -1.26 c -22.1,36.86 -61.89,53.39 -104.21,53.39 -93.49,0 -149.68,-69.93 -149.68,-160.132 0,-86.41 60,-156.324 150.93,-156.324 37.89,0 77.05,14.609 99.17,44.473 h 1.25 V 826.23 c 0,-60.367 -22.74,-102.277 -95.98,-102.277 -42.33,0 -73.89,15.871 -104.22,43.856 l -45.47,-62.286 c 42.95,-38.14 94.1,-50.191 150.32,-50.191 118.1,0 171.14,69.883 171.14,179.805 v 277.703 z m -89.69,-61.02 c 54.95,0 89.69,-36.86 89.69,-89.574 0,-50.875 -34.1,-89.617 -90.31,-89.617 -51.16,0 -89.05,40.039 -89.05,88.328 0,54.003 36.63,90.863 89.67,90.863"
         style="fill:#ffffff;fill-opacity:1;fill-rule:nonzero;stroke:none"
         id="path38" />
    </g>
  </g>
</svg>
