<svg xmlns="http://www.w3.org/2000/svg" fill="none" viewBox="0 0 200 19" height="19" width="200">
<g clip-path="url(#clip0_1_7345)">
<path fill="white" d="M100.333 18.6517V14.6553H117.079V11.2692H104.001L99.5024 7.96824V3.30095L104.001 0H120.034V3.99637H103.705V7.27282H116.782L121.28 10.5726V15.3519L116.782 18.6517H100.333Z"></path>
<path fill="white" d="M45.8147 18.6517L37.5979 5.10486L29.3677 18.6517H24.5154L35.8415 0H39.3409L50.6669 18.6517H45.8147Z"></path>
<path fill="white" d="M58.5403 18.6517V3.99637H49.752V0H71.5296V3.99637H62.7413V18.6517H58.5403Z"></path>
<path fill="white" d="M134.257 18.6517V3.99637H125.469V0H147.248V3.99637H138.46V18.6517H134.257Z"></path>
<path fill="white" d="M0 18.6517V0H17.2798L21.7789 3.30095V15.3519L17.2798 18.6529H0V18.6517ZM17.5767 14.6553V3.99637H4.20098V14.6553H17.5767Z"></path>
<path fill="white" d="M174.845 18.6517L180.507 9.32643L174.845 0H179.697L185.362 9.32643L179.697 18.6517H174.845Z"></path>
<path fill="white" d="M195.188 18.6517L189.521 9.32643L195.188 0H200.039L194.376 9.32643L200.039 18.6517H195.188Z"></path>
<path fill="white" d="M91.9138 18.6517L83.6835 5.10486L75.4656 18.6517H70.6133L81.9394 0H85.4388L96.7648 18.6517H91.9138Z"></path>
<path fill="white" d="M167.631 18.6517L159.402 5.10486L151.184 18.6517H146.332L157.658 0H161.157L172.483 18.6517H167.631Z"></path>
</g>
<defs>
<clipPath id="clip0_1_7345">
<rect fill="white" height="18.6529" width="200"></rect>
</clipPath>
</defs>
</svg>
