<svg width="1383.7" height="500" version="1.1" viewBox="0 0 1383.7 500" xmlns="http://www.w3.org/2000/svg" xmlns:xlink="http://www.w3.org/1999/xlink">
 <!-- Copyright &#169; 2023 Igalia, S.L. All rights reserved. -->
 <defs>
  <linearGradient id="linearGradient4252" x1="25.133" x2="147.37" y1="142.28" y2="142.28" gradientUnits="userSpaceOnUse" xlink:href="#redGradient"/>
  <linearGradient id="redGradient" x1="25.133" x2="147.37" y1="142.28" y2="142.28" gradientUnits="userSpaceOnUse">
   <stop stop-color="#f00" offset="0"/>
   <stop stop-color="#670164" offset="1"/>
  </linearGradient>
  <linearGradient id="linearGradient4254" x1="1765.1" x2="1887.3" y1="692.72" y2="692.72" gradientTransform="rotate(-90,680.97,1231.6)" gradientUnits="userSpaceOnUse" xlink:href="#orangeGradient"/>
  <linearGradient id="orangeGradient" x1="1765.1" x2="1887.3" y1="692.72" y2="692.72" gradientTransform="rotate(-90,680.97,1231.6)" gradientUnits="userSpaceOnUse">
   <stop stop-color="#ff9" offset="0"/>
   <stop stop-color="#f90" offset="1"/>
  </linearGradient>
  <linearGradient id="linearGradient4256" x1="1214.6" x2="1336.8" y1="2432.8" y2="2432.8" gradientTransform="rotate(180,680.97,1231.6)" gradientUnits="userSpaceOnUse" xlink:href="#blueGradient"/>
  <linearGradient id="blueGradient" x1="1214.6" x2="1336.8" y1="2432.8" y2="2432.8" gradientTransform="rotate(180,680.97,1231.6)" gradientUnits="userSpaceOnUse">
   <stop stop-color="#bfe7e5" offset="0"/>
   <stop stop-color="#0067b1" offset="1"/>
  </linearGradient>
  <linearGradient id="linearGradient4258" x1="-525.38" x2="-403.14" y1="1882.1" y2="1882.1" gradientTransform="rotate(90,680.97,1231.6)" gradientUnits="userSpaceOnUse" xlink:href="#greenGradient"/>
  <linearGradient id="greenGradient" x1="-525.38" x2="-403.14" y1="1882.1" y2="1882.1" gradientTransform="rotate(90,680.97,1231.6)" gradientUnits="userSpaceOnUse">
   <stop stop-color="#ff0" offset="0"/>
   <stop stop-color="#a1c22d" offset="1"/>
  </linearGradient>
 </defs>
 <g transform="matrix(1.3261 0 0 1.3261 -774.39 -108.91)">
  <path d="m771.05 85.937c-49.401 0-89.713 19.83-117.59 43.093-.20575.17147-.39677.36347-.60135.5349-.74659.62913-1.4765 1.2378-2.2048 1.8708-1.2326 1.0674-2.4908 2.1242-3.6747 3.2071-1.2217 1.1194-2.3098 2.28-3.4744 3.4074-.68052.65808-1.4087 1.2749-2.0712 1.9376-.65868.65929-1.2832 1.3943-1.9376 2.0712-.41415.42867-.85732.83439-1.2695 1.2694-.65906.69553-1.3487 1.3561-2.0044 2.0712-.0543.0604-.0797.14128-.13353.20046-1.7281 1.8895-3.4484 3.8535-5.1446 5.8797-.29075.34896-.57946.71726-.86866 1.0686-1.4746 1.7887-2.903 3.5886-4.343 5.4787-1.4685 1.9277-2.919 3.9151-4.343 5.9462-.18561.26686-.34994.53373-.53456.80177-17.443 25.15-31.1 58.014-32.875 96.678-.0567 1.2267-.10143 2.4365-.13355 3.6746-.0809 2.2877-.13355 4.6245-.13355 6.9485 0 46.015 16.998 83.915 38.082 111.38 1.544 2.0111 3.0942 3.982 4.6771 5.8797.17086.20526.3632.39726.53445.60135.75418.89595 1.5106 1.7353 2.2717 2.6057.93809 1.0771 1.8555 2.1671 2.8062 3.207 1.1227 1.225 2.276 2.3728 3.4074 3.5411.65422.67621 1.279 1.4126 1.9376 2.0712.65879.65808 1.3946 1.283 2.0712 1.9375 1.1033 1.0686 2.1862 2.1457 3.3407 3.2071.47251.43346.98969.83798 1.4699 1.2694 3.3933 3.0538 6.9478 6.0834 10.757 9.02.40115.30802.79731.63029 1.2026.93579 26.599 20.167 62.89 36.529 106.5 37.548 2.1166.0726 4.2655.13417 6.4141.13417 49.669-.002 90.17-20.058 118.06-43.498.13511-.10884.26615-.22109.40088-.33448 1.9308-1.6318 3.7381-3.2857 5.5456-4.9443.0592-.0484.14127-.0847.20031-.13417 1.1588-1.0662 2.2336-2.2009 3.3407-3.2738.67645-.65445 1.4126-1.2794 2.0712-1.9377.6628-.66291 1.2788-1.39 1.9376-2.0712 1.1278-1.1652 2.2877-2.2525 3.4074-3.4744 2.6302-2.8771 5.2232-5.9927 7.7505-9.1534 21.622-26.912 39.733-64.693 40.826-110.58.07-2.116.13357-4.2662.13357-6.4141 0-42.371-14.643-78.068-33.473-104.96-.18463-.26566-.34896-.53733-.53457-.80178-3.0777-4.3498-6.2342-8.421-9.4875-12.294-.11229-.13402-.22144-.26686-.33399-.40088-1.632-1.9321-3.2858-3.8036-4.9443-5.6125-.0543-.0604-.0797-.14128-.13353-.20047-1.0659-1.1592-2.2009-2.233-3.2738-3.3406-.65505-.67621-1.2785-1.4123-1.9376-2.0712-.65868-.65807-1.3948-1.2831-2.0712-1.9377-.4306-.41657-.83099-.8537-1.2694-1.2694-.67584-.64118-1.3116-1.3016-2.0044-1.9376-.0809-.0725-.18656-.1268-.26747-.20042-1.8044-1.6499-3.6285-3.2652-5.5456-4.8774-.13103-.10866-.26902-.2234-.40089-.33448-.10748-.0845-.22593-.17752-.33399-.26687-26.234-21.988-63.585-40.818-109.2-42.927-1.07-.06036-2.1286-.0966-3.2071-.13402-.13357-.0033-.26709.0031-.40089 0-2.292-.08455-4.6162-.13402-6.9485-.13402zm1.4031 84.788c21.098 15.433 40.111 32.287 53.517 45.701 13.554 13.554 30.677 32.836 46.302 54.254-15.6 21.391-32.693 40.648-46.234 54.186-13.487 13.484-32.68 30.454-53.921 45.969-21.263-15.501-40.395-32.413-53.88-45.905-13.498-13.491-30.527-32.74-46.102-54.054 15.558-21.201 32.609-40.3 46.102-53.785 13.555-13.555 32.819-30.694 54.186-46.366z" fill="#fff" stroke-width="3.1948"/>
  <g transform="matrix(2.1381 0 0 2.1381 587.72 85.937)">
   <path d="m25.133 147.53c20.229 20.221 66.438-15.891 86.329-35.777 9.527 9.531 25.533 25.377 35.91 35.758-13.47 13.46-34.92 25.26-61.6 25.26-26.681 0-47.707-12.31-60.637-25.24z" fill="url(#linearGradient4252)"/>
   <path d="m147.37 147.51c20.23-20.227-16.041-66.597-35.928-86.484 9.527-9.531 25.529-25.381 35.904-35.761 13.479 13.477 25.28 34.927 25.28 61.606 0 26.678-12.323 47.704-25.256 60.639z" fill="url(#linearGradient4254)"/>
   <path d="m147.35 25.265c-20.23-20.23-66.418 16.197-86.302 36.084-9.529-9.528-25.557-25.687-35.934-36.062 13.466-13.469 34.92-25.269 61.601-25.269 26.68 0 47.702 12.314 60.633 25.247z" fill="url(#linearGradient4256)"/>
   <path d="m25.114 25.288c-20.227 20.225 16.048 66.593 35.934 86.482-9.534 9.53-25.535 25.38-35.915 35.76-13.467-13.47-25.112-34.77-25.112-61.449 0-26.68 12.159-47.865 25.093-60.793z" fill="url(#linearGradient4258)"/>
  </g>
  <g transform="matrix(2.1381 0 0 2.1381 587.72 85.937)" style="mix-blend-mode:multiply">
   <path d="m147.37 147.51c-20.223 20.229-66.438-15.846-86.324-35.74-9.534 9.531-25.535 25.381-35.915 35.76 13.474 13.469 34.926 25.27 61.608 25.27 26.674-.001 47.705-12.358 60.631-25.29z" fill="url(#linearGradient4252)"/>
   <path d="m147.35 25.265c20.229 20.228-15.998 66.601-35.887 86.487 9.537 9.539 25.533 25.377 35.91 35.758 13.471-13.479 25.272-34.928 25.272-61.603 0-26.679-12.36-47.707-25.29-60.642z" fill="url(#linearGradient4254)"/>
   <path d="m25.114 25.288c20.229-20.223 66.443 15.847 86.326 35.738 9.53-9.533 25.53-25.381 35.91-35.761-13.47-13.468-34.92-25.265-61.603-25.265-26.681 0-47.699 12.359-60.633 25.288z" fill="url(#linearGradient4256)"/>
   <path d="M 25.133,147.53 C 4.904,127.3 41.156,81.231 61.048,61.35 51.516,51.813 35.493,35.666 25.114,25.288 11.643,38.761 0,60.37 0,87.049 0,113.72 12.204,134.6 25.133,147.53 Z" fill="url(#linearGradient4258)"/>
  </g>
  <g transform="matrix(3.7794 0 0 3.7794 582.71 20.67)" fill="#fff" stroke-width=".84532">
   <path d="m133.47 44.356c0 4.2291-1.2198 4.9451-5.0871 4.9451-3.9451 0-5.1615-.71599-5.1615-4.9451 0-3.798 1.2164-4.3703 5.1615-4.3703 3.8665 0 5.0871.57228 5.0871 4.3703zm-.71937 37.039c0 5.6425 2.7219 8.6104 2.7219 8.6104s-3.612 2.8487-6.3948 2.8487c-3.6577 0-5.2139-6.5707-5.2139-9.2875v-28.389h8.8877c-.00084-.000846-.00084 20.579-.00084 26.218z"/>
   <path d="m239.48 44.356c0 4.2291-1.2198 4.9451-5.0897 4.9451-3.9434 0-5.1598-.71599-5.1598-4.9451 0-3.798 1.2164-4.3703 5.1598-4.3703 3.8699 0 5.0897.57228 5.0897 4.3703zm-.71937 37.039c0 5.6425 2.7186 8.6104 2.7186 8.6104s-3.6104 2.8487-6.3923 2.8487c-3.656 0-5.2148-6.5707-5.2148-9.2875v-28.389h8.8885v26.218z"/>
   <path d="m153.1 92.517c-10.034 0-15.338-4.1581-15.338-18.995 0-14.905 5.5191-19.42 17.558-19.42 3.8733 0 8.5766.56129 12.347 1.563 3.8792 1.0321 3.5639 4.2444 3.5639 4.2444v28.947c0 14.26-7.9528 17.419-19.491 17.419-2.8005 0-6.2325-.37955-9.1168-1.0752-3.7651-.91041-2.4075-6.3027-2.4075-6.3027l.48521-1.9392c3.3678 1.0744 7.5233 1.7904 10.965 1.7904 6.7397 0 10.678-1.8665 10.678-8.5994-2.0034 1.2164-5.0871 2.3677-9.2427 2.3677zm9.2436-28.202s.19358-1.8141-2.1725-2.3314c-1.6129-.3525-3.3458-.57059-4.8504-.57059-6.3036 0-8.3822 1.6467-8.3822 12.038 0 9.1016 1.9324 11.397 8.1666 11.397 3.9417 0 7.2385-1.2215 7.2385-3.4405z"/>
   <path d="m223.05 45.387v36.019c0 3.5098.78953 5.9485 2.7946 8.6003 0 0-6.8488 5.618-9.4726 1.0862-1.4159-2.4396-2.2105-5.3526-2.2105-9.3289v-41.853h3.6687c5.6188.000845 5.2198 5.476 5.2198 5.476z"/>
   <path d="m275.43 86.664s0 3.2232-3.7186 4.3086c-4.0728 1.1877-8.9257 1.6839-12.765 1.6839-11.535 0-15.409-2.6492-15.409-12.181 0-10.321 5.8065-11.969 14.334-11.969 3.0829 0 5.9494.35504 9.0306 1.0017 0-6.3746-1.5047-7.9528-9.1032-7.9528-2.1243 0-4.2503.18682-6.2199.54946-5.1539.94-5.7203-2.7659-5.7203-2.7659l-.74473-3.301c1.9831-.52156 4.4236-1.0254 7.05-1.3897 2.4168-.33306 4.9916-.54523 7.5014-.54523 10.82 0 15.764 3.2951 15.764 14.19v18.371zm-8.5284-3.7769v-7.3577c-2.0068-.43111-4.5876-.64498-7.2368-.64498-5.0178 0-6.8124.57482-6.8124 5.2308 0 4.9443 1.3618 5.7346 6.7397 5.7346 1.8656 0 3.7744-.26458 5.4751-.68217 1.8851-.44633 1.8343-2.2807 1.8343-2.2807z"/>
   <path d="m208.07 86.664s.002 3.2232-3.7186 4.3086c-4.0702 1.1877-8.9224 1.6839-12.765 1.6839-11.536 0-15.406-2.6492-15.406-12.181 0-10.321 5.8014-11.969 14.331-11.969 3.0829 0 5.9502.35504 9.0306 1.0017 0-6.3746-1.503-7.9528-9.1016-7.9528-2.1226 0-4.2477.18682-6.2216.54946-5.1539.94-5.7169-2.7659-5.7169-2.7659l-.74642-3.301c1.9764-.52156 4.4202-1.0254 7.05-1.3897 2.4151-.33306 4.9899-.54523 7.4997-.54523 10.82 0 15.764 3.2951 15.764 14.19v18.371zm-8.5284-3.7769v-7.3577c-2.0068-.43111-4.5867-.64498-7.2368-.64498-5.0178 0-6.8099.57482-6.8099 5.2308 0 4.9443 1.361 5.7346 6.7364 5.7346 1.8682 0 3.7769-.26458 5.476-.68217 1.8859-.44633 1.8344-2.2807 1.8344-2.2807z"/>
  </g>
 </g>
 <circle cx="250" cy="250" r="245" stroke="#0A3C5C" stroke-width="3" fill="transparent" />
</svg>
