<svg width="1383.8" height="500" version="1.1" viewBox="0 0 1383.8 500" xmlns="http://www.w3.org/2000/svg" xmlns:xlink="http://www.w3.org/1999/xlink">
 <!-- Copyright &#169; 2023 Igalia, S.L. All rights reserved. -->
 <defs>
  <linearGradient id="linearGradient4252" x1="25.133" x2="147.37" y1="142.28" y2="142.28" gradientUnits="userSpaceOnUse" xlink:href="#redGradient"/>
  <linearGradient id="redGradient" x1="25.133" x2="147.37" y1="142.28" y2="142.28" gradientUnits="userSpaceOnUse">
   <stop stop-color="#f00" offset="0"/>
   <stop stop-color="#670164" offset="1"/>
  </linearGradient>
  <linearGradient id="linearGradient4254" x1="1765.1" x2="1887.3" y1="692.72" y2="692.72" gradientTransform="rotate(-90,680.97,1231.6)" gradientUnits="userSpaceOnUse" xlink:href="#orangeGradient"/>
  <linearGradient id="orangeGradient" x1="1765.1" x2="1887.3" y1="692.72" y2="692.72" gradientTransform="rotate(-90,680.97,1231.6)" gradientUnits="userSpaceOnUse">
   <stop stop-color="#ff9" offset="0"/>
   <stop stop-color="#f90" offset="1"/>
  </linearGradient>
  <linearGradient id="linearGradient4256" x1="1214.6" x2="1336.8" y1="2432.8" y2="2432.8" gradientTransform="rotate(180,680.97,1231.6)" gradientUnits="userSpaceOnUse" xlink:href="#blueGradient"/>
  <linearGradient id="blueGradient" x1="1214.6" x2="1336.8" y1="2432.8" y2="2432.8" gradientTransform="rotate(180,680.97,1231.6)" gradientUnits="userSpaceOnUse">
   <stop stop-color="#bfe7e5" offset="0"/>
   <stop stop-color="#0067b1" offset="1"/>
  </linearGradient>
  <linearGradient id="linearGradient4258" x1="-525.38" x2="-403.14" y1="1882.1" y2="1882.1" gradientTransform="rotate(90,680.97,1231.6)" gradientUnits="userSpaceOnUse" xlink:href="#greenGradient"/>
  <linearGradient id="greenGradient" x1="-525.38" x2="-403.14" y1="1882.1" y2="1882.1" gradientTransform="rotate(90,680.97,1231.6)" gradientUnits="userSpaceOnUse">
   <stop stop-color="#ff0" offset="0"/>
   <stop stop-color="#a1c22d" offset="1"/>
  </linearGradient>
 </defs>
 <g transform="translate(-111.68 -130.2)">
  <path d="m359.8 135.26c-65.509 0-118.97 26.295-155.93 57.145-.27283.2274-.52614.48199-.79743.70933-.99003.83427-1.9579 1.6414-2.9237 2.4808-1.6345 1.4155-3.303 2.8169-4.8729 4.2529-1.6201 1.4843-3.0629 3.0234-4.6073 4.5185-.90242.87266-1.868 1.6906-2.7466 2.5694-.87345.87425-1.7016 1.849-2.5694 2.7466-.54919.56843-1.1369 1.1065-1.6834 1.6834-.87396.92232-1.7884 1.7983-2.658 2.7466-.072.0801-.10569.18734-.17707.26583-2.2915 2.5056-4.5729 5.11-6.8221 7.7969-.38555.46274-.7684.95113-1.1519 1.4171-1.9555 2.3719-3.8496 4.7587-5.7591 7.2651-1.9473 2.5562-3.8709 5.1917-5.7591 7.8851-.24613.35388-.46404.70777-.70886 1.0632-23.131 33.351-41.241 76.931-43.594 128.2-.0752 1.6267-.1345 3.231-.17709 4.8728-.10728 3.0337-.1771 6.1324-.1771 9.2142 0 61.019 22.541 111.28 50.499 147.69 2.0474 2.6668 4.1031 5.2804 6.2021 7.7969.22657.27219.48163.52678.70872.79742 1.0001 1.1881 2.0032 2.3011 3.0124 3.4553 1.244 1.4283 2.4605 2.8737 3.7212 4.2527 1.4888 1.6244 3.0181 3.1466 4.5185 4.6958.86754.89671 1.6961 1.8732 2.5694 2.7466.8736.87266 1.8493 1.7013 2.7465 2.5693 1.463 1.417 2.899 2.8454 4.43 4.2529.62658.57481 1.3124 1.1112 1.9492 1.6834 4.4998 4.0495 9.2132 8.067 14.265 11.961.53195.40847 1.0573.83582 1.5948 1.2409 35.273 26.743 83.396 48.44 141.23 49.792 2.8067.0963 5.6563.17792 8.5055.17792 65.865-.003 119.57-26.598 156.55-57.681.17916-.14434.35293-.29319.53159-.44354 2.5604-2.1639 4.957-4.3571 7.3538-6.5564.0784-.0642.18733-.11232.26562-.17792 1.5367-1.4139 2.9619-2.9185 4.43-4.3412.89702-.86785 1.8732-1.6966 2.7466-2.5695.87892-.87908 1.6958-1.8433 2.5694-2.7466 1.4955-1.5452 3.0337-2.987 4.5184-4.6073 3.4878-3.8152 6.9263-7.9467 10.278-12.138 28.673-35.687 52.689-85.787 54.138-146.63.0928-2.806.17712-5.6573.17712-8.5055 0-56.187-19.417-103.52-44.388-139.19-.24483-.35228-.46274-.71253-.70887-1.0632-4.0813-5.7681-8.267-11.167-12.581-16.302-.14891-.17772-.29365-.35389-.4429-.53161-2.1642-2.5621-4.3572-5.0439-6.5564-7.4425-.072-.0801-.10568-.18734-.17707-.26583-1.4134-1.5372-2.9186-2.9611-4.3413-4.4299-.86864-.89672-1.6953-1.8728-2.5694-2.7466-.87345-.87266-1.8496-1.7015-2.7466-2.5695-.571-.5524-1.102-1.1321-1.6834-1.6834-.89621-.85025-1.7392-1.726-2.658-2.5694-.10728-.096-.2474-.16815-.35469-.26577-2.3928-2.1879-4.8116-4.3299-7.3538-6.4677-.17375-.14409-.35673-.29626-.5316-.44356-.14253-.11205-.2996-.2354-.4429-.35387-34.788-29.157-84.319-54.128-144.81-56.924-1.4188-.0801-2.8227-.1281-4.2528-.17772-.17712-.004-.35418.004-.5316 0-3.0394-.11219-6.1214-.17772-9.2142-.17772zm1.8606 112.43c27.978 20.466 53.19 42.814 70.967 60.603 17.974 17.974 40.679 43.543 61.4 71.944-20.687 28.366-43.353 53.902-61.309 71.854-17.885 17.88-43.336 40.385-71.503 60.959-28.196-20.555-53.566-42.982-71.448-60.873-17.899-17.89-40.481-43.415-61.134-71.679 20.632-28.114 43.242-53.441 61.134-71.323 17.975-17.975 43.521-40.702 71.854-61.485z" fill="#fff" stroke-width="4.2366"/>
  <g transform="matrix(2.8352 0 0 2.8352 116.68 135.26)">
   <path d="m25.133 147.53c20.229 20.221 66.438-15.891 86.329-35.777 9.527 9.531 25.533 25.377 35.91 35.758-13.47 13.46-34.92 25.26-61.6 25.26-26.681 0-47.707-12.31-60.637-25.24z" fill="url(#linearGradient4252)"/>
   <path d="m147.37 147.51c20.23-20.227-16.041-66.597-35.928-86.484 9.527-9.531 25.529-25.381 35.904-35.761 13.479 13.477 25.28 34.927 25.28 61.606 0 26.678-12.323 47.704-25.256 60.639z" fill="url(#linearGradient4254)"/>
   <path d="m147.35 25.265c-20.23-20.23-66.418 16.197-86.302 36.084-9.529-9.528-25.557-25.687-35.934-36.062 13.466-13.469 34.92-25.269 61.601-25.269 26.68 0 47.702 12.314 60.633 25.247z" fill="url(#linearGradient4256)"/>
   <path d="m25.114 25.288c-20.227 20.225 16.048 66.593 35.934 86.482-9.534 9.53-25.535 25.38-35.915 35.76-13.467-13.47-25.112-34.77-25.112-61.449 0-26.68 12.159-47.865 25.093-60.793z" fill="url(#linearGradient4258)"/>
  </g>
  <g transform="matrix(2.8352 0 0 2.8352 116.68 135.26)" style="mix-blend-mode:multiply">
   <path d="m147.37 147.51c-20.223 20.229-66.438-15.846-86.324-35.74-9.534 9.531-25.535 25.381-35.915 35.76 13.474 13.469 34.926 25.27 61.608 25.27 26.674-.001 47.705-12.358 60.631-25.29z" fill="url(#linearGradient4252)"/>
   <path d="m147.35 25.265c20.229 20.228-15.998 66.601-35.887 86.487 9.537 9.539 25.533 25.377 35.91 35.758 13.471-13.479 25.272-34.928 25.272-61.603 0-26.679-12.36-47.707-25.29-60.642z" fill="url(#linearGradient4254)"/>
   <path d="m25.114 25.288c20.229-20.223 66.443 15.847 86.326 35.738 9.53-9.533 25.53-25.381 35.91-35.761-13.47-13.468-34.92-25.265-61.603-25.265-26.681 0-47.699 12.359-60.633 25.288z" fill="url(#linearGradient4256)"/>
   <path d="M 25.133,147.53 C 4.904,127.3 41.156,81.231 61.048,61.35 51.516,51.813 35.493,35.666 25.114,25.288 11.643,38.761 0,60.37 0,87.049 0,113.72 12.204,134.6 25.133,147.53 Z" fill="url(#linearGradient4258)"/>
  </g>
  <g transform="matrix(4.2366 0 0 4.2366 -661.32 -1836.5)" fill="#3f3f3f">
   <path d="m339.97 497.47c0 5.003-1.443 5.85-6.018 5.85-4.667 0-6.106-.847-6.106-5.85 0-4.493 1.439-5.17 6.106-5.17 4.574 0 6.018.677 6.018 5.17zm-.851 43.816c0 6.675 3.22 10.186 3.22 10.186s-4.273 3.37-7.565 3.37c-4.327 0-6.168-7.773-6.168-10.987v-33.584h10.514c-.001-.001-.001 24.345-.001 31.015z"/>
   <path d="m465.38 497.47c0 5.003-1.443 5.85-6.021 5.85-4.665 0-6.104-.847-6.104-5.85 0-4.493 1.439-5.17 6.104-5.17 4.578 0 6.021.677 6.021 5.17zm-.851 43.816c0 6.675 3.216 10.186 3.216 10.186s-4.271 3.37-7.562 3.37c-4.325 0-6.169-7.773-6.169-10.987v-33.584h10.515z"/>
   <path d="m363.2 554.44c-11.87 0-18.145-4.919-18.145-22.471 0-17.632 6.529-22.973 20.771-22.973 4.582 0 10.146.664 14.606 1.849 4.589 1.221 4.216 5.021 4.216 5.021v34.244c0 16.869-9.408 20.606-23.058 20.606-3.313 0-7.373-.449-10.785-1.272-4.454-1.077-2.848-7.456-2.848-7.456l.574-2.294c3.984 1.271 8.9 2.118 12.971 2.118 7.973 0 12.632-2.208 12.632-10.173-2.37 1.439-6.018 2.801-10.934 2.801zm10.935-33.363s.229-2.146-2.57-2.758c-1.908-.417-3.958-.675-5.738-.675-7.457 0-9.916 1.948-9.916 14.241 0 10.767 2.286 13.482 9.661 13.482 4.663 0 8.563-1.445 8.563-4.07z"/>
   <path d="m445.94 498.69v42.61c0 4.152.934 7.037 3.306 10.174 0 0-8.102 6.646-11.206 1.285-1.675-2.886-2.615-6.332-2.615-11.036v-49.511h4.34c6.647.001 6.175 6.478 6.175 6.478z"/>
   <path d="m507.91 547.52s0 3.813-4.399 5.097c-4.818 1.405-10.559 1.992-15.101 1.992-13.646 0-18.229-3.134-18.229-14.41 0-12.21 6.869-14.159 16.957-14.159 3.647 0 7.038.42 10.683 1.185 0-7.541-1.78-9.408-10.769-9.408-2.513 0-5.028.221-7.358.65-6.097 1.112-6.767-3.272-6.767-3.272l-.881-3.905c2.346-.617 5.233-1.213 8.34-1.644 2.859-.394 5.905-.645 8.874-.645 12.8 0 18.649 3.898 18.649 16.786v21.733zm-10.089-4.468v-8.704c-2.374-.51-5.427-.763-8.561-.763-5.936 0-8.059.68-8.059 6.188 0 5.849 1.611 6.784 7.973 6.784 2.207 0 4.465-.313 6.477-.807 2.23-.528 2.17-2.698 2.17-2.698z"/>
   <path d="m428.22 547.52s.002 3.813-4.399 5.097c-4.815 1.405-10.555 1.992-15.101 1.992-13.647 0-18.225-3.134-18.225-14.41 0-12.21 6.863-14.159 16.953-14.159 3.647 0 7.039.42 10.683 1.185 0-7.541-1.778-9.408-10.767-9.408-2.511 0-5.025.221-7.36.65-6.097 1.112-6.763-3.272-6.763-3.272l-.883-3.905c2.338-.617 5.229-1.213 8.34-1.644 2.857-.394 5.903-.645 8.872-.645 12.8 0 18.649 3.898 18.649 16.786v21.733zm-10.089-4.468v-8.704c-2.374-.51-5.426-.763-8.561-.763-5.936 0-8.056.68-8.056 6.188 0 5.849 1.61 6.784 7.969 6.784 2.21 0 4.468-.313 6.478-.807 2.231-.528 2.17-2.698 2.17-2.698z"/>
  </g>
 </g>
</svg>
