<svg
	width="1129"
	height="254"
	viewBox="0 0 1129 254"
	fill="none"
	xmlns="http://www.w3.org/2000/svg"
>
	<mask id="path-1-inside-1_657_114" fill="white">
		<path
			fill-rule="evenodd"
			clip-rule="evenodd"
			d="M300.761 7.22375C295.587 11.373 293 17.1817 293 24.6503C293 32.0358 295.587 37.8031 300.761 41.9523C305.936 46.1015 312.027 48.1761 319.035 48.1761C325.961 48.1761 331.991 46.0807 337.124 41.89C342.258 37.6994 344.825 31.9529 344.825 24.6503C344.825 17.1817 342.258 11.373 337.124 7.22375C331.991 3.07457 325.961 1 319.035 1C312.027 1 305.936 3.07457 300.761 7.22375ZM342.013 59.1299H295.811V182.983H342.013V59.1299ZM352.46 182.983V57.0138H393.162L395.239 70.8305C400.21 64.9387 406.2 60.6236 413.207 57.8851C419.807 55.3127 426.408 54.0264 433.008 54.0264H434.23C439.69 54.1094 444.721 54.7525 449.326 55.9558C453.929 57.159 458.309 59.1921 462.465 62.0551C466.621 64.918 470.165 68.5692 473.099 73.0088C476.032 77.4484 478.354 83.0706 480.066 89.8749C481.776 96.6799 482.633 104.439 482.633 113.152V182.983H436.553V113.401C436.553 106.181 434.882 100.891 431.541 97.5306C428.2 94.1693 424.085 92.489 419.196 92.489C413.248 92.489 408.216 94.5844 404.101 98.7754C399.986 102.966 397.928 108.961 397.928 116.762V182.983H352.46ZM491.368 57.0138V182.983H536.837V116.762C536.837 108.961 538.894 102.966 543.009 98.7754C547.124 94.5844 552.155 92.489 558.104 92.489C562.993 92.489 567.108 94.1693 570.449 97.5306C573.79 100.891 575.46 106.181 575.46 113.401V182.983H621.54V113.152C621.54 104.439 620.685 96.6799 618.973 89.8749C617.262 83.0706 614.94 77.4484 612.006 73.0088C609.073 68.5692 605.528 64.918 601.373 62.0551C597.217 59.1921 592.837 57.159 588.233 55.9558C583.629 54.7525 578.597 54.1094 573.138 54.0264H571.916C565.315 54.0264 558.715 55.3127 552.115 57.8851C545.107 60.6236 539.118 64.9387 534.148 70.8305L532.069 57.0138H491.368ZM629.689 117.7C629.689 104.837 632.764 93.4686 638.917 83.5935C645.069 73.7183 653.34 66.1876 663.729 61.0011C674.119 55.8146 685.709 53.2215 698.503 53.2215C707.14 53.2215 715.656 54.7981 724.049 57.9515L734.104 44.9752C735.457 43.2117 736.547 41.7697 737.371 40.6494L758.669 45.963L770.617 64.9221L754.605 84.2156C762.51 93.178 766.462 103.675 766.462 115.708V118.198C766.299 126.164 764.261 133.84 760.35 141.226C756.439 148.611 750.939 154.876 743.849 160.021C749.146 163.092 753.567 166.535 757.111 170.353C760.656 174.17 763.162 177.925 764.628 181.617C766.095 185.31 767.052 188.36 767.5 190.766C767.949 193.173 768.173 195.579 768.173 197.986C768.173 205.869 766.869 213.006 764.261 219.396C761.654 225.786 758.13 231.096 753.689 235.329C749.248 239.561 743.992 243.108 737.921 245.971C731.851 248.834 725.516 250.888 718.915 252.133C712.315 253.377 705.348 254 698.014 254C675.931 254 659.024 248.481 647.29 237.444C636.697 227.486 631.4 214.168 631.4 197.488C631.4 195.745 631.441 193.962 631.522 192.136H674.791V193.007C674.791 197.091 675.282 200.567 676.267 203.435L676.502 204.085C677.643 207.405 679.375 209.894 681.697 211.554C684.019 213.213 686.484 214.375 689.092 215.039C691.699 215.703 694.673 216.035 698.014 216.035C704.451 216.035 709.87 214.479 714.27 211.367C718.671 208.256 720.871 203.795 720.871 197.986C720.871 192.924 719.099 188.858 715.554 185.787C712.146 182.835 706.76 181.302 699.396 181.189L698.503 181.182C677.643 181.182 660.959 175.456 648.451 164.004C635.942 152.552 629.689 137.118 629.689 117.7ZM681.33 135.371C676.808 130.849 674.546 124.894 674.546 117.509C674.546 109.377 676.787 103.007 681.269 98.4018C685.751 93.7964 691.495 91.4933 698.503 91.4933C705.185 91.4933 710.746 94.0243 715.187 99.0864C719.628 104.149 721.848 110.289 721.848 117.509C721.848 125.475 719.608 131.574 715.126 135.807C710.644 140.039 705.103 142.155 698.503 142.155C691.577 142.155 685.853 139.893 681.33 135.371ZM773.144 120.247C773.144 111.368 774.467 103.215 777.116 95.7877C779.764 88.3606 783.309 82.1164 787.749 77.0543C792.191 71.9923 797.365 67.6979 803.273 64.1712C809.18 60.6443 815.394 58.0718 821.913 56.4537C828.431 54.8355 835.113 54.0264 841.958 54.0264C852.958 54.0264 862.96 55.8312 871.965 59.4411C880.969 63.0509 888.445 68.258 894.394 75.063C900.342 81.8673 904.457 90.1655 906.738 99.9575C907.701 104.107 908.193 108.462 908.213 113.023L908.205 114.396C908.205 120.289 907.513 126.595 906.127 133.317H819.712C821.26 138.462 824.805 142.424 830.346 145.205C835.887 147.985 841.551 149.374 847.335 149.374C859.558 149.374 870.151 145.972 879.115 139.167L901.605 164.934C894.352 171.822 885.858 177.029 876.12 180.555C866.383 184.082 856.095 185.845 845.258 185.845C835.235 185.845 825.966 184.559 817.451 181.987C808.936 179.414 801.337 175.535 794.655 170.348C787.973 165.162 782.718 158.295 778.888 149.748C775.058 141.201 773.144 131.367 773.144 120.247ZM864.815 103.194H819.957C820.527 99.294 822.422 96.0157 825.64 93.3608C828.859 90.7052 832.587 89.0868 836.824 88.5063C838.78 88.2572 840.694 88.1327 842.569 88.1327C844.851 88.1327 847.091 88.2987 849.291 88.6301C853.447 89.2944 857.012 90.9332 859.986 93.5473C862.961 96.1613 864.57 99.377 864.815 103.194ZM908.409 169.788L923.443 135.557C929.228 139.375 935.136 142.383 941.166 144.582C947.196 146.781 951.902 148.109 955.283 148.565C958.665 149.022 962.637 149.374 967.201 149.623C975.593 149.623 979.79 147.59 979.79 143.524C979.79 139.624 975.43 137.3 966.711 136.553C961.578 136.388 956.628 135.848 951.861 134.935C947.094 134.022 942.347 132.529 937.622 130.454C932.895 128.379 928.801 125.828 925.338 122.799C921.874 119.77 919.063 115.89 916.903 111.16C914.745 106.43 913.664 101.119 913.664 95.2276C913.664 87.9251 915.254 81.5352 918.432 76.0587C921.61 70.5816 925.928 66.2872 931.388 63.1753C936.847 60.0634 942.877 57.7607 949.477 56.267C956.078 54.7732 963.167 54.0264 970.745 54.0264C980.605 54.0264 989.975 55.3956 998.857 58.1341C1007.74 60.8726 1015.24 64.6068 1021.35 69.3368L1001.79 97.3435C998.646 95.3128 994.239 93.5764 988.569 92.1335L987.491 91.8669C981.623 90.3731 976.286 89.6265 971.479 89.6265H970.745C963.411 89.6265 959.744 91.7009 959.744 95.8503C959.744 97.3435 960.458 98.7128 961.884 99.9575C963.215 101.119 965.379 101.776 968.378 101.925L969.034 101.95C974.738 102.115 980.034 102.572 984.924 103.319C989.812 104.065 994.844 105.393 1000.02 107.302C1005.19 109.211 1009.61 111.659 1013.28 114.646C1016.95 117.633 1019.94 121.596 1022.26 126.533C1024.58 131.471 1025.75 137.134 1025.75 143.524C1025.75 149.582 1024.71 155.038 1022.63 159.893C1020.55 164.747 1017.72 168.792 1014.14 172.028C1010.55 175.265 1006.27 177.983 1001.3 180.182C996.331 182.381 991.096 183.958 985.596 184.912C980.095 185.867 974.29 186.344 968.178 186.344C957.178 186.344 946.177 184.87 935.177 181.925C924.177 178.978 915.254 174.933 908.409 169.788ZM1027.92 57.7607V93.7337H1047.71V137.176C1047.63 143.98 1048.33 150.079 1049.79 155.474C1051.42 161.448 1053.62 166.324 1056.39 170.1C1059.16 173.875 1062.55 176.987 1066.54 179.435C1070.53 181.883 1074.73 183.605 1079.13 184.601C1083.53 185.596 1088.3 186.095 1093.43 186.095C1107.45 186.095 1119.3 183.273 1129 177.63L1118.98 142.901C1114.58 145.806 1110.1 147.259 1105.53 147.259C1097.55 147.259 1093.43 143.192 1093.18 135.06V93.7337H1121.3V57.7607H1093.43V21.4139L1047.71 26.5174V57.7607H1027.92Z"
		/>
	</mask>
	<path
		fill-rule="evenodd"
		clip-rule="evenodd"
		d="M300.761 7.22375C295.587 11.373 293 17.1817 293 24.6503C293 32.0358 295.587 37.8031 300.761 41.9523C305.936 46.1015 312.027 48.1761 319.035 48.1761C325.961 48.1761 331.991 46.0807 337.124 41.89C342.258 37.6994 344.825 31.9529 344.825 24.6503C344.825 17.1817 342.258 11.373 337.124 7.22375C331.991 3.07457 325.961 1 319.035 1C312.027 1 305.936 3.07457 300.761 7.22375ZM342.013 59.1299H295.811V182.983H342.013V59.1299ZM352.46 182.983V57.0138H393.162L395.239 70.8305C400.21 64.9387 406.2 60.6236 413.207 57.8851C419.807 55.3127 426.408 54.0264 433.008 54.0264H434.23C439.69 54.1094 444.721 54.7525 449.326 55.9558C453.929 57.159 458.309 59.1921 462.465 62.0551C466.621 64.918 470.165 68.5692 473.099 73.0088C476.032 77.4484 478.354 83.0706 480.066 89.8749C481.776 96.6799 482.633 104.439 482.633 113.152V182.983H436.553V113.401C436.553 106.181 434.882 100.891 431.541 97.5306C428.2 94.1693 424.085 92.489 419.196 92.489C413.248 92.489 408.216 94.5844 404.101 98.7754C399.986 102.966 397.928 108.961 397.928 116.762V182.983H352.46ZM491.368 57.0138V182.983H536.837V116.762C536.837 108.961 538.894 102.966 543.009 98.7754C547.124 94.5844 552.155 92.489 558.104 92.489C562.993 92.489 567.108 94.1693 570.449 97.5306C573.79 100.891 575.46 106.181 575.46 113.401V182.983H621.54V113.152C621.54 104.439 620.685 96.6799 618.973 89.8749C617.262 83.0706 614.94 77.4484 612.006 73.0088C609.073 68.5692 605.528 64.918 601.373 62.0551C597.217 59.1921 592.837 57.159 588.233 55.9558C583.629 54.7525 578.597 54.1094 573.138 54.0264H571.916C565.315 54.0264 558.715 55.3127 552.115 57.8851C545.107 60.6236 539.118 64.9387 534.148 70.8305L532.069 57.0138H491.368ZM629.689 117.7C629.689 104.837 632.764 93.4686 638.917 83.5935C645.069 73.7183 653.34 66.1876 663.729 61.0011C674.119 55.8146 685.709 53.2215 698.503 53.2215C707.14 53.2215 715.656 54.7981 724.049 57.9515L734.104 44.9752C735.457 43.2117 736.547 41.7697 737.371 40.6494L758.669 45.963L770.617 64.9221L754.605 84.2156C762.51 93.178 766.462 103.675 766.462 115.708V118.198C766.299 126.164 764.261 133.84 760.35 141.226C756.439 148.611 750.939 154.876 743.849 160.021C749.146 163.092 753.567 166.535 757.111 170.353C760.656 174.17 763.162 177.925 764.628 181.617C766.095 185.31 767.052 188.36 767.5 190.766C767.949 193.173 768.173 195.579 768.173 197.986C768.173 205.869 766.869 213.006 764.261 219.396C761.654 225.786 758.13 231.096 753.689 235.329C749.248 239.561 743.992 243.108 737.921 245.971C731.851 248.834 725.516 250.888 718.915 252.133C712.315 253.377 705.348 254 698.014 254C675.931 254 659.024 248.481 647.29 237.444C636.697 227.486 631.4 214.168 631.4 197.488C631.4 195.745 631.441 193.962 631.522 192.136H674.791V193.007C674.791 197.091 675.282 200.567 676.267 203.435L676.502 204.085C677.643 207.405 679.375 209.894 681.697 211.554C684.019 213.213 686.484 214.375 689.092 215.039C691.699 215.703 694.673 216.035 698.014 216.035C704.451 216.035 709.87 214.479 714.27 211.367C718.671 208.256 720.871 203.795 720.871 197.986C720.871 192.924 719.099 188.858 715.554 185.787C712.146 182.835 706.76 181.302 699.396 181.189L698.503 181.182C677.643 181.182 660.959 175.456 648.451 164.004C635.942 152.552 629.689 137.118 629.689 117.7ZM681.33 135.371C676.808 130.849 674.546 124.894 674.546 117.509C674.546 109.377 676.787 103.007 681.269 98.4018C685.751 93.7964 691.495 91.4933 698.503 91.4933C705.185 91.4933 710.746 94.0243 715.187 99.0864C719.628 104.149 721.848 110.289 721.848 117.509C721.848 125.475 719.608 131.574 715.126 135.807C710.644 140.039 705.103 142.155 698.503 142.155C691.577 142.155 685.853 139.893 681.33 135.371ZM773.144 120.247C773.144 111.368 774.467 103.215 777.116 95.7877C779.764 88.3606 783.309 82.1164 787.749 77.0543C792.191 71.9923 797.365 67.6979 803.273 64.1712C809.18 60.6443 815.394 58.0718 821.913 56.4537C828.431 54.8355 835.113 54.0264 841.958 54.0264C852.958 54.0264 862.96 55.8312 871.965 59.4411C880.969 63.0509 888.445 68.258 894.394 75.063C900.342 81.8673 904.457 90.1655 906.738 99.9575C907.701 104.107 908.193 108.462 908.213 113.023L908.205 114.396C908.205 120.289 907.513 126.595 906.127 133.317H819.712C821.26 138.462 824.805 142.424 830.346 145.205C835.887 147.985 841.551 149.374 847.335 149.374C859.558 149.374 870.151 145.972 879.115 139.167L901.605 164.934C894.352 171.822 885.858 177.029 876.12 180.555C866.383 184.082 856.095 185.845 845.258 185.845C835.235 185.845 825.966 184.559 817.451 181.987C808.936 179.414 801.337 175.535 794.655 170.348C787.973 165.162 782.718 158.295 778.888 149.748C775.058 141.201 773.144 131.367 773.144 120.247ZM864.815 103.194H819.957C820.527 99.294 822.422 96.0157 825.64 93.3608C828.859 90.7052 832.587 89.0868 836.824 88.5063C838.78 88.2572 840.694 88.1327 842.569 88.1327C844.851 88.1327 847.091 88.2987 849.291 88.6301C853.447 89.2944 857.012 90.9332 859.986 93.5473C862.961 96.1613 864.57 99.377 864.815 103.194ZM908.409 169.788L923.443 135.557C929.228 139.375 935.136 142.383 941.166 144.582C947.196 146.781 951.902 148.109 955.283 148.565C958.665 149.022 962.637 149.374 967.201 149.623C975.593 149.623 979.79 147.59 979.79 143.524C979.79 139.624 975.43 137.3 966.711 136.553C961.578 136.388 956.628 135.848 951.861 134.935C947.094 134.022 942.347 132.529 937.622 130.454C932.895 128.379 928.801 125.828 925.338 122.799C921.874 119.77 919.063 115.89 916.903 111.16C914.745 106.43 913.664 101.119 913.664 95.2276C913.664 87.9251 915.254 81.5352 918.432 76.0587C921.61 70.5816 925.928 66.2872 931.388 63.1753C936.847 60.0634 942.877 57.7607 949.477 56.267C956.078 54.7732 963.167 54.0264 970.745 54.0264C980.605 54.0264 989.975 55.3956 998.857 58.1341C1007.74 60.8726 1015.24 64.6068 1021.35 69.3368L1001.79 97.3435C998.646 95.3128 994.239 93.5764 988.569 92.1335L987.491 91.8669C981.623 90.3731 976.286 89.6265 971.479 89.6265H970.745C963.411 89.6265 959.744 91.7009 959.744 95.8503C959.744 97.3435 960.458 98.7128 961.884 99.9575C963.215 101.119 965.379 101.776 968.378 101.925L969.034 101.95C974.738 102.115 980.034 102.572 984.924 103.319C989.812 104.065 994.844 105.393 1000.02 107.302C1005.19 109.211 1009.61 111.659 1013.28 114.646C1016.95 117.633 1019.94 121.596 1022.26 126.533C1024.58 131.471 1025.75 137.134 1025.75 143.524C1025.75 149.582 1024.71 155.038 1022.63 159.893C1020.55 164.747 1017.72 168.792 1014.14 172.028C1010.55 175.265 1006.27 177.983 1001.3 180.182C996.331 182.381 991.096 183.958 985.596 184.912C980.095 185.867 974.29 186.344 968.178 186.344C957.178 186.344 946.177 184.87 935.177 181.925C924.177 178.978 915.254 174.933 908.409 169.788ZM1027.92 57.7607V93.7337H1047.71V137.176C1047.63 143.98 1048.33 150.079 1049.79 155.474C1051.42 161.448 1053.62 166.324 1056.39 170.1C1059.16 173.875 1062.55 176.987 1066.54 179.435C1070.53 181.883 1074.73 183.605 1079.13 184.601C1083.53 185.596 1088.3 186.095 1093.43 186.095C1107.45 186.095 1119.3 183.273 1129 177.63L1118.98 142.901C1114.58 145.806 1110.1 147.259 1105.53 147.259C1097.55 147.259 1093.43 143.192 1093.18 135.06V93.7337H1121.3V57.7607H1093.43V21.4139L1047.71 26.5174V57.7607H1027.92Z"
		fill="#e5e7eb"
		stroke="white"
		stroke-width="8"
		mask="url(#path-1-inside-1_657_114)"
	/>
	<mask id="path-2-inside-2_657_114" fill="white">
		<path
			fill-rule="evenodd"
			clip-rule="evenodd"
			d="M119.188 2.90797L207.585 55.9971C213.644 59.6756 217.418 66.2372 217.319 73.3952V179.474C217.319 186.632 213.644 193.194 207.486 196.872L119.088 249.961C115.314 252.447 107.567 255.33 98.2304 249.961L9.83297 196.872C3.77427 193.194 0 186.632 0 179.474V73.3952C0 66.2372 3.67494 59.6756 9.83297 55.9971L98.3297 2.90797C104.786 -0.969324 112.732 -0.969324 119.188 2.90797ZM54.348 126.5C44.3428 126.5 36.2319 134.611 36.2319 144.616C36.2319 154.621 44.3428 162.732 54.348 162.732C59.1527 162.732 63.7606 160.823 67.158 157.426C70.5554 154.029 72.464 149.421 72.464 144.616C72.464 134.611 64.3532 126.5 54.348 126.5ZM108.696 108.384C98.6909 108.384 90.5801 116.495 90.5801 126.5C90.5801 136.505 98.6909 144.616 108.696 144.616C113.501 144.616 118.109 142.707 121.506 139.31C124.904 135.913 126.812 131.305 126.812 126.5C126.812 116.495 118.701 108.384 108.696 108.384ZM163.044 90.2679C153.039 90.2679 144.928 98.3787 144.928 108.384C144.928 118.389 153.039 126.5 163.044 126.5C167.849 126.5 172.457 124.591 175.854 121.194C179.252 117.797 181.16 113.189 181.16 108.384C181.16 98.3787 173.049 90.2679 163.044 90.2679Z"
		/>
	</mask>
	<path
		fill-rule="evenodd"
		clip-rule="evenodd"
		d="M119.188 2.90797L207.585 55.9971C213.644 59.6756 217.418 66.2372 217.319 73.3952V179.474C217.319 186.632 213.644 193.194 207.486 196.872L119.088 249.961C115.314 252.447 107.567 255.33 98.2304 249.961L9.83297 196.872C3.77427 193.194 0 186.632 0 179.474V73.3952C0 66.2372 3.67494 59.6756 9.83297 55.9971L98.3297 2.90797C104.786 -0.969324 112.732 -0.969324 119.188 2.90797ZM54.348 126.5C44.3428 126.5 36.2319 134.611 36.2319 144.616C36.2319 154.621 44.3428 162.732 54.348 162.732C59.1527 162.732 63.7606 160.823 67.158 157.426C70.5554 154.029 72.464 149.421 72.464 144.616C72.464 134.611 64.3532 126.5 54.348 126.5ZM108.696 108.384C98.6909 108.384 90.5801 116.495 90.5801 126.5C90.5801 136.505 98.6909 144.616 108.696 144.616C113.501 144.616 118.109 142.707 121.506 139.31C124.904 135.913 126.812 131.305 126.812 126.5C126.812 116.495 118.701 108.384 108.696 108.384ZM163.044 90.2679C153.039 90.2679 144.928 98.3787 144.928 108.384C144.928 118.389 153.039 126.5 163.044 126.5C167.849 126.5 172.457 124.591 175.854 121.194C179.252 117.797 181.16 113.189 181.16 108.384C181.16 98.3787 173.049 90.2679 163.044 90.2679Z"
		fill="#e5e7eb"
	/>
	<path
		d="M207.585 55.9971L209.661 52.5779L209.653 52.573L209.644 52.568L207.585 55.9971ZM119.188 2.90797L117.128 6.33708L117.128 6.33708L119.188 2.90797ZM217.319 73.3952L213.319 73.3397L213.319 73.3675V73.3952H217.319ZM207.486 196.872L205.434 193.438L205.426 193.443L207.486 196.872ZM119.088 249.961L117.029 246.532L116.958 246.575L116.888 246.621L119.088 249.961ZM98.2304 249.961L96.171 253.39L96.2035 253.41L96.2365 253.429L98.2304 249.961ZM9.83297 196.872L7.75707 200.291L7.76529 200.296L7.77354 200.301L9.83297 196.872ZM9.83297 55.9971L11.8842 59.4311L11.8907 59.4272L9.83297 55.9971ZM98.3297 2.90797L100.387 6.3381L100.389 6.33708L98.3297 2.90797ZM67.158 157.426L69.9864 160.254L69.9864 160.254L67.158 157.426ZM121.506 139.31L124.335 142.138L124.335 142.138L121.506 139.31ZM175.854 121.194L173.026 118.366L173.026 118.366L175.854 121.194ZM209.644 52.568L121.247 -0.521131L117.128 6.33708L205.526 59.4262L209.644 52.568ZM221.318 73.4507C221.438 64.8283 216.89 56.9672 209.661 52.5779L205.509 59.4163C210.397 62.3839 213.398 67.646 213.319 73.3397L221.318 73.4507ZM221.319 179.474V73.3952H213.319V179.474H221.319ZM209.537 200.306C216.918 195.897 221.319 188.023 221.319 179.474H213.319C213.319 185.242 210.369 190.491 205.434 193.438L209.537 200.306ZM121.148 253.39L209.545 200.301L205.426 193.443L117.029 246.532L121.148 253.39ZM96.2365 253.429C107.242 259.757 116.64 256.363 121.288 253.302L116.888 246.621C113.988 248.531 107.892 250.903 100.224 246.494L96.2365 253.429ZM7.77354 200.301L96.171 253.39L100.29 246.532L11.8924 193.443L7.77354 200.301ZM-4 179.474C-4 188.054 0.524326 195.9 7.75707 200.291L11.9089 193.453C7.02421 190.487 4 185.211 4 179.474H-4ZM-4 73.3952V179.474H4V73.3952H-4ZM7.78169 52.5631C0.400299 56.9724 -4 64.8466 -4 73.3952H4C4 67.6277 6.94959 62.3788 11.8842 59.4311L7.78169 52.5631ZM96.272 -0.522151L7.77524 52.567L11.8907 59.4272L100.387 6.3381L96.272 -0.522151ZM121.247 -0.52113C113.524 -5.15962 103.994 -5.15962 96.2703 -0.521131L100.389 6.33708C105.578 3.22097 111.94 3.22098 117.128 6.33708L121.247 -0.52113ZM40.2319 144.616C40.2319 136.82 46.5519 130.5 54.348 130.5V122.5C42.1336 122.5 32.2319 132.402 32.2319 144.616H40.2319ZM54.348 158.732C46.5519 158.732 40.2319 152.412 40.2319 144.616H32.2319C32.2319 156.83 42.1336 166.732 54.348 166.732V158.732ZM64.3295 154.598C61.6823 157.245 58.0918 158.732 54.348 158.732V166.732C60.2135 166.732 65.8388 164.402 69.9864 160.254L64.3295 154.598ZM68.464 144.616C68.464 148.36 66.9768 151.95 64.3295 154.598L69.9864 160.254C74.134 156.107 76.464 150.482 76.464 144.616H68.464ZM54.348 130.5C62.1441 130.5 68.464 136.82 68.464 144.616H76.464C76.464 132.402 66.5623 122.5 54.348 122.5V130.5ZM94.5801 126.5C94.5801 118.704 100.9 112.384 108.696 112.384V104.384C96.4818 104.384 86.5801 114.286 86.5801 126.5H94.5801ZM108.696 140.616C100.9 140.616 94.5801 134.296 94.5801 126.5H86.5801C86.5801 138.714 96.4818 148.616 108.696 148.616V140.616ZM118.678 136.482C116.03 139.129 112.44 140.616 108.696 140.616V148.616C114.562 148.616 120.187 146.286 124.335 142.138L118.678 136.482ZM122.812 126.5C122.812 130.244 121.325 133.834 118.678 136.482L124.335 142.138C128.482 137.991 130.812 132.366 130.812 126.5H122.812ZM108.696 112.384C116.492 112.384 122.812 118.704 122.812 126.5H130.812C130.812 114.286 120.91 104.384 108.696 104.384V112.384ZM148.928 108.384C148.928 100.588 155.248 94.2679 163.044 94.2679V86.2679C150.83 86.2679 140.928 96.1696 140.928 108.384H148.928ZM163.044 122.5C155.248 122.5 148.928 116.18 148.928 108.384H140.928C140.928 120.598 150.83 130.5 163.044 130.5V122.5ZM173.026 118.366C170.379 121.013 166.788 122.5 163.044 122.5V130.5C168.91 130.5 174.535 128.17 178.683 124.022L173.026 118.366ZM177.16 108.384C177.16 112.128 175.673 115.718 173.026 118.366L178.683 124.022C182.83 119.875 185.16 114.25 185.16 108.384H177.16ZM163.044 94.2679C170.84 94.2679 177.16 100.588 177.16 108.384H185.16C185.16 96.1696 175.259 86.2679 163.044 86.2679V94.2679Z"
		fill="white"
		mask="url(#path-2-inside-2_657_114)"
	/>
</svg>
