<svg
	fill="none"
	height="1000"
	viewBox="0 0 1000 1000"
	width="1000"
	xmlns="http://www.w3.org/2000/svg"
>
	<g>
		<path d="M1000.5 0.5H0.5V1000.5H1000.5V0.5Z" fill="#3178c6" />
		<path
			d="M827 674.75C840.5 674.75 852.833 675.917 864 678.25C875.167 680.417 884.5 682.917 892 685.75C899.667 688.583 904.583 690.917 906.75 692.75L882 737.5C878.833 735.167 872.917 732.167 864.25 728.5C855.75 724.833 846.25 723 835.75 723C827.75 723 821 724.25 815.5 726.75C810 729.083 807.25 732.833 807.25 738C807.25 743.167 810.25 747.333 816.25 750.5C822.417 753.5 831.25 756.167 842.75 758.5C852.75 760.5 862.917 763.667 873.25 768C883.583 772.333 892.167 778.75 899 787.25C906 795.583 909.5 806.75 909.5 820.75C909.5 835.083 906.417 846.917 900.25 856.25C894.083 865.583 885.917 872.833 875.75 878C865.583 883.167 854.583 886.75 842.75 888.75C830.917 890.917 819.417 892 808.25 892C792.583 892 778.917 890.583 767.25 887.75C755.75 884.917 746.417 881.667 739.25 878C732.083 874.333 727.083 871.417 724.25 869.25L748.75 819.25C753.083 822.917 760.167 827.083 770 831.75C779.833 836.25 790.25 838.5 801.25 838.5C811.917 838.5 820.167 836.917 826 833.75C831.833 830.583 834.75 826.417 834.75 821.25C834.75 817.083 833.333 813.75 830.5 811.25C827.667 808.75 823.667 806.583 818.5 804.75C813.333 802.917 807.083 801.25 799.75 799.75C793.083 798.417 786 796.333 778.5 793.5C771 790.667 763.917 786.833 757.25 782C750.583 777 745.167 770.75 741 763.25C736.833 755.75 734.75 746.667 734.75 736C734.75 722.333 739.167 711 748 702C756.833 693 768.25 686.25 782.25 681.75C796.25 677.083 811.167 674.75 827 674.75Z"
			fill="#fff"
		/>
		<path
			d="M610.5 892C588 892 568 887.417 550.5 878.25C533.167 868.917 519.5 856.167 509.5 840C499.667 823.667 494.75 805 494.75 784C494.75 763 499.667 744.333 509.5 728C519.5 711.5 533.167 698.5 550.5 689C568 679.5 588 674.75 610.5 674.75C633 674.75 652.833 679.5 670 689C687.167 698.5 700.583 711.5 710.25 728C719.917 744.333 724.75 763 724.75 784C724.75 805 719.917 823.667 710.25 840C700.583 856.167 687.167 868.917 670 878.25C652.833 887.417 633 892 610.5 892ZM610.5 829.5C619.167 829.5 626.667 827.583 633 823.75C639.333 819.917 644.25 814.5 647.75 807.5C651.25 800.5 653 792.583 653 783.75C653 774.75 651.25 766.75 647.75 759.75C644.25 752.75 639.333 747.25 633 743.25C626.667 739.25 619.167 737.25 610.5 737.25C601.833 737.25 594.25 739.25 587.75 743.25C581.417 747.25 576.417 752.75 572.75 759.75C569.25 766.75 567.5 774.75 567.5 783.75C567.5 792.583 569.25 800.5 572.75 807.5C576.417 814.5 581.417 819.917 587.75 823.75C594.25 827.583 601.833 829.5 610.5 829.5Z"
			fill="#fff"
		/>
		<path
			d="M243.75 556H357C375.833 556 393.25 558.583 409.25 563.75C425.417 568.917 438.417 577.417 448.25 589.25C458.25 600.917 463.25 616.75 463.25 636.75C463.25 649.917 460.75 661.667 455.75 672C450.917 682.333 444.417 690.833 436.25 697.5C428.25 704 419.5 708.333 410 710.5C418.333 711.5 426.417 713.917 434.25 717.75C442.25 721.417 449.417 726.583 455.75 733.25C462.25 739.75 467.333 747.917 471 757.75C474.833 767.417 476.75 778.917 476.75 792.25C476.75 810.75 472.583 827.083 464.25 841.25C456.083 855.25 444.083 866.25 428.25 874.25C412.583 882.083 393.333 886 370.5 886H243.75V556ZM318.5 826.25H352.5C363.167 826.25 371.833 824.667 378.5 821.5C385.333 818.167 390.333 813.5 393.5 807.5C396.667 801.333 398.25 794 398.25 785.5C398.25 772.167 394.083 762.417 385.75 756.25C377.583 749.917 366.083 746.75 351.25 746.75H318.5V826.25ZM318.5 688.25H348.75C357.583 688.25 364.917 686.667 370.75 683.5C376.75 680.333 381.25 675.917 384.25 670.25C387.417 664.417 389 657.75 389 650.25C389 636.75 385.167 627.667 377.5 623C369.833 618.167 359.333 615.75 346 615.75H318.5V688.25Z"
			fill="#fff"
		/>
	</g>
</svg>