<svg
	width="46"
	height="40"
	viewBox="0 0 46 40"
	fill="none"
	xmlns="http://www.w3.org/2000/svg"
>
	<g clip-path="url(#clip0_21_347)">
		<path
			d="M9.83002 2.68772C15.0292 6.59103 20.6212 14.5055 22.6747 18.7523C24.7281 14.5055 30.3201 6.59103 35.5193 2.68772C39.2707 -0.128688 45.3493 -2.3079 45.3493 4.62646C45.3493 6.01131 44.5553 16.2602 44.0896 17.9242C42.4708 23.7089 36.5722 25.1844 31.3251 24.2913C40.4968 25.8523 42.8299 31.0228 37.7911 36.1932C28.2214 46.0129 24.0368 33.7294 22.9646 30.582C22.768 30.0049 22.676 29.735 22.6747 29.9646C22.6733 29.735 22.5813 30.0049 22.3847 30.582C21.3125 33.7294 17.1279 46.0129 7.55822 36.1932C2.51941 31.0228 4.85252 25.8523 14.0242 24.2913C8.77709 25.1844 2.87852 23.7089 1.2597 17.9242C0.794032 16.2602 0 6.01131 0 4.62646C0 -2.3079 6.0786 -0.128688 9.83002 2.68772Z"
			fill="black"
		/>
	</g>
	<defs>
		<clipPath id="clip0_21_347">
			<rect width="45.3493" height="40" fill="white" />
		</clipPath>
	</defs>
</svg>
