<svg width="53" height="40" viewBox="0 0 53 40" fill="none" xmlns="http://www.w3.org/2000/svg">
<g clip-path="url(#clip0_21_353)">
<path d="M44.7073 3.34994C41.2398 1.76242 37.5792 0.636188 33.819 0C33.3044 0.919835 32.8389 1.86622 32.4242 2.8352C28.4189 2.23164 24.3457 2.23164 20.3403 2.8352C19.9255 1.86632 19.4599 0.919946 18.9456 0C15.183 0.641561 11.5199 1.77047 8.04894 3.35824C1.15812 13.5533 -0.709878 23.4952 0.22412 33.296C4.25956 36.2775 8.77637 38.5451 13.5782 40C14.6594 38.5458 15.6162 37.003 16.4383 35.3881C14.8768 34.8049 13.3697 34.0854 11.9344 33.2379C12.3121 32.9639 12.6816 32.6816 13.0386 32.4076C17.215 34.3717 21.7733 35.39 26.3885 35.39C31.0037 35.39 35.562 34.3717 39.7384 32.4076C40.0996 32.7024 40.469 32.9846 40.8426 33.2379C39.4045 34.0868 37.8947 34.8077 36.3304 35.3923C37.1515 37.0064 38.1083 38.5479 39.1905 40C43.9964 38.5509 48.5167 36.2844 52.5529 33.3001C53.6488 21.9344 50.6807 12.0839 44.7073 3.34994ZM17.6214 27.2686C15.0186 27.2686 12.8684 24.9066 12.8684 22.0008C12.8684 19.0951 14.9439 16.7123 17.6131 16.7123C20.2822 16.7123 22.4159 19.0951 22.3702 22.0008C22.3246 24.9066 20.2739 27.2686 17.6214 27.2686ZM35.1556 27.2686C32.5487 27.2686 30.4068 24.9066 30.4068 22.0008C30.4068 19.0951 32.4823 16.7123 35.1556 16.7123C37.8289 16.7123 39.946 19.0951 39.9003 22.0008C39.8547 24.9066 37.8082 27.2686 35.1556 27.2686Z" fill="black"/>
</g>
<defs>
<clipPath id="clip0_21_353">
<rect width="52.7771" height="40" fill="white"/>
</clipPath>
</defs>
</svg>
