<svg
	width="37"
	height="40"
	viewBox="0 0 37 40"
	fill="black"
	xmlns="http://www.w3.org/2000/svg"
>
	<path
		d="M 36.851562 8.605469 C 36.28125 4.46875 32.589844 1.207031 28.210938 0.574219 C 27.472656 0.46875 24.675781 0.0820312 18.195312 0.0820312 L 18.148438 0.0820312 C 11.664062 0.0820312 10.273438 0.46875 9.535156 0.574219 C 5.28125 1.191406 1.394531 4.121094 0.453125 8.304688 C 0 10.367188 -0.0507812 12.652344 0.0351562 14.75 C 0.152344 17.757812 0.175781 20.757812 0.457031 23.753906 C 0.648438 25.742188 0.988281 27.714844 1.464844 29.660156 C 2.363281 33.246094 5.988281 36.230469 9.542969 37.449219 C 13.347656 38.71875 17.441406 38.929688 21.363281 38.058594 C 21.792969 37.960938 22.21875 37.847656 22.640625 37.71875 C 23.59375 37.421875 24.710938 37.089844 25.53125 36.511719 C 25.542969 36.5 25.550781 36.492188 25.558594 36.480469 C 25.5625 36.46875 25.566406 36.453125 25.570312 36.441406 L 25.570312 33.539062 C 25.566406 33.527344 25.566406 33.511719 25.558594 33.5 C 25.554688 33.488281 25.546875 33.480469 25.535156 33.472656 C 25.523438 33.464844 25.511719 33.457031 25.5 33.457031 C 25.488281 33.453125 25.472656 33.453125 25.460938 33.457031 C 22.949219 34.042969 20.375 34.335938 17.792969 34.332031 C 13.347656 34.332031 12.152344 32.269531 11.808594 31.414062 C 11.535156 30.671875 11.359375 29.898438 11.289062 29.113281 C 11.289062 29.101562 11.292969 29.085938 11.296875 29.074219 C 11.300781 29.0625 11.308594 29.054688 11.320312 29.042969 C 11.332031 29.035156 11.34375 29.03125 11.355469 29.027344 C 11.371094 29.023438 11.382812 29.023438 11.398438 29.027344 C 13.867188 29.609375 16.398438 29.902344 18.941406 29.902344 C 19.550781 29.902344 20.160156 29.902344 20.773438 29.886719 C 23.328125 29.816406 26.023438 29.691406 28.535156 29.210938 C 28.597656 29.199219 28.660156 29.1875 28.714844 29.171875 C 32.683594 28.429688 36.457031 26.09375 36.839844 20.179688 C 36.855469 19.949219 36.890625 17.742188 36.890625 17.5 C 36.890625 16.679688 37.160156 11.679688 36.851562 8.605469 Z M 30.746094 23.359375 L 26.574219 23.359375 L 26.574219 13.382812 C 26.574219 11.28125 25.679688 10.210938 23.855469 10.210938 C 21.851562 10.210938 20.847656 11.476562 20.847656 13.980469 L 20.847656 19.441406 L 16.703125 19.441406 L 16.703125 13.980469 C 16.703125 11.476562 15.699219 10.210938 13.695312 10.210938 C 11.882812 10.210938 10.976562 11.28125 10.976562 13.382812 L 10.976562 23.359375 L 6.808594 23.359375 L 6.808594 13.078125 C 6.808594 10.980469 7.359375 9.308594 8.457031 8.074219 C 9.589844 6.839844 11.074219 6.207031 12.917969 6.207031 C 15.054688 6.207031 16.667969 7.007812 17.742188 8.609375 L 18.78125 10.308594 L 19.820312 8.609375 C 20.894531 7.007812 22.507812 6.207031 24.636719 6.207031 C 26.480469 6.207031 27.964844 6.839844 29.101562 8.074219 C 30.199219 9.308594 30.75 10.976562 30.75 13.078125 Z M 30.746094 23.359375 "
		fill="#3A5A6E"
	/>
</svg>
