<svg
	width="39"
	height="40"
	viewBox="0 0 39 40"
	fill="none"
	xmlns="http://www.w3.org/2000/svg"
>
	<path
		d="M36.517 23.9796C35.9685 26.8013 31.6047 29.8893 26.5928 30.4878C23.9793 30.7996 21.4062 31.0861 18.6623 30.9603C14.175 30.7548 10.6342 29.8893 10.6342 29.8893C10.6342 30.3261 10.6612 30.742 10.715 31.131C11.2984 35.5595 15.1062 35.8248 18.7132 35.9485C22.3538 36.073 25.5955 35.051 25.5955 35.051L25.745 38.3421C25.745 38.3421 23.1985 39.7095 18.6623 39.961C16.1609 40.0985 13.055 39.8981 9.43752 38.9406C1.59172 36.864 0.24242 28.5008 0.0359632 20.015C-0.0269653 17.4953 0.0118263 15.1196 0.0118263 13.1326C0.0118263 4.45541 5.69715 1.91199 5.69715 1.91199C8.56383 0.59545 13.4828 0.0418086 18.5967 0H18.7222C23.836 0.0418086 28.7582 0.59545 31.6247 1.91199C31.6247 1.91199 37.3098 4.45541 37.3098 13.1326C37.3098 13.1326 37.3812 19.5348 36.517 23.9796Z"
		fill="black"
	/>
	<path
		d="M30.6038 13.8058V24.3125H26.4413V14.1146C26.4413 11.9649 25.5368 10.8738 23.7277 10.8738C21.7273 10.8738 20.7248 12.1682 20.7248 14.7275V20.3095H16.5868V14.7275C16.5868 12.1682 15.584 10.8738 13.5837 10.8738C11.7745 10.8738 10.87 11.9649 10.87 14.1146V24.3125H6.70746V13.8058C6.70746 11.6585 7.25419 9.9521 8.35243 8.68965C9.48493 7.42721 10.968 6.78003 12.8091 6.78003C14.9392 6.78003 16.5523 7.59875 17.6188 9.2364L18.6557 10.9745L19.6927 9.2364C20.759 7.59875 22.3722 6.78003 24.5023 6.78003C26.3433 6.78003 27.8263 7.42721 28.9592 8.68965C30.0572 9.9521 30.6038 11.6585 30.6038 13.8058Z"
		fill="#d9f4ff"
	/>
</svg>
