<svg
	width="168"
	height="21"
	viewBox="0 0 168 21"
	fill="none"
	xmlns="http://www.w3.org/2000/svg"
>
	<path
		d="M5 16.2692C5 16.2692 7.35383 13.828 10.5646 10.6404C14.9897 6.24709 22.0895 6.28052 26.6807 10.5V10.5C31.2719 14.7195 38.4109 14.7195 43.0021 10.5V10.5C47.5932 6.28052 54.6917 6.24322 59.2828 10.4627L59.5051 10.667C64.0372 14.8321 70.9858 14.8928 75.5898 10.8074L76.9449 9.60495C81.2616 5.77453 87.6935 5.55937 92.2566 9.09276L93.4111 9.98677C97.3898 13.0677 102.868 13.339 107.132 10.6663L109.24 9.34482C113.172 6.87985 118.173 6.90335 122.082 9.40517L125.437 11.5521C129.38 14.0759 134.431 14.0759 138.374 11.5521L141.662 9.44789C145.605 6.92408 150.656 6.92409 154.6 9.44789L164.356 15.6923"
		stroke="#117799"
		stroke-width="12"
	/>
</svg>
