<svg
	width="383"
	height="24"
	viewBox="0 0 383 24"
	fill="none"
	xmlns="http://www.w3.org/2000/svg"
>
	<path
		d="M6 13.2664L7.35287 11.1992C11.6624 4.61408 18.0837 4.24418 22.6393 10.3186L23.7919 11.8556C27.764 17.1522 33.2332 17.6186 37.4901 13.0238L39.5946 10.752C43.5201 6.5143 48.5129 6.5547 52.4154 10.8557L55.7649 14.5466C59.7014 18.8855 64.744 18.8855 68.6805 14.5466L71.9631 10.9292C75.8996 6.59034 80.9423 6.59035 84.8798 10.9292L88.1613 14.5466C92.0988 18.8855 97.1415 18.8855 101.078 14.5466L104.361 10.9292C108.297 6.59034 113.34 6.59035 117.276 10.9292L120.44 14.4156C124.437 18.8215 129.569 18.7479 133.523 14.2281L136.131 11.2477C140.085 6.7279 145.216 6.65441 149.214 11.0603L152.377 14.5466C156.315 18.8855 161.357 18.8855 165.294 14.5466L168.576 10.9292C172.513 6.59034 177.555 6.59035 181.492 10.9292L184.775 14.5466C188.711 18.8855 193.754 18.8855 197.691 14.5466L200.973 10.9292C204.91 6.59034 209.953 6.59035 213.889 10.9292L217.238 14.62C221.14 18.9212 226.133 18.9616 230.06 14.7239L233.001 11.5486C236.832 7.41223 241.691 7.34433 245.561 11.373L249.07 15.0253C252.976 19.09 257.883 18.9817 261.725 14.7459L265.189 10.9292C269.126 6.59034 274.169 6.59035 278.105 10.9292L281.388 14.5466C285.324 18.8855 290.367 18.8855 294.303 14.5466L297.586 10.9292C301.522 6.59034 306.565 6.59035 310.503 10.9292L313.784 14.5466C317.722 18.8855 322.764 18.8855 326.701 14.5466L329.983 10.9292C333.92 6.59034 338.963 6.59035 342.899 10.9292L346.063 14.4156C350.06 18.8215 355.192 18.7479 359.146 14.2281L361.754 11.2477C365.708 6.7279 370.839 6.65441 374.837 11.0603L378 14.5466"
		stroke="#c4a25e"
		stroke-width="12"
	/>
</svg>
